<svg width="56" height="56" viewBox="0 0 56 56" fill="none" xmlns="http://www.w3.org/2000/svg">
<path d="M28.0001 56.0001C43.4641 56.0001 56.0001 43.4641 56.0001 28.0001C56.0001 12.5361 43.4641 9.15527e-05 28.0001 9.15527e-05C12.5361 9.15527e-05 0.00012207 12.5361 0.00012207 28.0001C0.00012207 43.4641 12.5361 56.0001 28.0001 56.0001Z" fill="#DC90E3"/>
<path fill-rule="evenodd" clip-rule="evenodd" d="M9.79703 15.7885C7.26903 14.3382 4.17188 11.9965 8.91246 5.51534C14.6907 11.0902 12.0393 13.9279 9.79703 15.7885Z" fill="#FFE26B"/>
<path fill-rule="evenodd" clip-rule="evenodd" d="M11.2839 42.4103C9.57877 43.5829 7.4542 44.8046 5.07134 44.0743C3.55934 41.9223 2.34334 39.5486 1.48163 37.0103C8.92048 35.0686 10.4702 39.1543 11.2839 42.4103Z" fill="#FEB247"/>
<path fill-rule="evenodd" clip-rule="evenodd" d="M0.511762 24.5444C8.32902 26.3782 7.50296 30.1722 6.52856 32.9185C3.61496 32.9658 -0.244467 32.5383 0.511762 24.5444Z" fill="#FEB247"/>
<path fill-rule="evenodd" clip-rule="evenodd" d="M6.97299 23.2034C4.17642 22.6537 0.571851 21.4571 2.92728 13.9657C10.0301 17.3143 8.46557 20.7748 6.97299 23.2034Z" fill="#FFE26B"/>
<path fill-rule="evenodd" clip-rule="evenodd" d="M54.5193 37.0103C53.6576 39.5474 52.4416 41.9211 50.9296 44.0731C48.5467 44.8057 46.4222 43.5829 44.7159 42.4103C45.5296 39.1531 47.0793 35.0686 54.5193 37.0103Z" fill="#FEB247"/>
<path fill-rule="evenodd" clip-rule="evenodd" d="M55.4878 24.5444C47.6705 26.3782 48.4965 30.1722 49.4709 32.9185C52.3845 32.9658 56.2439 32.5383 55.4878 24.5444Z" fill="#FEB247"/>
<path fill-rule="evenodd" clip-rule="evenodd" d="M9.79703 15.7885C7.26903 14.3382 4.17188 11.9965 8.91245 5.51534L9.79703 15.7885Z" fill="#FEB247"/>
<path fill-rule="evenodd" clip-rule="evenodd" d="M47.0873 5.51508C41.3091 11.0905 43.9603 13.9275 46.2026 15.7886C48.7302 14.3383 51.8273 11.9962 47.0873 5.51508Z" fill="#FEB247"/>
<path fill-rule="evenodd" clip-rule="evenodd" d="M53.0722 13.9653C45.969 17.3147 47.5336 20.7753 49.026 23.2034C51.8227 22.6539 55.4271 21.4573 53.0722 13.9653Z" fill="#FEB247"/>
<path fill-rule="evenodd" clip-rule="evenodd" d="M23.2336 48.1554L22.8118 49.9474L22.7101 50.3794C17.7524 49.2126 13.2576 46.3691 10.0541 42.3737C6.80042 38.3166 5.00842 33.2114 5.00842 28C5.00842 22.7886 6.80042 17.6846 10.0541 13.6274C13.2576 9.63085 17.7524 6.78742 22.7101 5.62056L22.8118 6.05256L23.2336 7.84456C18.7707 8.89599 14.7227 11.4571 11.837 15.0571C8.86442 18.7634 7.29414 23.2388 7.29414 28C7.29414 32.7611 8.86442 37.2377 11.837 40.944C14.7227 44.5428 18.7707 47.104 23.2336 48.1554Z" fill="#FEB247"/>
<path fill-rule="evenodd" clip-rule="evenodd" d="M23.2336 48.1554L22.8119 49.9474C18.4816 48.5909 14.5902 45.9417 11.7296 42.3737C8.4759 38.3166 6.6839 33.2114 6.6839 28C6.6839 22.7886 8.4759 17.6846 11.7296 13.6274C14.5902 10.0583 18.4816 7.40914 22.8119 6.05257L23.2336 7.84457C18.7708 8.89599 14.7228 11.4571 11.837 15.0571C8.86447 18.7634 7.29419 23.2389 7.29419 28C7.29419 32.7611 8.86447 37.2377 11.837 40.944C14.7228 44.5429 18.7708 47.104 23.2336 48.1554Z" fill="#FFE26B"/>
<path fill-rule="evenodd" clip-rule="evenodd" d="M33.2898 50.3799L32.7659 48.155C37.2292 47.1039 41.2769 44.5429 44.1634 40.9435C47.1356 37.2374 48.7067 32.7615 48.7067 28C48.7067 23.239 47.1356 18.7632 44.1634 15.0568C41.2768 11.4571 37.2291 8.896 32.7659 7.84491L33.2898 5.62C38.2473 6.78742 42.7423 9.63097 45.9466 13.6267C49.2006 17.6843 50.9924 22.7888 50.9924 27.9999C50.9924 33.2114 49.2004 38.316 45.9466 42.3735C42.7424 46.369 38.2474 49.2125 33.2898 50.3799Z" fill="#FFE26B"/>
<path fill-rule="evenodd" clip-rule="evenodd" d="M15.6004 46.5188C12.6873 44.2491 9.21758 40.7577 16.3204 33.4697C22.5776 41.496 18.7456 44.5828 15.6004 46.5188Z" fill="#FEB247"/>
<path fill-rule="evenodd" clip-rule="evenodd" d="M8.53301 38.0697C6.22215 35.5143 3.59815 31.7486 11.2976 26.1966C15.7536 34.5794 11.7353 36.7989 8.53301 38.0697Z" fill="#FEB247"/>
<path fill-rule="evenodd" clip-rule="evenodd" d="M13.8142 18.016C13.693 26.4926 9.59361 26.4994 6.54104 26.1166C5.83247 23.1223 5.39933 19.0457 13.8142 18.016Z" fill="#FEB247"/>
<path fill-rule="evenodd" clip-rule="evenodd" d="M18.7742 12.984C14.8896 17.9646 12.4519 16.1246 10.8107 14.5234C11.7364 12.4274 13.3136 9.81142 18.7742 12.984Z" fill="#FEB247"/>
<path fill-rule="evenodd" clip-rule="evenodd" d="M15.6005 46.5188L16.3205 33.4697C22.5776 41.496 18.7456 44.5828 15.6005 46.5188Z" fill="#FFE26B"/>
<path fill-rule="evenodd" clip-rule="evenodd" d="M8.53302 38.0697L11.2976 26.1966C15.7536 34.5794 11.7353 36.7989 8.53302 38.0697Z" fill="#FFE26B"/>
<path fill-rule="evenodd" clip-rule="evenodd" d="M13.8142 18.016C13.6931 26.4926 9.59365 26.4994 6.54108 26.1166L13.8142 18.016Z" fill="#FFE26B"/>
<path fill-rule="evenodd" clip-rule="evenodd" d="M18.7742 12.984C14.8896 17.9646 12.4519 16.1246 10.8107 14.5234L18.7742 12.984Z" fill="#FFE26B"/>
<path fill-rule="evenodd" clip-rule="evenodd" d="M32.7659 48.1554L33.1876 49.9474C37.5179 48.5909 41.4094 45.9417 44.2699 42.3737C47.5236 38.3166 49.3156 33.2114 49.3156 28C49.3156 22.7886 47.5236 17.6846 44.2699 13.6274C41.4094 10.0583 37.5179 7.40914 33.1876 6.05257L32.7659 7.84457C37.2288 8.89599 41.2768 11.4571 44.1625 15.0571C47.1351 18.7634 48.7054 23.2389 48.7054 28C48.7054 32.7611 47.1351 37.2377 44.1625 40.944C41.2768 44.5429 37.2288 47.104 32.7659 48.1554Z" fill="#FEB247"/>
<path fill-rule="evenodd" clip-rule="evenodd" d="M40.3991 46.5188C43.3123 44.2491 46.782 40.7577 39.6791 33.4697C33.422 41.496 37.254 44.5828 40.3991 46.5188Z" fill="#FFE26B"/>
<path fill-rule="evenodd" clip-rule="evenodd" d="M47.4665 38.0697C49.7774 35.5143 52.4014 31.7486 44.7019 26.1966C40.2459 34.5794 44.2642 36.7989 47.4665 38.0697Z" fill="#FFE26B"/>
<path fill-rule="evenodd" clip-rule="evenodd" d="M42.1854 18.016C42.3065 26.4926 46.4059 26.4994 49.4585 26.1166C50.1671 23.1223 50.6002 19.0457 42.1854 18.016Z" fill="#FFE26B"/>
<path fill-rule="evenodd" clip-rule="evenodd" d="M37.2254 12.984C41.11 17.9646 43.5477 16.1246 45.1888 14.5234C44.2631 12.4274 42.686 9.81142 37.2254 12.984Z" fill="#FFE26B"/>
<path fill-rule="evenodd" clip-rule="evenodd" d="M40.3991 46.5188L39.6791 33.4697C33.422 41.496 37.254 44.5828 40.3991 46.5188Z" fill="#FEB247"/>
<path fill-rule="evenodd" clip-rule="evenodd" d="M47.4665 38.0697L44.7019 26.1966C40.2459 34.5794 44.2642 36.7989 47.4665 38.0697Z" fill="#FEB247"/>
<path fill-rule="evenodd" clip-rule="evenodd" d="M42.1854 18.016C42.3065 26.4926 46.4059 26.4994 49.4585 26.1166L42.1854 18.016Z" fill="#FEB247"/>
<path fill-rule="evenodd" clip-rule="evenodd" d="M37.2254 12.984C41.11 17.9646 43.5477 16.1246 45.1888 14.5234L37.2254 12.984Z" fill="#FEB247"/>
<path fill-rule="evenodd" clip-rule="evenodd" d="M6.97299 23.2034C4.17642 22.6537 0.571851 21.4571 2.92728 13.9657L6.97299 23.2034Z" fill="#FEB247"/>
<path fill-rule="evenodd" clip-rule="evenodd" d="M46.2028 15.7885C48.7308 14.3382 51.8279 11.9965 47.0873 5.51534L46.2028 15.7885Z" fill="#FFE26B"/>
<path fill-rule="evenodd" clip-rule="evenodd" d="M49.0267 23.2034C51.8233 22.6537 55.4279 21.4571 53.0724 13.9657L49.0267 23.2034Z" fill="#FFE26B"/>
<mask id="mask0" mask-type="alpha" maskUnits="userSpaceOnUse" x="15" y="14" width="26" height="24">
<path d="M35.2964 29.664C35.2484 29.8857 35.2439 30.1177 35.2827 30.3474L36.1799 35.5749C36.4347 37.0629 34.8724 38.1989 33.5353 37.496L28.8404 35.0274C28.3113 34.7497 27.6782 34.7486 27.1479 35.0263L22.4302 37.5063C21.773 37.8423 21.0644 37.7371 20.5444 37.3669C20.0107 36.9863 19.6782 36.3246 19.8062 35.5749L20.7033 30.3474C20.8039 29.7566 20.6084 29.1531 20.1787 28.7337L16.381 25.032C15.8473 24.512 15.7216 23.8011 15.9124 23.1886C16.1079 22.5589 16.6347 22.0331 17.3913 21.9234L22.6393 21.1611C23.2324 21.0743 23.7456 20.7017 24.0119 20.1646L26.3593 15.408C26.693 14.7303 27.3422 14.392 27.9924 14.392C28.6427 14.392 29.2919 14.7303 29.6267 15.408L31.9741 20.1646C32.1124 20.4446 32.3182 20.68 32.5684 20.8526C32.797 21.0126 33.0622 21.12 33.3467 21.1611L38.5947 21.9234C39.3216 22.0286 39.8359 22.5177 40.0484 23.1131C40.2736 23.7429 40.1604 24.4903 39.605 25.032L35.8073 28.7337C35.6199 28.9166 35.477 29.1337 35.3844 29.3703C35.3467 29.4651 35.317 29.5634 35.2964 29.664Z" fill="white"/>
</mask>
<g mask="url(#mask0)">
<path d="M35.2964 29.664C35.2484 29.8857 35.2439 30.1177 35.2827 30.3474L36.1799 35.5749C36.4347 37.0629 34.8724 38.1989 33.5353 37.496L28.8404 35.0274C28.3113 34.7497 27.6782 34.7486 27.1479 35.0263L22.4302 37.5063C21.773 37.8423 21.0644 37.7371 20.5444 37.3669C20.0107 36.9863 19.6782 36.3246 19.8062 35.5749L20.7033 30.3474C20.8039 29.7566 20.6084 29.1531 20.1787 28.7337L16.381 25.032C15.8473 24.512 15.7216 23.8011 15.9124 23.1886C16.1079 22.5589 16.6347 22.0331 17.3913 21.9234L22.6393 21.1611C23.2324 21.0743 23.7456 20.7017 24.0119 20.1646L26.3593 15.408C26.693 14.7303 27.3422 14.392 27.9924 14.392C28.6427 14.392 29.2919 14.7303 29.6267 15.408L31.9741 20.1646C32.1124 20.4446 32.3182 20.68 32.5684 20.8526C32.797 21.0126 33.0622 21.12 33.3467 21.1611L38.5947 21.9234C39.3216 22.0286 39.8359 22.5177 40.0484 23.1131C40.2736 23.7429 40.1604 24.4903 39.605 25.032L35.8073 28.7337C35.6199 28.9166 35.477 29.1337 35.3844 29.3703C35.3467 29.4651 35.317 29.5634 35.2964 29.664Z" fill="#FFE26B"/>
</g>
</svg>
