<?xml version="1.0" encoding="UTF-8"?>
<svg width="14px" height="18px" viewBox="0 0 14 18" version="1.1" xmlns="http://www.w3.org/2000/svg" xmlns:xlink="http://www.w3.org/1999/xlink">
    <!-- Generator: Sketch 51.1 (57501) - http://www.bohemiancoding.com/sketch -->
    <title>courseIcon</title>
    <desc>Created with Sketch.</desc>
    <defs></defs>
    <g id="Wunder" stroke="none" stroke-width="1" fill="none" fill-rule="evenodd">
        <g id="Course" transform="translate(-581.000000, -149.000000)">
            <g id="Type" transform="translate(576.000000, 144.000000)">
                <g id="courseIcon" transform="translate(0.000000, 2.000000)">
                    <rect id="Mask" x="0" y="0" width="24" height="24"></rect>
                    <g transform="translate(6.000000, 4.500000)" stroke="#77787A" stroke-linecap="round" stroke-linejoin="round" stroke-width="1.2">
                        <path d="M1,0 L11,0 C11.5522847,-1.01453063e-16 12,0.44771525 12,1 L12,15 L10.5,14.25 L9,15 L7.5,14.25 L6,15 L4.5,14.25 L3,15 L1.5,14.25 L0,15 L0,1 C-6.76353751e-17,0.44771525 0.44771525,1.01453063e-16 1,0 Z" id="Rectangle-59"></path>
                        <path d="M3.375,3.75 L8.625,3.75" id="Line"></path>
                        <path d="M3.375,6.375 L8.625,6.375" id="Line-Copy"></path>
                        <path d="M3.375,9 L6.375,9" id="Line-Copy-2"></path>
                    </g>
                </g>
            </g>
        </g>
    </g>
</svg>