<?xml version="1.0" encoding="UTF-8"?>
<svg width="16px" height="16px" viewBox="0 0 16 16" version="1.1" xmlns="http://www.w3.org/2000/svg" xmlns:xlink="http://www.w3.org/1999/xlink">
    <!-- Generator: Sketch 48.2 (47327) - http://www.bohemiancoding.com/sketch -->
    <title>courseIcon</title>
    <desc>Created with Sketch.</desc>
    <defs></defs>
    <g id="Profile" stroke="none" stroke-width="1" fill="none" fill-rule="evenodd" transform="translate(-454.000000, -24.000000)">
        <g id="Header-Logged">
            <g id="nav-link-#2" transform="translate(454.000000, 21.000000)">
                <g id="courseIcon" transform="translate(0.000000, 3.000000)">
                    <rect id="Mask" x="0" y="0" width="16" height="16"></rect>
                    <g transform="translate(4.000000, 3.000000)" stroke="#FFFFFF" stroke-linecap="round" stroke-linejoin="round">
                        <path d="M1,0 L7,0 C7.55228475,-1.01453063e-16 8,0.44771525 8,1 L8,10 L7,9.5 L6,10 L5,9.5 L4,10 L3,9.5 L2,10 L1,9.5 L0,10 L0,1 C-6.76353751e-17,0.44771525 0.44771525,1.01453063e-16 1,0 Z" id="Rectangle-59"></path>
                        <path d="M2.25,2.5 L5.75,2.5" id="Line"></path>
                        <path d="M2.25,4.25 L5.75,4.25" id="Line-Copy"></path>
                        <path d="M2.25,6 L4.25,6" id="Line-Copy-2"></path>
                    </g>
                </g>
            </g>
        </g>
    </g>
</svg>