<svg width="56" height="56" viewBox="0 0 56 56" fill="none" xmlns="http://www.w3.org/2000/svg">
<path d="M28 55.8861C43.464 55.8861 56 43.3756 56 27.9431C56 12.5106 43.464 0.00012207 28 0.00012207C12.536 0.00012207 0 12.5106 0 27.9431C0 43.3756 12.536 55.8861 28 55.8861Z" fill="#F37250"/>
<path fill-rule="evenodd" clip-rule="evenodd" d="M50.8535 44.3243C45.7608 51.3947 37.4483 56.0001 28.057 56.0001C18.6658 56.0001 10.3533 51.3947 5.26062 44.3243V12.0313H50.8535V44.3243Z" fill="#F8BB5E"/>
<path d="M29.8053 55.9459C29.2271 55.9815 28.6443 56.0001 28.057 56.0001C18.6658 56.0001 10.3533 51.3947 5.26062 44.3243V12.0313H8.76776V44.3243C13.5401 50.9499 21.1399 55.4109 29.8053 55.9459ZM36.9345 37.1876H19.1796V39.3022H36.9345V37.1876ZM40.6608 31.7188H15.4533V33.8334H40.6608V31.7188Z" fill="#DCA050"/>
<path fill-rule="evenodd" clip-rule="evenodd" d="M50.8535 17.5001H10.7405C7.71409 17.5001 5.26062 15.0516 5.26062 12.0313C5.26062 9.01102 7.71409 6.56255 10.7405 6.56255H50.3055C50.6081 6.56255 50.8535 6.80744 50.8535 7.10942V17.5001Z" fill="#FBC56D"/>
<path fill-rule="evenodd" clip-rule="evenodd" d="M50.8535 15.3126H10.7405C8.92459 15.3126 7.45258 13.8436 7.45258 12.0313C7.45258 10.2191 8.92459 8.75006 10.7405 8.75006H50.8535V15.3126Z" fill="#FFDF8E"/>
<path fill-rule="evenodd" clip-rule="evenodd" d="M50.8534 15.3126H13.1517C11.3357 15.3126 9.86371 13.8436 9.86371 12.0313C9.86371 10.2191 11.3357 8.75006 13.1517 8.75006H50.8534V15.3126Z" fill="#FFF2B4"/>
<path d="M50.8535 10.1172V11.211H12.6037C12.3011 11.211 12.0557 10.9661 12.0557 10.6641C12.0557 10.3621 12.3011 10.1172 12.6037 10.1172H50.8535ZM12.0557 13.3985C12.0557 13.7005 12.3011 13.9454 12.6037 13.9454H50.8535V12.8516H12.6037C12.3011 12.8516 12.0557 13.0965 12.0557 13.3985Z" fill="#FFDF8E"/>
<path fill-rule="evenodd" clip-rule="evenodd" d="M10.9597 15.3126V13.1251C10.9597 11.3128 12.4317 9.84381 14.2477 9.84381H16.4396C18.2556 9.84381 19.7276 11.3128 19.7276 13.1251V15.3126H10.9597Z" fill="#C44545"/>
<path fill-rule="evenodd" clip-rule="evenodd" d="M29.5914 13.1251V26.2501L23.5635 22.9688L17.5356 26.2501V13.1251C17.5356 11.3128 16.0636 9.84381 14.2477 9.84381H17.5356H26.3035C28.1194 9.84381 29.5914 11.3128 29.5914 13.1251Z" fill="#F26767"/>
</svg>
