<?xml version="1.0" encoding="UTF-8"?>
<svg width="22px" height="16px" viewBox="0 0 22 16" version="1.1" xmlns="http://www.w3.org/2000/svg" xmlns:xlink="http://www.w3.org/1999/xlink">
    <!-- Generator: Sketch 51.1 (57501) - http://www.bohemiancoding.com/sketch -->
    <title>facultyIcon</title>
    <desc>Created with Sketch.</desc>
    <defs></defs>
    <g id="Wunder" stroke="none" stroke-width="1" fill="none" fill-rule="evenodd">
        <g id="Faculty" transform="translate(-577.000000, -150.000000)">
            <g id="Type" transform="translate(576.000000, 144.000000)">
                <g id="facultyIcon" transform="translate(0.000000, 2.000000)">
                    <rect id="Mask" x="0" y="0" width="24" height="24"></rect>
                    <g id="education" transform="translate(2.000000, 5.000000)" stroke="#77787A" stroke-linecap="round" stroke-linejoin="round" stroke-width="1.2">
                        <path d="M3.5,11.25 C3.5,10.7246572 3.5,9.13937121 3.5,6.49414192 L8.75501015,8.89110435 C9.54581319,9.25181253 10.4541868,9.25181253 11.2449898,8.89110435 L16.5,6.49414192 C16.5,9.13937121 16.5,10.7246572 16.5,11.25 C16.5,12.7687831 13.5898509,14 10,14 C6.41014913,14 3.5,12.7687831 3.5,11.25 Z M8.5476676,0.270002353 C9.34976864,-0.0909431127 10.6544222,-0.0890572207 11.4523324,0.270002353 L19.3999948,3.84645042 C20.2020958,4.20739589 20.1979049,4.79449 19.3999948,5.15354958 L11.4523324,8.72999765 C10.6502314,9.09094311 9.34557777,9.08905722 8.5476676,8.72999765 L0.600005228,5.15354958 C-0.202095806,4.79260411 -0.197904935,4.20551 0.600005228,3.84645042 L8.5476676,0.270002353 Z" id="Combined-Shape"></path>
                    </g>
                </g>
            </g>
        </g>
    </g>
</svg>