<svg width="48" height="48" viewBox="0 0 48 48" fill="none" xmlns="http://www.w3.org/2000/svg">
<path d="M48 24C48 37.2548 37.2548 48 24 48C10.7452 48 0 37.2548 0 24C0 10.7452 10.7452 0 24 0C37.2548 0 48 10.7452 48 24Z" fill="#F5D04E"/>
<path d="M41.4969 40.4254C39.1277 42.9481 36.2197 44.958 32.956 46.2716L29.7615 47.3021C27.9156 47.757 25.9863 48 24 48C22.0137 48 20.0845 47.757 18.2385 47.3021L15.0442 46.2717C11.7805 44.9581 8.87233 42.9481 6.50317 40.4254V22.6332C6.50317 22.3215 6.75592 22.0687 7.06764 22.0687H40.9324C41.2441 22.0687 41.4968 22.3214 41.4968 22.6332V40.4254H41.4969Z" fill="#596C76"/>
<path d="M4.66024 40.3856C5.23934 40.9572 5.62502 41.9743 5.62502 43.1345C5.62502 43.7738 5.50755 44.3693 5.30552 44.8713C4.75802 44.9603 4.17949 45.0089 3.58024 45.0089C2.98099 45.0089 2.40246 44.9603 1.85496 44.8713C1.65293 44.3694 1.53546 43.7738 1.53546 43.1345C1.53546 41.9743 1.92115 40.9572 2.50024 40.3856C2.32334 40.1557 2.21702 39.8686 2.21702 39.5561C2.21702 39.0518 2.49152 38.6126 2.89868 38.3768V23.1977H4.2619V38.3768C4.66896 38.6125 4.94346 39.0518 4.94346 39.5561C4.94337 39.8686 4.83715 40.1557 4.66024 40.3856ZM34.7097 22.0688H13.2903L9.09949 23.4207V22.0688H7.06765C6.75593 22.0688 6.50318 22.3215 6.50318 22.6333V40.4255C7.30877 41.2833 8.17634 42.0821 9.09949 42.8142V29.3041C9.09949 28.6151 9.81771 28.1615 10.4398 28.4575L23.5871 34.7141C23.8556 34.8008 24.1445 34.8008 24.413 34.7141L41.4969 26.5841V24.2582L34.7097 22.0688Z" fill="#465A61"/>
<path d="M24.413 15.065L45.1927 21.7681C45.7484 21.9474 46.125 22.4645 46.125 23.0484C46.125 23.6321 45.7484 24.1494 45.1927 24.3286L24.413 31.0317C24.1445 31.1184 23.8555 31.1184 23.587 31.0317L2.80725 24.3286C2.25159 24.1494 1.875 23.6322 1.875 23.0484C1.875 22.4646 2.25159 21.9474 2.80725 21.7681L23.587 15.065C23.8555 14.9783 24.1445 14.9783 24.413 15.065Z" fill="#7A8C98"/>
</svg>
