<svg width="32" height="32" viewBox="0 0 32 32" fill="none" xmlns="http://www.w3.org/2000/svg">
<path fill-rule="evenodd" clip-rule="evenodd" d="M0 16C0 7.16479 7.16479 0 16 0C24.8352 0 32 7.16479 32 16C32 24.8352 24.8352 32 16 32C7.16479 32 0 24.8352 0 16ZM24.7051 22.0181C24.9321 21.4336 25.0876 20.7659 25.1321 19.7878C25.177 18.8081 25.1875 18.4951 25.1875 16C25.1875 13.5049 25.177 13.1919 25.1323 12.2122C25.0876 11.2341 24.9324 10.5664 24.7051 9.98193C24.4746 9.3689 24.1128 8.81372 23.6455 8.35474C23.1865 7.88721 22.6311 7.52539 22.0181 7.29468C21.4336 7.06787 20.7659 6.9126 19.7878 6.86816C18.8081 6.82324 18.4951 6.8125 16 6.8125C13.5049 6.8125 13.1919 6.82324 12.2122 6.86792C11.2341 6.9126 10.5664 7.06787 9.98193 7.29492C9.3689 7.52563 8.81348 7.88721 8.35474 8.35474C7.88721 8.81348 7.52539 9.3689 7.29468 9.98193C7.06763 10.5664 6.91235 11.2341 6.86792 12.2122C6.823 13.1919 6.8125 13.5049 6.8125 16C6.8125 18.4951 6.823 18.8081 6.86816 19.7881C6.9126 20.7659 7.06812 21.4338 7.29517 22.0181C7.52588 22.6311 7.88745 23.1865 8.35474 23.6453C8.81372 24.1128 9.3689 24.4744 9.98218 24.7051C10.5664 24.9321 11.2344 25.0874 12.2122 25.1321C13.1921 25.1768 13.5049 25.1875 16.0002 25.1875C18.4954 25.1875 18.8083 25.1768 19.7881 25.1321C20.7659 25.0874 21.4338 24.9321 22.0181 24.7051C23.2522 24.2278 24.2278 23.2522 24.7051 22.0181ZM23.1621 10.5815C23.0149 10.1826 22.78 9.82153 22.4749 9.52515C22.1785 9.21997 21.8176 8.98511 21.4185 8.83789C21.0947 8.71216 20.6084 8.5625 19.7126 8.52173C18.7437 8.47754 18.4531 8.46802 16 8.46802C13.5466 8.46802 13.2561 8.47729 12.2874 8.52148C11.3916 8.5625 10.905 8.71216 10.5815 8.83789C10.1824 8.98511 9.82129 9.21997 9.52515 9.52515C9.21997 9.82153 8.98511 10.1824 8.83765 10.5815C8.71191 10.9053 8.56226 11.3918 8.52148 12.2876C8.47729 13.2563 8.46777 13.5469 8.46777 16.0002C8.46777 18.4534 8.47729 18.7439 8.52148 19.7129C8.56226 20.6086 8.71191 21.095 8.83765 21.4187C8.98511 21.8179 9.21973 22.1787 9.5249 22.4751C9.82129 22.7803 10.1821 23.0151 10.5813 23.1624C10.905 23.2883 11.3916 23.438 12.2874 23.4788C13.2561 23.5229 13.5464 23.5322 15.9998 23.5322C18.4534 23.5322 18.7439 23.5229 19.7124 23.4788C20.6082 23.438 21.0947 23.2883 21.4185 23.1624C22.2197 22.8533 22.853 22.22 23.1621 21.4187C23.2878 21.095 23.4375 20.6086 23.4785 19.7129C23.5227 18.7439 23.532 18.4534 23.532 16.0002C23.532 13.5469 23.5227 13.2563 23.4785 12.2876C23.4377 11.3918 23.2881 10.9053 23.1621 10.5815ZM16 20.7178C13.3943 20.7178 11.282 18.6057 11.282 16C11.282 13.3943 13.3943 11.2822 16 11.2822C18.6055 11.2822 20.7178 13.3943 20.7178 16C20.7178 18.6057 18.6055 20.7178 16 20.7178ZM20.9043 12.1982C20.2954 12.1982 19.8018 11.7046 19.8018 11.0957C19.8018 10.4868 20.2954 9.99316 20.9043 9.99316C21.5132 9.99316 22.0068 10.4868 22.0068 11.0957C22.0066 11.7046 21.5132 12.1982 20.9043 12.1982ZM19.0625 16C19.0625 17.6914 17.6914 19.0625 16 19.0625C14.3086 19.0625 12.9375 17.6914 12.9375 16C12.9375 14.3086 14.3086 12.9375 16 12.9375C17.6914 12.9375 19.0625 14.3086 19.0625 16Z" fill="#7D8BF7"/>
</svg>
