<svg width="56" height="56" viewBox="0 0 56 56" fill="none" xmlns="http://www.w3.org/2000/svg">
<path d="M56 28C56 43.4637 43.4637 56 28 56C12.5358 56 0 43.4637 0 28C0 12.5358 12.5358 0 28 0C43.4637 0 56 12.5358 56 28Z" fill="#85C47B"/>
<path d="M51.484 3.7337V43.2527C50.7902 44.3178 50.0267 45.3338 49.1982 46.2925C44.0636 52.2377 36.4714 56 27.9996 56C19.5277 56 11.9355 52.2377 6.80048 46.2925C5.97205 45.3338 5.20856 44.3178 4.51514 43.2527V3.7337C4.51514 1.67224 6.18695 0 8.24884 0H47.7503C49.8122 0 51.484 1.67224 51.484 3.7337Z" fill="#EDEDED"/>
<path d="M49.1987 12.6973V46.2925C48.4835 47.121 47.72 47.9075 46.9129 48.6467C41.9304 53.2135 35.2914 56 28 56C25.9817 56 24.0125 55.7864 22.1155 55.3792C21.3004 55.2066 20.5005 54.9964 19.7144 54.7529C15.7141 53.5164 12.0983 51.4067 9.08667 48.6467C8.28003 47.9075 7.51654 47.121 6.80133 46.2925V3.7337C6.80133 2.93475 7.45032 2.28577 8.24927 2.28577H38.7875L49.1987 12.6973Z" fill="#B9E390"/>
<path d="M46.3438 9.84247H6.80133V3.7337C6.80133 2.93475 7.45032 2.28577 8.24927 2.28577H38.7875L46.3438 9.84247Z" fill="#235967"/>
<path d="M12.6854 6.0639C12.6854 7.15808 11.7984 8.04504 10.7042 8.04504C9.61047 8.04504 8.72351 7.15808 8.72351 6.0639C8.72351 4.97015 9.61047 4.08319 10.7042 4.08319C11.7984 4.08319 12.6854 4.97015 12.6854 6.0639Z" fill="white"/>
<path d="M17.7303 6.0639C17.7303 7.15808 16.8433 8.04504 15.7496 8.04504C14.6554 8.04504 13.7684 7.15808 13.7684 6.0639C13.7684 4.97015 14.6554 4.08319 15.7496 4.08319C16.8433 4.08319 17.7303 4.97015 17.7303 6.0639Z" fill="white"/>
<path d="M22.7752 6.0639C22.7752 7.15808 21.8887 8.04504 20.7945 8.04504C19.7003 8.04504 18.8134 7.15808 18.8134 6.0639C18.8134 4.97015 19.7003 4.08319 20.7945 4.08319C21.8887 4.08319 22.7752 4.97015 22.7752 6.0639Z" fill="white"/>
<path d="M49.1987 12.6973H40.2355C39.4365 12.6973 38.7875 12.0479 38.7875 11.249V2.28577L49.1987 12.6973Z" fill="#D6D6D6"/>
<path d="M36.885 27.1503L23.4866 19.4146C21.7374 18.4046 19.5508 19.6671 19.5508 21.6867V37.1581C19.5508 39.1777 21.7374 40.4402 23.4866 39.4302L36.885 31.6945C38.6342 30.6849 38.6342 28.1603 36.885 27.1503Z" fill="white"/>
</svg>
