<svg width="43" height="57" viewBox="0 0 43 57" fill="none" xmlns="http://www.w3.org/2000/svg">
<path fill-rule="evenodd" clip-rule="evenodd" d="M40.8417 13.7109C39.7583 11.0297 38.2214 8.63282 36.2781 6.5948C34.3417 4.53646 32.0667 2.91146 29.5276 1.76719C26.9005 0.59584 24.1177 3.8147e-06 21.2604 3.8147e-06C18.3964 3.8147e-06 15.6135 0.59584 12.9865 1.77396C10.4474 2.91146 8.17917 4.53646 6.23594 6.5948C4.27917 8.6599 2.74219 11.0568 1.6724 13.7109C0.561979 16.4599 0 19.3849 0 22.4047V51.9052C0 54.3156 1.86198 56.2724 4.15729 56.2724H38.35C40.6453 56.2724 42.5073 54.3156 42.5005 51.9052V25.8714L42.5141 24.6729V22.4047C42.5141 19.3984 41.9521 16.4734 40.8417 13.7109ZM14.6521 5.72136H14.6656L14.7469 5.6875C16.7984 4.75313 18.9854 4.27917 21.2536 4.27917C23.5083 4.27917 25.7021 4.75313 27.7672 5.67396C29.7714 6.57448 31.5859 7.87448 33.1635 9.52657C34.7479 11.199 35.987 13.1422 36.8604 15.3021C37.7677 17.55 38.2281 19.9333 38.2281 22.4047V24.2599H4.27917V22.3979C4.27917 19.9536 4.73958 17.5635 5.64687 15.3021C6.52708 13.1219 7.77292 11.1854 9.34375 9.53334C10.901 7.89479 12.6818 6.60834 14.6521 5.72136ZM38.2417 28.5391V51.9052C38.2417 51.9458 38.2349 51.9729 38.2281 51.9932H4.29271C4.28594 51.9729 4.27917 51.9458 4.27917 51.9052V28.5391H38.2417ZM19.2766 38.174V43.787C19.2766 44.8839 20.1703 45.7776 21.2672 45.7776C22.3641 45.7776 23.2578 44.8839 23.2578 43.787V38.1604C24.3141 37.4833 24.9438 36.3391 24.9438 35.0729C24.9438 33.0417 23.2917 31.3896 21.2604 31.3896C19.2292 31.3896 17.5771 33.0417 17.5771 35.0729C17.5771 36.3255 18.2271 37.5036 19.2766 38.174Z" fill="black" fill-opacity="0.32"/>
</svg>
