<?xml version="1.0" encoding="UTF-8"?>
<svg width="16px" height="16px" viewBox="0 0 16 16" version="1.1" xmlns="http://www.w3.org/2000/svg" xmlns:xlink="http://www.w3.org/1999/xlink">
    <!-- Generator: Sketch 48.2 (47327) - http://www.bohemiancoding.com/sketch -->
    <title>loginIcon</title>
    <desc>Created with Sketch.</desc>
    <defs></defs>
    <g id="Wunder" stroke="none" stroke-width="1" fill="none" fill-rule="evenodd">
        <g id="Header-Default" transform="translate(-1242.000000, -24.000000)" stroke="#FFFFFF">
            <g id="login" transform="translate(1242.000000, 21.000000)">
                <g id="loginIcon" transform="translate(0.000000, 3.000000)">
                    <g id="sing-in-1" transform="translate(3.000000, 3.000000)">
                        <polyline id="Rectangle-3" stroke-linecap="round" stroke-linejoin="round" transform="translate(5.595238, 4.761905) scale(1, -1) rotate(90.000000) translate(-5.595238, -4.761905) " points="2.97619048 6.07142857 5.5952381 3.45238095 8.21428571 6.07142857"></polyline>
                        <path d="M0.474105788,4.73809524 C0.487967783,4.73809524 0.5,4.75014822 0.5,4.76190476 C0.5,4.77557933 0.489880054,4.78571429 0.474105788,4.78571429 L6.19256088,4.78571429 C6.17869888,4.78571429 6.16666667,4.7736613 6.16666667,4.76190476 C6.16666667,4.7482302 6.17678661,4.73809524 6.19256088,4.73809524 L0.474105788,4.73809524 Z" id="Rectangle-2"></path>
                        <path d="M12.1428571,2.14285714 L12.1428571,6.66457429 C12.1428571,7.06021898 11.8232597,7.38095238 11.4270235,7.38095238 L3.33488124,7.38095238 C2.93953725,7.38095238 2.61904762,7.06057376 2.61904762,6.66457429 L2.61904762,2.14285714" id="Rectangle" stroke-linecap="round" stroke-linejoin="round" transform="translate(7.380952, 4.761905) rotate(-90.000000) translate(-7.380952, -4.761905) "></path>
                    </g>
                </g>
            </g>
        </g>
    </g>
</svg>