<?xml version="1.0" encoding="UTF-8"?>
<svg width="16px" height="16px" viewBox="0 0 16 16" version="1.1" xmlns="http://www.w3.org/2000/svg" xmlns:xlink="http://www.w3.org/1999/xlink">
    <!-- Generator: Sketch 48.2 (47327) - http://www.bohemiancoding.com/sketch -->
    <title>logoutIcon</title>
    <desc>Created with Sketch.</desc>
    <defs></defs>
    <g id="Profile" stroke="none" stroke-width="1" fill="none" fill-rule="evenodd" transform="translate(-1241.000000, -24.000000)">
        <g id="Header-Logged">
            <g id="logout" transform="translate(1241.000000, 21.000000)">
                <g id="logoutIcon" transform="translate(0.000000, 3.000000)">
                    <rect id="Mask" x="0" y="0" width="16" height="16"></rect>
                    <g id="sing-in-1" transform="translate(3.000000, 3.000000)" stroke="#FFFFFF">
                        <polyline id="Rectangle-3" stroke-linecap="round" stroke-linejoin="round" transform="translate(8.595238, 4.761905) scale(1, -1) rotate(90.000000) translate(-8.595238, -4.761905) " points="5.97619048 6.07142857 8.5952381 3.45238095 11.2142857 6.07142857"></polyline>
                        <path d="M3.47410579,4.73809524 C3.48796778,4.73809524 3.5,4.75014822 3.5,4.76190476 C3.5,4.77557933 3.48988005,4.78571429 3.47410579,4.78571429 L9.19256088,4.78571429 C9.17869888,4.78571429 9.16666667,4.7736613 9.16666667,4.76190476 C9.16666667,4.7482302 9.17678661,4.73809524 9.19256088,4.73809524 L3.47410579,4.73809524 Z" id="Rectangle-2"></path>
                        <path d="M8.14285714,2.14285714 L8.14285714,6.66457429 C8.14285714,7.06021898 7.82325967,7.38095238 7.42702352,7.38095238 L-0.665118762,7.38095238 C-1.06046275,7.38095238 -1.38095238,7.06057376 -1.38095238,6.66457429 L-1.38095238,2.14285714" id="Rectangle" stroke-linecap="round" stroke-linejoin="round" transform="translate(3.380952, 4.761905) scale(-1, 1) rotate(-90.000000) translate(-3.380952, -4.761905) "></path>
                    </g>
                </g>
            </g>
        </g>
    </g>
</svg>