<?xml version="1.0" encoding="UTF-8"?>
<svg width="120px" height="32px" viewBox="0 0 120 32" version="1.1" xmlns="http://www.w3.org/2000/svg" xmlns:xlink="http://www.w3.org/1999/xlink">
    <!-- Generator: Sketch 48.2 (47327) - http://www.bohemiancoding.com/sketch -->
    <title>logotype</title>
    <desc>Created with Sketch.</desc>
    <defs></defs>
    <g id="Profile" stroke="none" stroke-width="1" fill="none" fill-rule="evenodd" transform="translate(-136.000000, -16.000000)">
        <g id="Header-Logged">
            <g id="logotype" transform="translate(136.000000, 16.000000)">
                <g id="Svg" transform="translate(4.000000, 6.000000)">
                    <path d="M30,6.14555256 L32.8547341,6.14555256 L35.2755485,14.4018246 L37.9475796,6.0999378 L40.3227183,6.0999378 L42.9947494,14.4018246 L45.4612396,6.14555256 L48.2474601,6.14555256 L44.2965082,18.2790794 L41.8071801,18.2790794 L39.1123111,10.0456148 L36.3946043,18.2790794 L33.9281141,18.2790794 L30,6.14555256 Z M54.2766584,18.4387311 C52.9063792,18.4387311 51.848235,18.0205999 51.1021941,17.1843251 C50.3561532,16.3480503 49.9831384,15.2228974 49.9831384,13.8088327 L49.9831384,6.14555256 L52.746521,6.14555256 L52.746521,12.987767 C52.746521,13.9304768 52.9710911,14.6527033 53.4202382,15.1544682 C53.8693853,15.6562331 54.505033,15.9071118 55.3272005,15.9071118 C56.1341427,15.9071118 56.7888219,15.6486307 57.2912576,15.1316608 C57.7936933,14.6146909 58.0449074,13.884862 58.0449074,12.9421522 L58.0449074,6.14555256 L60.8311278,6.14555256 L60.8311278,18.1878499 L58.0449074,18.1878499 L58.0449074,16.3176446 C57.6490489,16.8954345 57.1542333,17.3933907 56.5604457,17.8115281 C55.966658,18.2296655 55.2054032,18.4387311 54.2766584,18.4387311 Z M63.6858619,6.14555256 L66.4720823,6.14555256 L66.4720823,7.99295045 C66.6700115,7.7192605 66.8869691,7.45317705 67.1229617,7.1946921 C67.3589542,6.93620715 67.6330059,6.71193681 67.9451251,6.52187435 C68.2572442,6.33181189 68.5998089,6.1797642 68.9728293,6.06572673 C69.3458498,5.95168925 69.7683462,5.89467137 70.2403313,5.89467137 C71.6106105,5.89467137 72.6687546,6.31280251 73.4147955,7.14907734 C74.1608364,7.98535217 74.5338513,9.10290267 74.5338513,10.5017624 L74.5338513,18.1878499 L71.7704687,18.1878499 L71.7704687,11.3456355 C71.7704687,10.4029257 71.5458985,9.67689798 71.0967515,9.16753058 C70.6476044,8.65816319 70.0119566,8.40348331 69.1897891,8.40348331 C68.3828469,8.40348331 67.7281678,8.66576557 67.2257321,9.19033796 C66.7232964,9.71491036 66.4720823,10.4485405 66.4720823,11.3912503 L66.4720823,18.1878499 L63.6858619,18.1878499 L63.6858619,6.14555256 Z M82.27589,18.4387311 C81.5602998,18.4387311 80.8675579,18.3018882 80.1976436,18.0281982 C79.5277294,17.7545083 78.9339506,17.3515819 78.4162896,16.819407 C77.8986286,16.2872321 77.4799384,15.6334271 77.1602066,14.8579722 C76.8404748,14.0825174 76.6806113,13.1930384 76.6806113,12.1895086 L76.6806113,12.1438938 C76.6806113,11.140364 76.8366685,10.2508851 77.1487877,9.47543023 C77.4609068,8.69997539 77.8757907,8.04617033 78.3934517,7.51399544 C78.9111128,6.98182055 79.5086978,6.57889417 80.1862247,6.30520423 C80.8637516,6.03151429 81.5602998,5.89467137 82.27589,5.89467137 C82.7783257,5.89467137 83.2312724,5.95168925 83.6347434,6.06572673 C84.0382145,6.1797642 84.4074231,6.33561308 84.7423803,6.53327804 C85.0773374,6.730943 85.3818393,6.95521334 85.6558952,7.20609579 C85.929951,7.45697824 86.1735525,7.72686289 86.3867071,8.01575783 L86.3867071,1.53846154 L89.1500896,1.53846154 L89.1500896,18.1878499 L86.3867071,18.1878499 L86.3867071,16.1808003 C85.9451727,16.8042052 85.3932629,17.3363721 84.7309613,17.777317 C84.0686597,18.2182619 83.2503108,18.4387311 82.27589,18.4387311 Z M82.9381883,16.043956 C83.3949481,16.043956 83.8364759,15.9527274 84.2627849,15.7702675 C84.689094,15.5878075 85.0621089,15.3255252 85.3818407,14.9834128 C85.7015725,14.6413004 85.9565929,14.2345728 86.1469094,13.7632179 C86.337226,13.291863 86.4323828,12.7672985 86.4323828,12.1895086 L86.4323828,12.1438938 C86.4323828,11.566104 86.337226,11.0377382 86.1469094,10.5587808 C85.9565929,10.0798234 85.7015725,9.67309587 85.3818407,9.33858594 C85.0621089,9.00407601 84.689094,8.74559494 84.2627849,8.56313498 C83.8364759,8.38067502 83.3949481,8.2894464 82.9381883,8.2894464 C82.4662033,8.2894464 82.0208692,8.38067502 81.6021728,8.56313498 C81.1834764,8.74559494 80.8142678,9.00027482 80.494536,9.32718225 C80.1748042,9.65408968 79.9235901,10.0570161 79.7408862,10.5359735 C79.5581823,11.0149309 79.4668317,11.550899 79.4668317,12.1438938 L79.4668317,12.1895086 C79.4668317,12.7672985 79.5581823,13.2956642 79.7408862,13.7746216 C79.9235901,14.253579 80.1748042,14.6603066 80.494536,14.9948165 C80.8142678,15.3293264 81.1834764,15.5878075 81.6021728,15.7702675 C82.0208692,15.9527274 82.4662033,16.043956 82.9381883,16.043956 Z M97.5772646,18.4615385 C96.7094211,18.4615385 95.8986847,18.3094908 95.1450312,18.0053908 C94.3913776,17.7012909 93.7366985,17.2755574 93.1809741,16.7281775 C92.6252498,16.1807976 92.1875283,15.5231913 91.8677965,14.755339 C91.5480647,13.9874867 91.3882011,13.1398208 91.3882011,12.212316 L91.3882011,12.1667012 C91.3882011,11.3000164 91.5328396,10.4865613 91.8221207,9.72631142 C92.1114019,8.96606158 92.5186732,8.30085294 93.0439469,7.73066556 C93.5692206,7.16047818 94.1896433,6.7119375 94.9052335,6.38503006 C95.6208237,6.05812263 96.4125287,5.89467137 97.2803722,5.89467137 C98.2395677,5.89467137 99.0807542,6.06952621 99.8039571,6.41924114 C100.52716,6.76895606 101.128551,7.2403039 101.608149,7.83329878 C102.087747,8.42629366 102.449343,9.11430944 102.692948,9.89736678 C102.936553,10.6804241 103.058354,11.5052828 103.058354,12.3719677 C103.058354,12.4936076 103.054548,12.619047 103.046935,12.7482894 C103.039322,12.8775319 103.027904,13.0105736 103.012678,13.1474186 L94.1515837,13.1474186 C94.303837,14.1357434 94.6958832,14.8921807 95.3277341,15.4167531 C95.9595851,15.9413255 96.7246462,16.2036077 97.6229403,16.2036077 C98.3080799,16.2036077 98.9018587,16.0819696 99.4042944,15.8386896 C99.9067301,15.5954097 100.401546,15.2380976 100.888756,14.7667427 L102.510245,16.2036077 C101.931683,16.8878326 101.242747,17.4352043 100.443418,17.8457392 C99.644088,18.2562741 98.6887133,18.4615385 97.5772646,18.4615385 Z M100.317809,11.3228281 C100.272133,10.8818832 100.17317,10.4675533 100.020917,10.0798258 C99.8686637,9.69209841 99.6631249,9.3575935 99.4042944,9.07630106 C99.1454639,8.79500861 98.8371557,8.57073827 98.4793605,8.40348331 C98.1215654,8.23622834 97.7142941,8.15260211 97.2575344,8.15260211 C96.4049162,8.15260211 95.7007555,8.44529391 95.1450312,9.03068629 C94.5893068,9.61607868 94.2505484,10.3801183 94.1287458,11.3228281 L100.317809,11.3228281 Z M105.25079,6.14555256 L108.03701,6.14555256 L108.03701,8.85963094 C108.417643,7.94733112 108.958134,7.21750222 109.658499,6.67012233 C110.358864,6.12274244 111.24192,5.87186376 112.307692,5.91747875 L112.307692,8.83682355 L112.147827,8.83682355 C111.538814,8.83682355 110.983098,8.93565455 110.480663,9.13331951 C109.978227,9.33098447 109.544312,9.62747746 109.178904,10.0228074 C108.813496,10.4181373 108.531832,10.9160935 108.333903,11.5166909 C108.135973,12.1172882 108.03701,12.8129064 108.03701,13.6035662 L108.03701,18.1878499 L105.25079,18.1878499 L105.25079,6.14555256 Z" id="wunder" fill="#FFFFFF"></path>
                    <path d="M2.2045048,4.42622951 C0.986990418,4.42622951 0,3.43538428 0,2.21311476 C0,0.990845225 0.986990418,3.10862447e-15 2.2045048,3.10862447e-15 C3.42201918,3.10862447e-15 4.4090096,0.990845225 4.4090096,2.21311476 C4.4090096,3.43538428 3.42201918,4.42622951 2.2045048,4.42622951 Z M7.33146425,19.7282143 C7.27027358,19.8917324 7.11473825,20 6.94102147,20 L4.05270596,20 C4.00202041,20 3.95175913,19.9907103 3.90438516,19.9725864 C3.68903616,19.8901999 3.58086678,19.6478333 3.6627821,19.4312456 L10.9095725,0.270406417 C10.9711436,0.107609692 11.1263159,3.19957352e-17 11.2994963,0 L14.1112612,0 C14.161454,-2.33456053e-16 14.2112348,0.00910985964 14.2582106,0.0268916501 C14.4738462,0.108516382 14.5828619,0.350499052 14.501704,0.56737507 L7.33146425,19.7282143 Z M16.6490633,19.7282143 C16.5878726,19.8917324 16.4323372,20 16.2586205,20 L13.370305,20 C13.3196194,20 13.2693581,19.9907103 13.2219842,19.9725864 C13.0066352,19.8901999 12.8984658,19.6478333 12.9803811,19.4312456 L20.2271714,0.270406417 C20.2887426,0.107609692 20.4439149,3.19957357e-17 20.6170953,0 L23.4288603,0 C23.479053,-9.2732951e-18 23.5288337,0.00910985964 23.5758095,0.0268916501 C23.7914452,0.108516382 23.9004609,0.350499052 23.819303,0.56737507 L16.6490633,19.7282143 Z" id="Combined-Shape" fill="#FFD263" fill-rule="nonzero"></path>
                </g>
            </g>
        </g>
    </g>
</svg>