<svg width="56" height="56" viewBox="0 0 56 56" fill="none" xmlns="http://www.w3.org/2000/svg">
<path d="M56 28C56 43.464 43.464 56 28 56C21.4423 56 15.4115 53.7463 10.64 49.9692C9.49823 49.0663 8.42855 48.0767 7.44231 47.0092C2.82286 42.0172 0 35.3371 0 28C0 12.536 12.536 0 28 0C43.464 0 56 12.536 56 28Z" fill="#73AEFF"/>
<path d="M31.5074 49.3268C35.244 49.3268 38.2731 46.2977 38.2731 42.5611C38.2731 38.8245 35.244 35.7954 31.5074 35.7954C27.7708 35.7954 24.7417 38.8245 24.7417 42.5611C24.7417 46.2977 27.7708 49.3268 31.5074 49.3268Z" fill="#FEB247"/>
<path d="M17.9428 8.23036C20.0842 8.23036 21.8201 6.49446 21.8201 4.35313C21.8201 2.21179 20.0842 0.475891 17.9428 0.475891C15.8015 0.475891 14.0656 2.21179 14.0656 4.35313C14.0656 6.49446 15.8015 8.23036 17.9428 8.23036Z" fill="#FEB247"/>
<path d="M50.832 31.4857L14.6766 44.3222L9.52456 46.1508C18.9372 39.6879 -5.52806 11.2239 17.4822 3.05592C38.1485 -4.28117 39.4137 25.2365 47.7028 30.6605C48.6422 31.2742 49.6731 31.5794 50.832 31.4857Z" fill="#FFE26B"/>
<path d="M54.5098 33.7554C54.2824 34.2309 53.8743 34.6206 53.3395 34.8102L10.64 49.9692C9.49824 49.0663 8.42856 48.0766 7.44232 47.0091C7.66632 46.7543 7.95551 46.552 8.2972 46.4309L51.9612 30.9292C53.0332 30.5486 54.2104 31.1097 54.5909 32.1806C54.7806 32.7154 54.736 33.2789 54.5098 33.7554Z" fill="#FEB247"/>
<path d="M50.832 31.4857C49.6732 31.5794 48.6423 31.2742 47.7029 30.6605L23.2015 39.3586C21.4322 39.9867 19.5111 38.9003 19.152 37.0575C17.1162 26.6102 7.44076 6.85079 17.4828 3.05701C-5.26828 11.2962 19.0663 39.648 9.67595 46.0972L14.6766 44.322C14.6766 44.3221 14.6766 44.3222 14.6767 44.3223L50.832 31.4857Z" fill="#FEB247"/>
<path d="M54.5908 32.1809C54.7808 32.716 54.7354 33.2784 54.5097 33.7549C54.2822 34.2306 53.8742 34.6205 53.3392 34.8105L18.6853 47.113C17.6138 47.4933 16.4361 46.9327 16.0557 45.8613C15.8658 45.3262 15.9111 44.7638 16.1369 44.2873C16.3644 43.8116 16.7724 43.4217 17.3074 43.2317L51.9614 30.9292C53.0328 30.5488 54.2106 31.1095 54.5908 32.1809Z" fill="#F9E15C"/>
</svg>
