<svg width="56" height="56" viewBox="0 0 56 56" fill="none" xmlns="http://www.w3.org/2000/svg">
<path d="M28 56C43.464 56 56 43.464 56 28C56 12.536 43.464 0 28 0C12.536 0 0 12.536 0 28C0 43.464 12.536 56 28 56Z" fill="#E8DBC4"/>
<path d="M51.9364 9.88104V42.5359C47.0233 50.6091 38.1409 55.9999 28.0005 55.9999C17.86 55.9999 8.97752 50.609 4.06439 42.5359V9.88104H51.9364Z" fill="#F4A14E"/>
<path d="M51.9361 15.3949H9.57722C6.53233 15.3949 4.06384 12.9264 4.06384 9.88149C4.06384 6.8366 6.53233 4.36812 9.57722 4.36812H48.94C50.5946 4.36812 51.936 5.70949 51.936 7.36412V15.3949H51.9361Z" fill="#E28D40"/>
<path d="M9.57721 12.7661C7.98657 12.7661 6.69244 11.4721 6.69244 9.88138C6.69244 8.29063 7.98657 6.99661 9.57721 6.99661H51.9361V12.7661H9.57721Z" fill="#5C5E70"/>
<path d="M51.9361 26.253H43.3192C39.1063 26.253 35.6909 29.6682 35.6909 33.8812C35.6909 38.0941 39.1062 41.5095 43.3192 41.5095H51.9361V26.253Z" fill="#E28D40"/>
<path d="M43.8138 37.1579C45.6235 37.1579 47.0905 35.6908 47.0905 33.8811C47.0905 32.0714 45.6235 30.6043 43.8138 30.6043C42.004 30.6043 40.537 32.0714 40.537 33.8811C40.537 35.6908 42.004 37.1579 43.8138 37.1579Z" fill="#FFD15C"/>
<path d="M9.96863 12.7661C9.96863 12.7661 9.96863 11.7558 9.96863 10.1652C9.96863 8.57457 9.96863 4.39568 9.96863 4.39568H37.5892V12.7661H9.96863Z" fill="#4BC999"/>
<path d="M9.96863 4.79719C9.96863 2.98233 11.4398 1.51112 13.2547 1.51112H37.5892V8.08336H13.2547C11.4398 8.08325 9.96863 6.61205 9.96863 4.79719Z" fill="#41B787"/>
<path d="M40.4845 8.08347H18.2365V12.7665H40.4845V8.08347Z" fill="#4BC999"/>
</svg>
