<?xml version="1.0" encoding="UTF-8"?>
<svg width="1804px" height="1908px" viewBox="0 0 1804 1908" version="1.1" xmlns="http://www.w3.org/2000/svg" xmlns:xlink="http://www.w3.org/1999/xlink">
    <!-- Generator: Sketch 50.2 (55047) - http://www.bohemiancoding.com/sketch -->
    <title>Artboard</title>
    <desc>Created with Sketch.</desc>
    <defs>
        <polygon id="path-1" points="0.249310991 0.946633182 487.004102 0.946633182 487.004102 625.691761 0.249310991 625.691761"></polygon>
        <polygon id="path-3" points="0.033209908 0.701288933 271.214768 0.701288933 271.214768 756.931677 0.033209908 756.931677"></polygon>
    </defs>
    <g id="Artboard" stroke="none" stroke-width="1" fill="none" fill-rule="evenodd">
        <g id="Group" transform="translate(241.000000, 3.000000)">
            <path d="M437.41367,1460.44574 L435.266828,1173.59213 C320.43211,1241.59085 308.716893,1369.59347 332.545417,1480.38302 C333.220748,1483.53401 333.94584,1486.77746 334.706477,1490.09204 C367.698177,1516.72962 440.790325,1530.73479 472.56643,1496.79233 C465.272854,1486.41471 448.055466,1471.79071 437.41367,1460.44574" id="Fill-1" fill="#A7A7A7"></path>
            <path d="M437.412863,1459.53741 L435.927101,1261.35837 C424.090763,1255.30563 412.126466,1248.86263 399.330425,1241.98679 C390.202583,1237.43127 382.503632,1231.08052 375.664859,1223.66539 C317.080321,1294.41068 313.746242,1392.25488 332.542203,1479.42698 C333.21755,1482.57043 333.942659,1485.80612 334.703312,1489.11277 C367.69577,1515.6866 440.789596,1529.65826 472.56643,1495.79703 C465.272687,1485.44423 448.054903,1470.85523 437.412863,1459.53741" id="Fill-2" fill="#BABABA"></path>
            <path d="M332.539104,1479.75142 C333.215037,1482.89938 333.940775,1486.13972 334.702088,1489.45113 C340.009937,1493.72895 346.370817,1497.67278 353.414745,1501.15473 C333.314648,1421.11259 326.363216,1331.17178 353.642428,1256.00437 C316.594213,1322.63746 316.451911,1405.09564 332.539104,1479.75142" id="Fill-3" fill="#E5E5E5"></path>
            <path d="M416.066271,1514.20411 L416.059168,1514.20411 C387.483311,1514.197 355.434027,1503.90301 335.985681,1488.526 C335.289575,1485.49752 334.628985,1482.53302 334.011013,1479.64672 C316.793047,1399.5697 306.905502,1254.52963 432.055397,1177.63749 L434.17923,1461.15592 L434.804305,1461.82418 C438.725228,1466.00434 443.399082,1470.49729 448.349957,1475.2604 C455.985813,1482.60411 463.863174,1490.18242 468.572544,1496.33891 C453.684402,1511.05477 431.927541,1514.20411 416.066271,1514.20411 Z M451.596084,1471.88357 C446.950642,1467.41905 442.55381,1463.18913 438.845981,1459.27912 L436.679529,1169.41935 L433.170587,1171.49522 C301.812564,1249.30443 311.792449,1398.58153 329.4295,1480.63489 C330.111399,1483.79844 330.835918,1487.0473 331.603055,1490.37437 L331.780633,1491.16348 L332.412811,1491.66823 C352.564366,1507.94809 386.183439,1518.88901 416.059168,1518.88901 C433.341062,1518.88901 457.29989,1515.2918 473.345841,1498.15173 L474.652816,1496.75835 L473.551832,1495.20145 C468.792741,1488.42647 460.048798,1480.01639 451.596084,1471.88357 Z" id="Fill-4" fill="#696969"></path>
            <path d="M865.55242,1447.04118 C865.55242,1447.04118 828.220755,1410.68648 811.830896,1318.59595 L749.012575,1706.47413 C749.012575,1706.47413 785.889756,1847.73121 866.653126,1836.41786 C947.423597,1825.09741 1006.9256,1562.0922 995.99666,1507.46427 C985.074822,1452.83635 925.373982,1425.51528 865.55242,1447.04118" id="Fill-5" fill="#A7A7A7"></path>
            <path d="M865.823495,1446.97094 C865.823495,1446.97094 839.658828,1459.29445 832.46567,1472.27852 C806.761649,1521.45179 830.32544,1597.99247 883.85954,1612.77357 C960.184965,1633.84783 976.505991,1569.65196 996.462574,1542.83147 C997.681513,1527.59578 997.582297,1515.30779 996.001929,1507.40228 C985.102346,1452.76689 925.523159,1425.4421 865.823495,1446.97094" id="Fill-6" fill="#BABABA"></path>
            <path d="M913.754415,1797.54481 C898.192984,1819.45573 882.410974,1831.66558 866.863773,1833.84032 C863.910872,1834.25964 860.94374,1834.46574 858.040647,1834.46574 C788.345071,1834.46574 754.062959,1714.54202 751.714869,1706.0065 L812.466358,1331.35325 C829.778184,1413.68088 862.978751,1446.7498 864.458759,1448.18542 L865.504727,1449.20883 L866.885119,1448.71134 C880.233654,1443.91411 893.802767,1441.48351 907.222456,1441.48351 C951.523085,1441.48351 986.595009,1467.98556 994.493129,1507.43658 C1003.15972,1550.70407 967.689328,1721.6206 913.754415,1797.54481 Z M907.222456,1436.79288 C893.745844,1436.79288 880.141153,1439.1453 866.74281,1443.79329 C860.765854,1437.26905 829.187604,1399.60189 814.572523,1317.56565 L812.153279,1303.99125 L747.004459,1705.75065 L746.926189,1706.24103 L747.047151,1706.7172 C748.463121,1712.12563 782.517539,1839.14926 858.040647,1839.14926 C861.157203,1839.14926 864.344913,1838.92894 867.518392,1838.4812 C884.396177,1836.12167 901.238385,1823.25798 917.582513,1800.25258 C972.100891,1723.51107 1007.88436,1550.40557 999.096808,1506.51267 C990.743301,1464.81583 953.821367,1436.79288 907.222456,1436.79288 Z" id="Fill-7" fill="#696969"></path>
            <path d="M839.770366,1464.64297 C839.92727,1464.53747 855.325271,1453.38922 866.893384,1449.16907 L865.260155,1444.82231 C853.064425,1449.26754 839.770366,1464.64297 839.770366,1464.64297" id="Fill-8" fill="#696969"></path>
            <path d="M1123.81882,1254.54625 C949.641973,1265.48214 1067.59124,1522.9694 851.245489,1713.50542 L910.593267,1843.32203 C910.593267,1843.32203 1228.18562,1327.85722 1278.95462,1252.11606 C1255.42163,1203.00759 1176.92619,1196.76155 1123.81882,1254.54625" id="Fill-9" fill="#A7A7A7"></path>
            <path d="M1123.8626,1254.5728 C967.441853,1264.39938 1046.647,1473.31737 907.577911,1653.9146 C929.555261,1680.10934 972.81362,1689.21777 1008.29855,1682.76152 C1008.95936,1682.62643 1009.59175,1682.47 1010.25256,1682.32779 C1107.95336,1524.17811 1246.84481,1300.09363 1278.95462,1252.14104 C1255.42827,1203.00102 1176.95499,1196.75097 1123.8626,1254.5728" id="Fill-10" fill="#BABABA"></path>
            <path d="M1124.09421,1254.50509 C1001.70038,1262.18042 1023.42815,1391.32617 972.255878,1533.49371 C1015.45537,1448.65328 1015.59051,1404.27696 1038.12195,1338.89821 C1055.00631,1289.89965 1111.77588,1247.8735 1162.22982,1270.40247 C1157.54288,1265.72343 1142.35834,1259.28354 1144.70536,1259.28354 C1171.85263,1223.71148 1213.55856,1211.68372 1252.87479,1223.79668 C1218.36641,1203.85928 1164.05054,1211.0944 1124.09421,1254.50509" id="Fill-11" fill="#E5E5E5"></path>
            <path d="M1225.25185,1212.19142 C1189.6427,1206.89437 1151.50071,1221.96185 1123.00628,1252.52284 C1035.43124,1258.49445 1020.81762,1327.81764 1002.3407,1415.50299 C983.308838,1505.78006 959.62395,1618.12581 851.245489,1713.4159 C851.245489,1713.4159 879.085371,1697.60996 903.85881,1665.70695 C918.066897,1647.41579 930.8805,1629.48677 941.445852,1611.11751 C980.043183,1543.99551 994.478941,1475.53859 1006.92969,1416.46867 C1025.77657,1327.05078 1039.39414,1262.44949 1124.23712,1257.13113 L1125.17626,1257.07433 L1125.81659,1256.37847 C1153.33631,1226.49913 1190.24745,1211.70858 1224.55461,1216.82811 C1248.13989,1220.33581 1267.05792,1233.195 1276.68413,1252.18911 C1224.10638,1330.8993 911.813062,1836.78178 908.654128,1841.90842 L912.645484,1844.36523 C915.825762,1839.21019 1231.12149,1328.45669 1281.33715,1253.67314 L1282.0842,1252.55835 L1281.50079,1251.35834 C1271.39078,1230.29085 1250.88617,1216.01154 1225.25185,1212.19142" id="Fill-12" fill="#696969"></path>
            <g id="Group-18" transform="translate(835.597594, 1235.140514)">
                <mask id="mask-2" fill="white">
                    <use xlink:href="#path-1"></use>
                </mask>
                <g id="Clip-14"></g>
                <path d="M288.126375,17.3618728 L287.877574,22.0357057 C342.663671,24.997694 341.213513,80.4799255 341.12821,82.8381512 L345.805679,83.0157284 C345.834113,82.3906566 347.554398,20.5724693 288.126375,17.3618728" id="Fill-13" fill="#696969" mask="url(#mask-2)"></path>
                <path d="M453.614936,79.0237922 C474.116182,-13.8633083 372.356356,-21.7903561 339.479011,57.9276166 C310.234168,24.5928179 259.101899,68.0921375 233.318952,143.811071 C209.846305,212.767863 145.442251,454.47179 28.263839,537.606349 C-26.1312843,576.197434 12.802601,633.142901 82.1613592,621.905814 C260.232169,593.053065 404.394885,329.585272 433.298514,280.410584 C462.202143,231.235895 520.79135,105.560934 453.614936,79.0237922" id="Fill-15" fill="#858585" mask="url(#mask-2)"></path>
                <path d="M453.614936,79.0237922 C474.116182,-13.8633083 372.356356,-21.7903561 339.479011,57.9276166 C310.234168,24.5928179 259.101899,68.0921375 233.318952,143.811071 C216.108995,194.370861 176.883656,337.810649 110.986794,443.518826 C130.535485,449.797957 152.657496,451.033895 172.391012,447.446835 C228.634375,435.740943 275.501475,412.322057 320.02984,379.5413 C401.259986,313.830619 469.71595,235.36279 484.572955,136.239177 C485.312251,109.993262 477.25819,88.3643548 453.614936,79.0237922" id="Fill-16" fill="#969696" mask="url(#mask-2)"></path>
                <path d="M431.279667,279.224368 C429.850836,281.646521 428.144768,284.601406 426.168573,288.010889 C309.260288,489.951722 193.396969,601.505741 81.7917112,619.590207 C76.0124071,620.527815 70.2757547,621.003722 64.7452521,621.003722 C36.1615105,621.003722 12.7741666,607.898522 6.54701967,588.393438 C1.1729066,571.54491 9.58239834,553.730362 29.6215845,539.509977 C133.59219,465.751496 195.671726,269.812774 225.499475,175.647118 C229.402105,163.330361 232.771589,152.689933 235.53684,144.563998 C254.410213,89.1456946 288.296982,48.9208992 316.105884,48.9208992 C324.302118,48.9208992 331.574231,52.4724439 337.716075,59.4760901 L340.20409,62.3102227 L341.647139,58.8226058 C357.833455,19.5638306 388.393392,5.6346722 409.633934,5.6346722 C423.374887,5.6346722 435.310252,11.0614325 443.229249,20.9134176 C450.679078,30.1758462 458.128907,47.6920647 451.325962,78.5194728 L450.892337,80.4657193 L452.754794,81.2044406 C465.45078,86.2192218 474.158834,95.3395886 478.630153,108.302727 C494.126934,153.272386 456.152712,236.897058 431.279667,279.224368 Z M456.309101,77.6102774 C462.78505,46.1435912 454.816292,27.8460328 446.883078,17.9798416 C438.054178,6.99846537 424.825045,0.946633182 409.633934,0.946633182 C380.723196,0.946633182 353.212856,21.5526956 338.725498,53.751 C332.192681,47.4292504 324.60068,44.2399632 316.105884,44.2399632 C285.865835,44.2399632 250.912775,84.8696348 231.101064,143.058143 C228.321596,151.226696 224.945003,161.888433 221.028157,174.233603 C191.349688,267.909146 129.597148,462.839229 26.9060935,535.695618 C5.08975356,551.173249 -3.95951355,570.898529 2.08280934,589.814056 C8.92840575,611.272489 34.1142293,625.691761 64.7452521,625.691761 C70.5245562,625.691761 76.5100102,625.194544 82.5381158,624.214318 C155.010447,612.472911 230.255139,561.074956 306.16804,471.448174 C366.889831,399.756692 411.268916,323.093048 430.227592,290.354909 C432.196679,286.952529 433.902746,284.01185 435.324469,281.5968 C442.290912,269.741743 502.82077,164.125907 483.05882,106.775563 C478.345808,93.0950123 469.346302,83.2927489 456.309101,77.6102774 Z" id="Fill-17" fill="#535353" mask="url(#mask-2)"></path>
            </g>
            <path d="M1271.65227,1339.45981 L1271.65227,1339.45264 C1271.65227,1339.45264 1285.55057,1334.00559 1291.47294,1314.80814 L1287.06445,1313.37999 C1281.59765,1331.11341 1271.75039,1339.37369 1271.65227,1339.45981" id="Fill-19" fill="#535353"></path>
            <path d="M1247.36487,1279.55354 C1236.22337,1275.73308 1225.75219,1290.58965 1218.23044,1312.72565 C1210.71575,1334.86165 1209.00113,1355.90609 1220.14263,1359.72655 C1231.27708,1363.53992 1246.40525,1348.69045 1253.927,1326.55444 C1261.44169,1304.41136 1258.50637,1283.374 1247.36487,1279.55354" id="Fill-20" fill="#EF9595"></path>
            <path d="M1251.38822,1326.35558 C1245.08156,1344.82239 1232.93911,1358.74561 1223.14381,1358.74561 C1222.12362,1358.74561 1221.13909,1358.58869 1220.21164,1358.27484 C1214.91091,1356.46311 1213.78371,1349.38025 1213.7623,1343.7596 C1213.7409,1335.80653 1215.80983,1325.50677 1219.74792,1313.96591 C1226.67525,1293.68024 1235.52883,1281.56875 1243.43356,1281.56875 C1244.35387,1281.56875 1245.28845,1281.7328 1246.2159,1282.04664 C1250.78181,1283.60159 1253.91374,1288.87273 1255.04094,1296.88286 C1256.24663,1305.45648 1254.94106,1315.92743 1251.38822,1326.35558 Z M1247.73549,1277.59578 C1246.32292,1277.11075 1244.87467,1276.86823 1243.43356,1276.86823 C1233.11746,1276.86823 1223.12241,1289.50042 1215.29616,1312.44662 C1211.19398,1324.47252 1209.03944,1335.30724 1209.06085,1343.77387 C1209.09652,1356.73416 1214.31877,1361.22782 1218.69205,1362.72571 C1220.11177,1363.20361 1221.60995,1363.45325 1223.14381,1363.45325 C1235.05084,1363.45325 1248.79849,1348.48865 1255.83998,1327.87486 C1259.62825,1316.76197 1260.99802,1305.52068 1259.69959,1296.22664 C1258.31555,1286.36912 1254.07069,1279.75702 1247.73549,1277.59578 Z" id="Fill-21" fill="#BF5858"></path>
            <path d="M1277.60442,1371.57667 C1266.62224,1367.16022 1255.42709,1381.01725 1246.84438,1402.1667 C1238.26878,1423.31615 1235.55695,1443.7519 1246.53203,1448.16128 C1257.5142,1452.57772 1273.3734,1439.01041 1281.94901,1417.86096 C1290.53172,1396.71151 1288.57949,1375.98604 1277.60442,1371.57667" id="Fill-22" fill="#EF9595"></path>
            <path d="M1280.47454,1417.55311 C1273.427,1434.86734 1261.18163,1447.43687 1251.35235,1447.43687 C1250.09053,1447.43687 1248.88607,1447.20924 1247.78198,1446.7682 C1239.43677,1443.42486 1240.06768,1426.44497 1249.40227,1403.51108 C1257.19543,1384.34735 1266.20022,1373.35701 1274.08659,1373.35701 C1275.19068,1373.35701 1276.30194,1373.57752 1277.38452,1374.01145 C1281.88692,1375.81827 1284.77619,1381.15339 1285.52181,1389.03513 C1286.31762,1397.47173 1284.52526,1407.60134 1280.47454,1417.55311 Z M1279.15537,1369.66511 C1277.49923,1369.00355 1275.80008,1368.66922 1274.08659,1368.66922 C1264.02789,1368.66922 1253.70392,1380.4207 1245.01458,1401.75405 C1234.28913,1428.11664 1234.66194,1446.56902 1246.01113,1451.11454 C1247.68161,1451.78321 1249.48113,1452.12466 1251.35235,1452.12466 C1263.21774,1452.12466 1276.9902,1438.63037 1284.85506,1419.31014 C1289.18539,1408.67547 1291.09246,1397.7705 1290.22496,1388.60121 C1289.31444,1378.88419 1285.37843,1372.15483 1279.15537,1369.66511 Z" id="Fill-23" fill="#BF5858"></path>
            <path d="M1149.28861,1325.67612 C1138.307,1321.25995 1127.11242,1335.11614 1118.53015,1356.26432 C1109.95498,1377.4125 1107.2433,1397.84703 1118.22491,1402.26321 C1129.20653,1406.67232 1145.05781,1393.10582 1153.64008,1371.95764 C1162.21525,1350.80946 1160.27022,1330.08523 1149.28861,1325.67612" id="Fill-24" fill="#EF9595"></path>
            <path d="M1152.13446,1370.60942 C1145.09076,1387.92365 1132.85207,1400.49318 1123.02816,1400.49318 C1121.76703,1400.49318 1120.56322,1400.26555 1119.45973,1399.82452 C1111.11908,1396.48118 1111.75681,1379.50128 1121.07914,1356.5674 C1128.87521,1337.40366 1137.86793,1326.41332 1145.74999,1326.41332 C1146.85348,1326.41332 1147.96413,1326.63384 1149.04613,1327.07488 C1158.74106,1330.95884 1160.15267,1350.89795 1152.13446,1370.60942 Z M1150.81601,1322.72142 C1149.16794,1322.05987 1147.46255,1321.72553 1145.74999,1321.72553 C1135.69678,1321.72553 1125.37844,1333.47702 1116.70101,1354.81037 C1105.98141,1381.17295 1106.34685,1399.62534 1117.68985,1404.17086 C1119.35942,1404.83953 1121.15796,1405.18097 1123.02816,1405.18097 C1134.88708,1405.18097 1148.65919,1391.68669 1156.51975,1372.36645 C1165.79909,1349.53216 1163.29833,1327.7222 1150.81601,1322.72142 Z" id="Fill-25" fill="#BF5858"></path>
            <path d="M1152.99522,1535.64586 C1124.87588,1513.85542 1088.85507,1551.77534 1058.4397,1597.41864 C1025.65743,1646.61071 1000.13885,1705.14764 1019.83231,1718.51776 C1057.79483,1744.31212 1211.98346,1581.36739 1152.99522,1535.64586" id="Fill-26" fill="#DB7D7D"></path>
            <path d="M1154.02638,1535.65525 C1125.8703,1513.83247 1089.80241,1551.80866 1059.3473,1597.51969 C1040.40864,1625.93773 1023.91804,1657.45398 1017.11318,1681.62712 C1065.81156,1670.18868 1107.5135,1649.71914 1147.02993,1621.80678 C1168.09732,1587.34902 1176.44906,1553.04082 1154.02638,1535.65525" id="Fill-27" fill="#EF9595"></path>
            <path d="M1160.27889,1587.5951 C1140.0923,1646.62979 1063.22691,1717.63029 1030.20337,1717.63029 C1026.72758,1717.63029 1023.80621,1716.84298 1021.50323,1715.28962 C1003.69071,1703.25996 1027.8222,1647.05536 1060.86707,1597.75221 C1090.60674,1553.37158 1115.88973,1530.86562 1136.01234,1530.86562 C1141.82664,1530.86562 1147.31398,1532.82328 1152.32509,1536.68894 C1165.63828,1546.94536 1168.31798,1564.07485 1160.27889,1587.5951 Z M1155.1967,1532.98642 C1149.33975,1528.47529 1142.88573,1526.19136 1136.01234,1526.19136 C1114.22647,1526.19136 1087.63562,1549.39243 1056.97191,1595.1491 C1031.31221,1633.43688 994.414829,1702.63578 1018.8804,1719.16237 C1021.97236,1721.25479 1025.77511,1722.31165 1030.20337,1722.31165 C1067.61963,1722.31165 1145.55832,1645.12608 1164.70714,1589.1059 C1173.35041,1563.84787 1170.05943,1544.44154 1155.1967,1532.98642 Z" id="Fill-28" fill="#BF5858"></path>
            <path d="M190.594377,1286.21552 C139.625506,1230.82602 64.3031032,1236.81465 41.7277201,1283.88543 C90.4418975,1356.4949 395.195345,1850.62438 395.195345,1850.62438 L450.659377,1727.86102 C243.056893,1545.21845 357.719071,1296.69385 190.594377,1286.21552" id="Fill-29" fill="#A7A7A7"></path>
            <path d="M190.664497,1286.20192 C139.671619,1230.83144 64.3137368,1236.81802 41.7277201,1283.87262 C70.1843934,1326.24734 185.939508,1512.2359 277.365199,1659.72007 C301.189391,1651.75217 322.380682,1634.53101 335.580764,1611.77777 C340.761174,1602.73755 344.141249,1593.34225 346.340077,1583.7339 C282.808899,1436.13611 316.232503,1294.07039 190.664497,1286.20192" id="Fill-30" fill="#BABABA"></path>
            <path d="M395.205755,1845.87394 C367.040618,1800.19041 93.1216912,1356.06355 45.0355654,1283.96157 C56.072774,1262.1747 79.3411713,1249.21055 107.570271,1249.21055 C136.851211,1249.21055 166.665178,1263.36811 189.357906,1288.05327 L189.997538,1288.74943 L190.935665,1288.80626 C272.133417,1293.89957 285.167699,1355.84334 303.212434,1441.5772 C321.505914,1528.48317 344.255499,1636.55089 448.096229,1728.70645 L395.205755,1845.87394 Z M307.796464,1440.61821 C290.08576,1356.47556 276.084922,1289.94994 192.165181,1284.19599 C168.669359,1258.97096 137.88173,1244.52925 107.570271,1244.52925 C76.9816392,1244.52925 51.8085595,1258.95675 40.22411,1283.13045 L39.6413341,1284.33096 L40.3875716,1285.44623 C88.4808044,1357.18592 390.486691,1847.14549 393.528497,1852.08252 L395.845387,1855.84035 L453.788956,1727.48463 L452.495477,1726.34094 C348.704496,1634.95968 326.025982,1527.19741 307.796464,1440.61821 Z" id="Fill-31" fill="#696969"></path>
            <g id="Group-37" transform="translate(0.000000, 1268.522690)">
                <path d="M135.468095,78.8693305 L140.155351,78.6916809 C140.069999,76.4319776 138.683026,23.3005257 191.14615,20.4652376 L190.897207,15.7894993 C133.789502,18.8734969 135.439644,78.2724277 135.468095,78.8693305" id="Fill-32" fill="#696969"></path>
                <path d="M440.225076,514.935223 C327.802063,435.191856 266.014215,203.330663 243.488359,137.181046 C218.75046,64.5507702 169.694309,22.8244247 141.634788,54.8013584 C110.090054,-21.6732551 12.4614146,-14.0698508 32.1350862,75.0320985 C-32.3200159,100.492844 23.8914906,221.045884 51.6238282,268.215414 C79.3490531,315.39205 217.669332,568.130628 388.508783,595.801335 C455.062125,606.581115 492.410806,551.957406 440.225076,514.935223" id="Fill-34" fill="#858585"></path>
                <path d="M141.634788,54.8013584 C110.090054,-21.6732551 12.4614146,-14.0698508 32.1350862,75.0320985 C-12.3689497,92.612306 0.654366519,155.5287 22.1133207,208.319064 C60.1874944,285.113447 128.390979,343.5886 206.907848,386.075286 C248.147164,408.736273 296.627188,393.351815 325.262836,359.044118 C283.141548,270.759357 256.625478,175.773652 243.488359,137.181046 C218.75046,64.5507702 169.694309,22.8244247 141.634788,54.8013584" id="Fill-35" fill="#969696"></path>
                <path d="M460.965649,563.625434 C455.005224,582.299963 432.600283,594.842027 405.22358,594.842027 C399.924633,594.842027 394.426532,594.387244 388.885755,593.49189 C281.839927,576.14618 170.697197,469.151359 58.5444654,275.463519 C56.6524927,272.18766 55.0094637,269.359478 53.6438292,267.028714 C29.7807893,226.446433 -6.62901735,146.255389 8.22225757,103.150482 C12.5040907,90.7434319 20.8330384,82.017282 32.9957205,77.2136359 L34.8521298,76.4817195 L34.4253691,74.5275735 C27.9030419,44.9950987 35.0370595,28.2249735 42.1710771,19.3567039 C49.7531935,9.91995544 61.1690442,4.7254802 74.3275014,4.7254802 C94.6768776,4.7254802 123.952667,18.0776265 139.465421,55.6967125 L140.909295,59.1857513 L143.398733,56.3433572 C149.273806,49.6495191 156.222894,46.2528581 164.061067,46.2528581 C190.705164,46.2528581 223.174546,84.8099342 241.269203,137.941386 C243.922233,145.729546 247.151389,155.940847 250.899771,167.7581 C279.521194,258.096491 339.089885,446.071119 438.866554,516.846733 C458.056563,530.4618 466.108117,547.509059 460.965649,563.625434 Z M441.576485,513.023713 C343.087211,443.157665 283.83859,256.192087 255.373647,166.344009 C251.618152,154.498332 248.37477,144.265713 245.707515,136.427811 C226.68821,80.574767 193.10925,41.5700138 164.061067,41.5700138 C155.924161,41.5700138 148.64789,44.6113755 142.388732,50.6230391 C128.454993,19.775957 102.059839,0.0426359116 74.3275014,0.0426359116 C59.7251702,0.0426359116 47.0076992,5.86243785 38.5151598,16.414826 C30.89748,25.8871043 23.2442368,43.4459939 29.432268,73.6180074 C16.93529,79.0825101 8.3147224,88.4979406 3.7910582,101.629801 C-15.1855709,156.679869 42.9107958,258.032537 49.5967145,269.402114 C50.962349,271.725771 52.5982653,274.546847 54.4902381,277.808494 C72.670247,309.216949 115.260972,382.763897 173.52093,451.535622 C246.376107,537.532256 318.576917,586.847794 388.131811,598.117886 C393.921532,599.055876 399.668577,599.531977 405.22358,599.531977 C434.655848,599.531977 458.853184,585.6682 465.439525,565.046631 C471.243471,546.862414 462.544664,527.89654 441.576485,513.023713 Z" id="Fill-36" fill="#535353"></path>
            </g>
            <path d="M34.8143239,1342.58939 L30.252597,1344.02232 C36.1415036,1362.52077 50.0732641,1367.62603 50.0732641,1367.62603 C49.9789836,1367.54682 40.2680896,1359.71972 34.8143239,1342.58939" id="Fill-38" fill="#535353"></path>
            <path d="M71.7849268,1310.82478 C61.1508572,1314.49949 58.3483514,1334.72817 65.5266996,1356.0159 C72.6980239,1377.30363 87.1390061,1391.58311 97.7730757,1387.91551 C108.407145,1384.2408 106.770594,1364.01213 99.5922461,1342.7244 C92.4138979,1321.43666 82.4189963,1307.15718 71.7849268,1310.82478" id="Fill-39" fill="#EF9595"></path>
            <path d="M97.7094366,1385.47628 C96.8355575,1385.77295 95.9048408,1385.92129 94.9457053,1385.92129 C85.6243287,1385.92129 74.0649693,1372.72629 68.068596,1355.22243 C61.3546472,1335.65596 63.5855254,1316.44269 72.9353208,1313.27108 C73.8163045,1312.97441 74.6972883,1312.82607 75.5640626,1312.82607 C83.0737387,1312.82607 91.499922,1324.29753 98.0930908,1343.51787 C105.901165,1366.27713 105.751966,1382.74262 97.7094366,1385.47628 Z M75.5640626,1308.16402 C74.1786446,1308.16402 72.7861219,1308.40419 71.4291227,1308.86333 C59.2587584,1312.98853 55.841394,1334.01718 63.6352583,1356.727 C70.3634166,1376.34291 83.52844,1390.57627 94.9457053,1390.57627 C96.4234845,1390.57627 97.8586354,1390.34317 99.2227393,1389.88403 C110.284769,1386.12614 111.520988,1368.23377 102.526428,1342.0133 C95.0380665,1320.18645 85.4609205,1308.16402 75.5640626,1308.16402 Z" id="Fill-40" fill="#BF5858"></path>
            <path d="M43.7016525,1398.66621 C33.2001608,1402.90368 31.3377925,1422.79645 39.5378784,1443.09952 C47.7450455,1463.40259 62.91308,1476.42627 73.4145717,1472.1888 C83.9231446,1467.95133 81.3243264,1448.33446 73.1171593,1428.03139 C64.9170734,1407.72832 54.2031442,1394.42874 43.7016525,1398.66621" id="Fill-41" fill="#EF9595"></path>
            <path d="M72.1945229,1470.78963 C71.1428393,1471.20993 70.0124584,1471.42364 68.8105343,1471.42364 C59.4455428,1471.42364 47.7625548,1459.38473 41.0375035,1442.79384 C33.382392,1423.90914 34.7059393,1404.81785 43.9421533,1401.10645 C44.9652196,1400.69328 46.0169032,1400.4867 47.0542781,1400.4867 C54.5663034,1400.4867 63.1443209,1411.02252 70.5919575,1429.38007 C74.8130003,1439.80192 77.324163,1449.57551 77.6604156,1456.90571 C78.0038225,1464.52086 76.1651648,1469.19395 72.1945229,1470.78963 Z M47.0542781,1395.79224 C45.4087869,1395.79224 43.7632956,1396.1128 42.1750388,1396.75392 C30.1701069,1401.58373 27.7519502,1422.57702 36.6662202,1444.55337 C44.1997085,1463.13887 57.4208731,1476.1181 68.8105343,1476.1181 L68.8176886,1476.1181 C70.6205747,1476.1181 72.3447634,1475.79041 73.9616374,1475.14216 C78.1039828,1473.48236 82.9259876,1468.93037 82.3679515,1456.69913 C82.010236,1448.73493 79.448993,1438.68351 74.9632408,1427.62054 C66.6427784,1407.09741 56.726905,1395.79224 47.0542781,1395.79224 Z" id="Fill-42" fill="#BF5858"></path>
            <path d="M165.754131,1353.80891 C155.252323,1358.04638 153.389899,1377.93915 161.597313,1398.24222 C169.797646,1418.54529 184.966137,1431.56897 195.467945,1427.3315 C205.976834,1423.09403 203.377938,1403.47716 195.170523,1383.17409 C186.970191,1362.87102 176.255939,1349.57144 165.754131,1353.80891" id="Fill-43" fill="#EF9595"></path>
            <path d="M195.281174,1425.92569 C194.236231,1426.35306 193.098245,1426.56675 191.903002,1426.56675 C182.527144,1426.55963 170.839529,1414.52179 164.111813,1397.93237 C160.239799,1388.38757 158.529241,1378.67895 159.287899,1370.60149 C159.996456,1363.06537 162.737642,1357.97244 167.017614,1356.2558 C168.041085,1355.84267 169.093185,1355.6361 170.138128,1355.6361 C177.645972,1355.6361 186.227388,1366.16387 193.677974,1384.52692 C197.900689,1394.94072 200.412846,1404.72057 200.749232,1412.05012 C201.092775,1419.65746 199.253389,1424.33014 195.281174,1425.92569 Z M170.138128,1350.93494 C168.484828,1350.93494 166.838685,1351.26259 165.249799,1351.89654 C159.252113,1354.30411 155.465984,1360.79314 154.585655,1370.15986 C153.762584,1378.97811 155.587655,1389.46314 159.738799,1399.69174 C167.275271,1418.2756 180.501673,1431.2608 191.903002,1431.2608 C193.706603,1431.2608 195.438631,1430.93314 197.048989,1430.28495 C201.192975,1428.61817 206.01689,1424.06659 205.46579,1411.83643 C205.100775,1403.87293 202.538518,1393.82241 198.050989,1382.76754 C189.727231,1362.23911 179.80743,1350.93494 170.138128,1350.93494 Z" id="Fill-44" fill="#BF5858"></path>
            <path d="M161.926616,1555.19213 C105.351158,1598.92216 253.244127,1754.78663 289.659128,1730.11223 C308.543606,1717.32098 284.06609,1661.3318 252.627404,1614.28158 C223.450034,1570.61541 188.899379,1534.34872 161.926616,1555.19213" id="Fill-45" fill="#DB7D7D"></path>
            <path d="M161.989354,1555.19678 C142.4498,1570.23431 147.179754,1598.53441 163.292941,1628.19768 C177.397321,1637.46302 192.000342,1646.15326 206.988027,1654.24712 C230.502452,1667.14049 256.367607,1667.70848 279.575724,1659.48682 C272.188733,1644.61969 263.006639,1629.03547 253.133572,1614.33163 C223.813556,1570.6319 189.093985,1534.33735 161.989354,1555.19678" id="Fill-46" fill="#EF9595"></path>
            <path d="M289.034109,1728.95078 C286.843698,1730.43059 284.063013,1731.18472 280.756061,1731.18472 L280.74895,1731.18472 C249.080439,1731.17761 175.388745,1662.90719 156.044853,1606.16221 C148.349967,1583.59512 150.903076,1567.1607 163.640176,1557.32851 C168.497484,1553.57207 173.59659,1551.74365 179.236188,1551.74365 C198.501851,1551.74365 222.731498,1573.37163 251.249515,1616.02997 C282.149959,1662.24554 305.888897,1717.53206 289.034109,1728.95078 Z M179.236188,1547.05522 C172.615172,1547.05522 166.406637,1549.26071 160.77415,1553.61476 C146.479583,1564.65641 143.314866,1583.34611 151.607137,1607.67759 C170.389203,1662.77913 244.016891,1735.85893 280.74895,1735.87315 L280.756061,1735.87315 C285.015985,1735.87315 288.685635,1734.84867 291.665447,1732.83528 C315.198145,1716.89176 279.781755,1650.2719 255.14674,1613.41896 C225.704199,1569.38753 200.165995,1547.05522 179.236188,1547.05522 Z" id="Fill-47" fill="#BF5858"></path>
            <path d="M643.558422,1160.51604 C597.820109,1121.89634 509.352864,1143.27599 472.73518,1165.20238 C375.147307,1223.64673 351.556042,1284.00111 351.556042,1284.00111 C370.90714,1281.65794 378.526635,1281.0757 378.526635,1281.0757 C349.208298,1312.09076 354.487164,1369.44162 354.487164,1369.44162 C365.037781,1357.15063 380.283885,1347.37322 380.283885,1347.37322 C362.106659,1397.53126 388.493873,1454.88213 388.493873,1454.88213 C394.946611,1444.34496 402.566106,1435.70364 402.566106,1435.70364 C416.054959,1450.00407 421.262681,1471.61804 421.262681,1471.61804 C421.262681,1471.61804 453.583284,1843.18804 591.957865,1834.83783 C730.33956,1826.48762 674.05063,1509.30758 674.05063,1509.30758 C674.05063,1509.30758 689.296734,1199.14285 643.558422,1160.51604" id="Fill-48" fill="#D4D4D4"></path>
            <path d="M672.983736,1275.44114 C623.313649,1249.4885 577.209692,1240.95126 530.267481,1270.67535 C504.558665,1286.95434 474.594645,1281.09476 451.492939,1263.92794 C425.315269,1244.46701 389.739211,1237.1301 385.860511,1234.09732 C359.647322,1262.9549 351.556042,1283.63746 351.556042,1283.63746 C370.878501,1281.29363 378.48672,1280.71122 378.48672,1280.71122 C349.211773,1311.73507 354.482826,1369.1022 354.482826,1369.1022 C365.017829,1356.80772 380.241369,1347.02753 380.241369,1347.02753 C362.091044,1397.1998 388.439207,1454.56693 388.439207,1454.56693 C394.882395,1444.02678 402.490613,1435.383 402.490613,1435.383 C415.959504,1449.68749 421.159519,1471.30759 421.159519,1471.30759 C421.159519,1471.30759 421.720723,1477.75669 423.006519,1488.92896 C436.340437,1518.64595 452.672178,1537.87249 471.57551,1568.11506 C513.708418,1712.86461 611.507058,1701.78466 615.414173,1625.29752 C644.248682,1608.21594 658.250361,1616.12106 683.291416,1595.68708 C680.179932,1546.3174 673.573356,1509.00781 673.573356,1509.00781 C673.573356,1509.00781 682.318189,1379.05994 672.983736,1275.44114" id="Fill-49" fill="#ECECEC"></path>
            <path d="M647.207966,1804.22478 C633.046356,1822.16737 614.593565,1831.94519 592.369089,1833.28822 C590.881764,1833.3806 589.430021,1833.42323 587.964045,1833.42323 C587.956929,1833.42323 587.949812,1833.42323 587.949812,1833.42323 C457.079457,1833.3806 424.422358,1475.53793 424.109237,1471.9281 L424.052306,1471.57991 C423.831698,1470.67034 418.537106,1449.17477 404.774014,1434.5791 L403.00915,1432.71023 L401.308333,1434.64305 C401.030794,1434.95571 395.223823,1441.56427 389.431084,1450.32594 C383.972815,1436.46218 368.074807,1389.74751 382.983637,1348.5897 L385.339161,1342.07352 L379.51084,1345.81837 C378.948646,1346.18078 367.128327,1353.81259 357.030174,1364.15889 C356.610307,1349.22924 357.684882,1307.4319 380.727743,1283.04419 L384.890829,1278.63138 L378.8419,1279.10038 C378.770736,1279.10748 372.081333,1279.62622 355.920018,1281.53773 C362.801564,1267.65265 392.284755,1216.71703 474.457674,1167.48684 C495.137895,1155.09402 535.231618,1141.76321 574.400212,1141.76321 C602.908457,1141.76321 626.492164,1148.96156 642.61078,1162.57661 C686.960103,1200.04641 672.435557,1506.63368 672.278997,1509.72478 L672.27188,1509.9948 L672.314579,1510.25062 C672.691747,1512.38952 709.554631,1725.25609 647.207966,1804.22478 Z M645.642361,1159.0023 C628.662662,1144.65534 604.032847,1137.08037 574.400212,1137.08037 C534.334953,1137.08037 493.259168,1150.75937 472.045219,1163.46485 C374.86384,1221.69832 350.831801,1281.01188 349.856856,1283.51319 L348.426463,1287.15855 L352.319126,1286.68956 C362.267835,1285.48865 369.135148,1284.74252 373.433446,1284.30906 C348.035061,1316.34279 352.425872,1367.81136 352.639364,1370.08527 L353.144627,1375.59951 L356.752635,1371.39277 C363.022172,1364.09494 371.085038,1357.6285 376.400979,1353.71311 C362.47421,1402.38903 385.815959,1454.07789 386.862068,1456.3518 L388.698096,1460.35247 L390.996689,1456.60051 C395.451547,1449.31689 400.532647,1442.88598 403.115896,1439.75935 C414.160528,1452.72776 418.971206,1470.65613 419.448004,1472.5179 C419.874987,1477.23626 428.17981,1566.45177 452.140685,1654.54454 C485.26035,1776.32673 530.95467,1838.09186 587.935579,1838.10607 C587.942696,1838.10607 587.949812,1838.10607 587.949812,1838.10607 C589.522534,1838.10607 591.06679,1838.06343 592.653744,1837.96395 C616.273032,1836.54275 635.871562,1826.16093 650.901371,1807.12402 C714.016606,1727.1747 679.089379,1521.70545 676.975812,1509.69635 C677.758615,1493.62975 691.464776,1197.71565 645.642361,1159.0023 Z" id="Fill-50" fill="#8C8C8C"></path>
            <path d="M507.823644,1707.07519 C473.599627,1622.3401 476.475893,1527.97555 406.827639,1455.25424 L335.908147,1488.52097 C357.512102,1582.44557 408.915595,1740.50514 386.665368,1769.06713 C327.740971,1844.71205 374.123427,1890.02094 413.340074,1871.89029 C433.488141,1899.6859 477.193184,1898.51503 495.175174,1872.31606 C530.876385,1889.66614 573.580061,1862.64401 569.283416,1809.42291 C564.958364,1755.79024 518.235017,1732.84839 507.823644,1707.07519" id="Fill-51" fill="#A7A7A7"></path>
            <path d="M479.663248,1698.04345 C465.126773,1639.74389 461.432381,1548.46954 437.025285,1495.18232 C428.721767,1481.33262 418.836964,1467.95927 406.718507,1455.25424 L357.755405,1468.08725 L335.908147,1488.58452 C357.478857,1582.68853 408.803251,1741.05003 386.587262,1769.66658 C363.82527,1798.98699 356.812307,1823.75719 359.024687,1842.05757 C362.407077,1846.04611 366.760928,1849.38056 372.561336,1851.70543 C384.247244,1854.04452 398.27317,1854.04452 407.626151,1842.32774 C421.652076,1882.76061 481.258715,1878.92137 501.134685,1835.09717 C517.883541,1871.03671 564.83281,1830.02084 546.715398,1793.69027 C526.605426,1753.36404 489.016229,1742.57862 479.663248,1698.04345" id="Fill-52" fill="#BABABA"></path>
            <path d="M335.908147,1488.66098 C346.391028,1534.44463 363.902688,1595.4112 376.584279,1649.28814 C377.123317,1612.45194 351.540264,1499.49474 347.043548,1478.20448 L335.908147,1488.66098" id="Fill-53" fill="#E5E5E5"></path>
            <path d="M531.406307,1733.73936 C522.151735,1723.88639 514.15721,1715.377 510.633354,1706.65435 C498.965475,1677.77789 491.689958,1647.03178 484.649366,1617.29513 C478.733559,1592.29303 472.725207,1566.92838 464.011672,1542.25329 C459.405743,1529.21552 454.614723,1516.05689 447.538535,1503.8793 C426.608967,1467.89391 407.217081,1455.25424 407.217081,1455.25424 C452.706857,1502.72055 466.624308,1561.51849 480.079031,1618.37569 C487.162338,1648.27584 494.480568,1679.19967 506.283705,1708.40315 C510.135031,1717.94333 518.407194,1726.75129 527.989234,1736.94549 C544.46949,1754.49743 564.986162,1776.33606 567.726939,1810.24564 C569.748707,1835.31172 561.206026,1856.29728 544.291517,1867.83506 C530.253045,1877.4179 512.491387,1878.58376 496.801329,1870.95588 L494.98601,1870.07438 L493.839867,1871.73787 C485.78839,1883.4676 471.614658,1890.59074 455.9246,1890.78979 C439.807409,1891.07415 424.665507,1883.70219 415.652978,1871.26868 L414.513954,1869.70471 L412.762704,1870.51513 C396.958744,1877.816 379.624221,1874.28286 369.629284,1861.72139 C357.071543,1845.93246 355.526741,1813.83565 388.857435,1771.07545 C405.949916,1749.14441 381.738534,1660.16907 358.31735,1574.11551 C349.959761,1543.38361 342.057781,1514.35786 336.305709,1489.37709 L331.735375,1490.42921 C337.501684,1515.49529 345.417902,1544.5708 353.789729,1575.34535 C375.829847,1656.33025 400.802951,1748.11362 385.155607,1768.19634 C350.151971,1813.09632 352.287641,1847.45377 365.955931,1864.63605 C376.954633,1878.4558 395.663104,1882.72116 412.990509,1875.53403 C422.857306,1888.0884 438.469055,1895.48168 455.248305,1895.48168 C455.497466,1895.48168 455.739509,1895.48168 455.988671,1895.47458 C472.468926,1895.26131 487.475569,1888.02442 496.545049,1876.01033 C513.324298,1883.44627 532.025651,1881.88231 546.939748,1871.70232 C565.285156,1859.19061 574.568203,1836.65531 572.404057,1809.87598 C569.53514,1774.32423 548.399123,1751.82448 531.406307,1733.73936" id="Fill-54" fill="#696969"></path>
            <path d="M493.425011,1870.92802 L497.292444,1873.57463 C517.348964,1844.66716 485.084746,1798.46473 485.084746,1798.46473 C485.355395,1798.91763 511.786414,1844.46902 493.425011,1870.92802" id="Fill-55" fill="#696969"></path>
            <g id="Group-59" transform="translate(404.758885, 1152.728267)">
                <path d="M6.73717983,720.74417 L10.7851791,718.377419 C-5.13647712,691.205975 15.9927986,646.983971 16.2062256,646.536207 C16.2062256,646.536207 -10.4579243,691.404981 6.73717983,720.74417" id="Fill-56" fill="#696969"></path>
                <path d="M309.213077,7.36406514 C261.654421,-7.04255696 224.781345,7.36406514 224.781345,7.36406514 C250.577558,77.6629794 165.270776,147.172976 172.007955,250.172862 C180.217782,375.695976 237.679452,519.790626 213.057087,580.480388 C201.624513,608.653969 177.870084,630.921333 168.493524,659.045164 C157.672773,691.476055 167.027992,724.35471 196.246152,719.983683 C198.202566,756.380482 261.135082,764.57527 285.664962,734.688814 C334.916805,776.082088 418.274288,712.911858 377.623553,615.789761 C347.103489,542.889552 409.438409,395.29808 426.092831,257.294438 C442.896653,117.997257 413.586008,38.9989319 309.213077,7.36406514" id="Fill-58" fill="#A7A7A7"></path>
            </g>
            <path d="M746.510554,1571.92613 C756.85371,1456.37169 754.695633,1275.53197 616.827115,1254.96118 C598.518949,1298.29054 573.047951,1344.68848 576.881379,1403.45304 C585.073556,1528.90221 642.411696,1672.91196 617.842264,1733.56597 C606.434267,1761.72295 582.730906,1783.9772 573.374503,1812.08446 C562.577015,1844.49625 575.418997,1855.8116 604.574345,1851.43605 C606.526553,1887.8114 659.782802,1886.29843 684.259948,1856.42248 C715.743748,1895.38339 788.699556,1854.71061 748.895798,1763.3922 C730.026815,1720.09835 739.276734,1652.70343 746.510554,1571.92613" id="Fill-60" fill="#BABABA"></path>
            <g id="Group-64" transform="translate(566.453800, 1150.641881)">
                <mask id="mask-4" fill="white">
                    <use xlink:href="#path-3"></use>
                </mask>
                <g id="Clip-62"></g>
                <path d="M43.650619,119.017539 C26.4035894,158.051169 6.88683921,200.325756 10.2807473,252.259248 C16.4851243,347.106989 50.7870756,452.523377 56.571661,524.584917 C71.2714808,406.218916 -5.23019523,270.319054 43.650619,119.017539" id="Fill-61" fill="#E5E5E5" mask="url(#mask-4)"></path>
                <path d="M262.063189,259.103637 C255.986884,309.473509 243.92677,360.610976 232.265103,410.063999 C211.787813,496.880422 194.106761,571.85598 213.751583,618.778781 C228.999267,655.20401 227.739892,691.096186 210.300755,717.258385 C197.749698,736.092893 178.425056,747.329632 158.602356,747.329632 C158.602356,747.329632 158.602356,747.329632 158.595241,747.329632 C146.535128,747.329632 135.072683,743.058108 125.460168,734.977037 L123.645815,733.448955 L122.137411,735.282654 C113.207947,746.171132 97.7112342,752.674368 80.6990032,752.674368 C59.7378855,752.674368 37.9442998,742.112828 36.8628029,721.942136 L36.7276158,719.369271 L34.1732908,719.753069 C24.3117466,721.2314 16.5135847,718.260523 11.3124384,711.046551 C3.52850671,700.264683 2.61777247,680.961089 8.99291214,661.870715 C13.8525331,647.300624 22.5258537,634.521588 31.7114623,620.989171 C39.7301927,609.169628 48.0264124,596.944966 53.5050481,583.448087 C68.2190981,547.186327 54.5580845,483.525689 38.7411922,409.815241 C27.5633525,357.71828 16.0084118,303.844479 12.6216189,252.109993 C9.36289793,202.266066 28.2321729,159.629003 44.8744181,122.009738 C62.6835416,81.7536414 78.1162179,46.8778177 66.0561043,10.9003529 C71.21456,9.25144502 85.3238255,5.39214763 104.47059,5.39214763 C118.764848,5.39214763 133.016416,7.51014141 146.819732,11.6963774 C197.685662,27.1122449 231.190721,54.3547621 249.255989,94.9946561 C266.752047,134.36944 270.829006,186.516152 262.063189,259.103637 Z M148.185833,7.21163222 C133.934266,2.89746369 119.227331,0.701288933 104.47059,0.701288933 C79.2973263,0.701288933 62.8898798,7.00551873 62.2068291,7.27559847 L60.0651806,8.10715979 L60.854958,10.2606904 C73.7048489,45.2573392 58.3575539,79.9483715 40.5840061,120.112072 C23.7211924,158.221746 4.61000362,201.42029 7.93987568,252.41561 C11.348014,304.491249 22.9456453,358.535627 34.1590606,410.796057 C49.8123053,483.753125 63.3310167,546.759886 49.1577151,581.685461 C43.8640723,594.72747 35.7101549,606.738911 27.8266116,618.359447 C18.8686865,631.557818 9.60481171,645.203952 4.5388525,660.385277 C-2.39838096,681.174309 -1.25996316,701.636404 7.50585389,713.789992 C13.2619789,721.757345 21.8783786,725.588213 32.4016281,724.67847 C35.1765215,746.142702 58.3717842,757.358119 80.6990032,757.358119 C98.1808316,757.358119 114.260983,750.911742 124.243484,740.016157 C134.332712,747.869791 146.158027,752.013383 158.595241,752.020491 C158.602356,752.020491 158.602356,752.020491 158.602356,752.020491 C179.997496,752.013383 200.787851,739.994835 214.206951,719.859679 C232.528362,692.368404 233.944269,654.862857 218.084686,616.973512 C199.023303,571.45086 216.540707,497.157609 236.833004,411.13721 C248.523132,361.556255 260.611706,310.290856 266.723587,259.665119 C275.589015,186.203428 271.398215,133.267799 253.539286,93.0898832 C234.890579,51.1351273 200.42498,23.046834 148.185833,7.21163222 Z" id="Fill-63" fill="#696969" mask="url(#mask-4)"></path>
            </g>
            <path d="M688.891145,1889.22253 L692.272277,1886.01363 C672.753285,1865.09898 692.863975,1836.19758 693.723346,1834.97649 C693.723346,1834.97649 666.744732,1865.48944 688.891145,1889.22253" id="Fill-65" fill="#696969"></path>
            <path d="M598.805307,1873.57463 L603.546675,1873.47441 C602.791222,1838.76951 636.016771,1809.19017 636.347731,1808.89666 C636.347731,1808.89666 597.99949,1836.65772 598.805307,1873.57463" id="Fill-66" fill="#696969"></path>
            <path d="M679.405192,3.129579 C657.754952,3.129579 651.737448,19.9802002 612.637866,51.2945081 C448.164161,183.016354 404.501778,447.53985 459.844363,643.268482 C539.249866,646.266358 609.025944,630.616308 609.025944,630.616308 C634.288106,539.536285 705.738867,373.864558 722.116696,230.747941 C735.350946,115.123695 713.828436,3.129579 679.405192,3.129579" id="Fill-67" fill="#A7A7A7"></path>
            <path d="M689.183506,5.85695764 C686.264829,4.07421796 683.218014,3.129579 680.064419,3.129579 C658.345188,3.129579 652.308509,19.9768241 613.084333,51.284858 C509.485525,133.972728 453.674719,269.013483 440.227447,406.504617 C451.838088,439.772954 471.549838,469.099377 505.669888,490.201049 C549.115468,515.486122 592.568167,492.005096 617.910829,454.077487 C636.013747,428.792414 645.068766,399.892144 657.740097,372.795922 C695.754089,282.479915 713.857008,188.555813 708.42542,91.0165144 C705.812848,62.3151158 705.07962,29.842264 689.183506,5.85695764" id="Fill-68" fill="#BABABA"></path>
            <path d="M718.889352,230.406776 C707.461502,329.95614 669.193145,440.521561 638.446107,529.353175 C625.23221,567.522287 613.783012,600.605973 606.105147,627.830053 C595.616572,630.003434 542.255767,640.387365 479.722795,640.387365 C473.596158,640.387365 467.490868,640.287929 461.527892,640.089057 C410.095448,455.571868 446.015616,188.210516 614.288228,53.8444441 C628.114077,42.8070788 637.784345,33.6092744 645.554714,26.2226207 C659.437489,13.0189772 666.403781,6.39229649 679.240545,6.39229649 C683.730566,6.39229649 688.177893,8.82136915 692.461558,13.6155915 C717.537365,41.6777731 729.385044,138.92591 718.889352,230.406776 Z M679.240545,0 C663.842121,0 655.780007,7.67075578 641.142966,21.591757 C633.457985,28.9002827 623.894454,37.9915488 610.289192,48.8584528 C532.215482,111.197549 476.755539,205.846152 449.900801,322.569486 C425.33021,429.391863 427.49339,543.572483 455.99186,644.073589 L456.625159,646.310893 L458.952,646.403226 C465.726168,646.651815 472.713808,646.779661 479.722795,646.779661 C479.729911,646.779661 479.729911,646.779661 479.729911,646.779661 C549.962094,646.779661 608.780659,633.803299 609.364148,633.675453 L611.242699,633.256403 L611.755031,631.409739 C619.37597,604.0223 631.017292,570.384615 644.494471,531.441325 C675.348245,442.311404 713.744685,331.383752 725.250809,231.131236 C736.109402,136.511043 723.806317,39.0924443 697.236208,9.36116308 C691.685944,3.14643038 685.630464,0 679.240545,0 Z" id="Fill-69" fill="#696969"></path>
            <path d="M511.345402,223.703132 C457.139283,337.113481 442.689054,459.327438 471.298234,629.04538 C471.298234,629.04538 492.973577,623.024848 536.338473,618.211262 C520.375019,436.757543 719.417332,168.034511 676.052437,50.0732641 C628.517293,65.9694562 555.939349,130.391987 511.345402,223.703132" id="Fill-70" fill="#EF9595"></path>
            <path d="M538.869522,547.676326 C575.592099,378.280295 712.156398,147.824968 676.306142,50.0732641 C671.80979,51.5793223 667.029755,53.6608085 662.129157,56.0264565 C526.522283,140.266261 395.808916,538.419751 538.869522,547.676326" id="Fill-71" fill="#FFB6B6"></path>
            <path d="M612.882401,310.595137 C570.221291,416.024059 526.117775,525.018897 532.860845,615.523539 C500.82238,619.210213 481.282397,623.436746 473.828782,625.233911 C446.970188,463.126821 459.454461,339.577081 514.187727,225.013164 C557.175688,135.034174 626.411174,71.5722428 674.067415,53.998388 C693.053172,112.459514 654.094,208.753441 612.882401,310.595137 Z M677.968306,45.9004921 L675.02665,46.8878671 C626.041691,63.2754512 553.075845,128.776064 508.418104,222.257038 C452.69718,338.880946 440.262645,464.547504 468.094686,629.723271 L468.684438,633.218152 L472.102158,632.266294 C472.315322,632.209467 494.107731,626.256803 536.648049,621.525927 L539.75313,621.184963 L539.483123,618.073666 C531.610286,528.492468 575.941177,418.936461 618.808345,312.988989 C661.206554,208.220685 701.252859,109.262976 679.041228,48.8128932 L677.968306,45.9004921 Z" id="Fill-72" fill="#696969"></path>
            <path d="M837.433765,311.851229 C682.20167,423.852209 663.051688,562.944243 581.058502,602.082079 C581.058502,602.082079 675.998355,714.075956 725.731461,687.581559 C775.457461,661.087162 883.841382,672.743276 1026.57447,520.190952 C1104.87978,436.495648 1175.95143,276.932607 1163.9072,251.64573 C1151.86296,226.351749 956.852907,225.698268 837.433765,311.851229" id="Fill-74" fill="#A7A7A7"></path>
            <path d="M837.693804,311.875198 C719.635529,397.119163 680.323018,498.030623 632.174959,558.682659 C682.652649,563.443304 724.91271,531.362242 750.993205,488.964081 C816.016878,382.354058 902.717478,301.039402 1027.34559,277.548817 C1073.88848,269.51967 1120.42427,267.18198 1163.1602,250.292349 C1144.87828,226.354121 954.88557,227.263617 837.693804,311.875198" id="Fill-75" fill="#BABABA"></path>
            <path d="M838.019577,311.764882 C732.668157,387.693394 690.00037,476.060248 647.822854,537.244396 C853.35298,251.496048 1021.70778,247.728359 1139.16676,240.249745 C1080.4124,229.30145 934.539014,242.200996 838.019577,311.764882" id="Fill-76" fill="#E5E5E5"></path>
            <path d="M1024.23782,517.989071 C918.595923,630.844034 831.638935,653.332656 774.098782,668.209089 C754.30514,673.328854 737.212247,677.745628 724.163368,684.697431 C719.586311,687.140148 714.326959,688.375709 708.534564,688.375709 C664.306258,688.375709 599.950269,618.665952 586.091166,603.043922 C621.840544,584.311688 645.280197,547.465001 674.689924,501.223793 C710.31848,445.211716 754.660502,375.501959 839.264996,314.490832 C915.447419,259.558095 1023.89668,240.066063 1093.61863,240.066063 C1135.68633,240.066063 1158.06701,246.811939 1161.05205,253.082054 C1171.64182,275.307941 1103.61139,433.196955 1024.23782,517.989071 Z M1093.61863,233.675232 C1022.94431,233.675232 912.938566,253.486806 835.526591,309.31426 C749.919978,371.035479 705.215487,441.32041 669.295535,497.794048 C639.41673,544.766651 615.813611,581.868971 579.588048,599.152617 L575.842537,600.942049 L578.521963,604.10196 C581.66336,607.808641 656.026332,694.766539 708.534564,694.766539 C715.385936,694.766539 721.654515,693.275345 727.176835,690.335563 C739.550526,683.745907 756.302273,679.414344 775.69791,674.401093 C833.955893,659.332935 922.000287,636.567378 1028.90728,522.356139 C1108.69307,437.123765 1179.84357,277.644145 1166.83023,250.333997 C1159.46003,234.882389 1108.9276,233.675232 1093.61863,233.675232 Z" id="Fill-77" fill="#696969"></path>
            <path d="M839.157895,414.282069 C750.358381,507.207302 736.556009,631.891702 682.248223,660.9717 C695.610395,669.108698 703.739878,671.816293 703.739878,671.816293 C813.881948,655.549403 968.100725,561.465803 1026.9383,476.634929 C1102.77324,367.293568 1137.08037,273.316566 1137.08037,273.316566 C1000.38436,294.387484 918.606729,331.149661 839.157895,414.282069" id="Fill-78" fill="#EF9595"></path>
            <path d="M839.960295,414.414273 C812.26929,443.393506 791.868757,475.45276 775.255575,506.7509 C751.415873,590.786407 862.49965,569.795313 932.121531,517.527419 C1011.63458,457.826216 1085.78991,364.244777 1137.84644,274.056341 C1138.03119,273.572642 1138.12356,273.316566 1138.12356,273.316566 C1001.31707,294.407245 919.473343,331.203899 839.960295,414.414273" id="Fill-79" fill="#FFB6B6"></path>
            <path d="M1024.6346,474.642529 C965.533827,559.8228 813.05512,651.989487 704.264532,668.38589 C702.410753,667.68938 696.877824,665.443492 688.709829,660.809572 C713.249327,644.676137 729.15916,610.03545 748.996733,566.858967 C771.192371,518.54395 796.349795,463.782667 841.714128,416.320519 C917.825635,336.69811 997.005466,298.695698 1132.46633,277.146547 C1124.16339,298.176869 1089.43165,381.239182 1024.6346,474.642529 Z M837.097436,411.899815 C790.994432,460.136653 764.48041,517.826119 743.186803,564.193752 C722.603456,609.0049 706.338493,644.406062 680.925375,658.009319 L675.989065,660.646105 L680.77622,663.560074 C694.299579,671.78315 702.581215,674.59051 702.92214,674.704226 L703.646606,674.945872 L704.399482,674.832156 C814.681617,658.556577 969.816697,564.876047 1029.88342,478.288544 C1105.1142,369.853384 1140.09453,275.170734 1140.44256,274.225471 L1142.29634,269.143794 L1136.95518,269.968234 C996.586412,291.602673 915.318415,330.067055 837.097436,411.899815 Z" id="Fill-80" fill="#696969"></path>
            <path d="M653.642709,629.637279 C489.892526,581.512333 314.5662,659.599856 270.109266,810.955299 C225.652331,962.303633 328.906688,1129.60357 492.656872,1177.72852 C656.407055,1225.85347 825.18849,1142.17861 869.645424,990.823172 C914.102359,839.474838 817.392892,677.769334 653.642709,629.637279" id="Fill-81" fill="#A7A7A7"></path>
            <path d="M785.888711,1015.24297 C831.376764,926.5846 821.43336,693.820832 653.710378,629.637346 C489.932063,581.512172 314.575617,659.600066 270.111044,810.956227 C225.646472,962.305279 328.918569,1129.60601 492.696884,1177.73119 C613.851471,1213.33102 737.749557,1176.79285 812.037234,1094.09859 C817.886714,1070.04311 779.591458,1040.4145 785.888711,1015.24297" id="Fill-82" fill="#BABABA"></path>
            <path d="M270.820149,810.155454 C267.218921,822.378397 264.599846,834.71491 262.884636,847.072717 C306.690087,743.78104 389.838596,656.012927 494.473483,620.699836 C389.632201,640.240929 300.704647,708.716383 270.820149,810.155454" id="Fill-83" fill="#E5E5E5"></path>
            <path d="M866.453344,989.906303 C831.641406,1108.43454 719.063862,1188.06692 586.323811,1188.05981 C555.149365,1188.05981 523.925188,1183.52563 493.532235,1174.59231 C330.434753,1126.65653 229.536969,960.554965 273.20819,811.879425 C307.132068,696.3645 420.62609,618.750467 555.611156,618.750467 C588.355691,618.750467 621.014973,623.469423 652.672523,632.772305 C731.070428,655.812749 796.488454,705.688702 836.863197,773.196779 C877.188209,840.626679 887.695731,917.586881 866.453344,989.906303 Z M654.469956,626.631976 C622.229838,617.15853 588.966676,612.354292 555.611156,612.354292 C417.762986,612.354292 301.80371,691.809002 267.069922,810.074282 C222.425387,962.075834 325.305321,1131.81611 491.727698,1180.73264 C522.710322,1189.83653 554.53838,1194.45599 586.316706,1194.45599 C586.330915,1194.45599 586.323811,1194.45599 586.330915,1194.45599 C721.926966,1194.45599 836.969764,1112.97582 872.591613,991.704339 C894.338417,917.65795 883.596448,838.892605 842.347853,769.913409 C801.148991,701.019495 734.423741,650.134367 654.469956,626.631976 Z" id="Fill-84" fill="#696969"></path>
            <path d="M718.683391,992.02305 C783.736677,877.244353 738.146083,738.449481 668.090338,728.12942 C600.628197,718.186055 521.718667,779.0403 528.042799,982.079685 C528.042799,982.079685 470.514518,942.91747 391.604988,976.059649 C423.531194,912.795969 405.674405,760.084651 339.803955,752.529399 C266.230856,744.09282 244.629327,873.633753 261.498416,971.837806 C261.498416,971.837806 200.43857,979.087436 186.731547,1029.84906 C186.731547,1029.84906 200.658848,1023.05431 215.119082,1019.4366 C215.119082,1019.4366 177.465629,1057.09203 201.262838,1105.59347 C201.262838,1105.59347 209.093392,1083.90855 221.137666,1070.04897 C221.137666,1070.04897 203.671693,1119.45306 236.201889,1141.74212 C236.201889,1141.74212 236.201889,1124.87607 242.220473,1118.24479 C276.555533,1204.40877 403.052377,1215.24768 434.374593,1238.74501 C465.696809,1262.24234 491.711018,1266.46418 523.317464,1245.98042 C573.5197,1213.44238 766.576253,1260.14563 838.557661,1159.82355 C838.557661,1159.82355 840.362525,1164.03828 839.758535,1182.71674 C839.758535,1182.71674 875.89846,1160.12206 866.867032,1107.40588 C866.867032,1107.40588 879.515295,1118.24479 890.962684,1132.10438 C890.962684,1132.10438 904.811821,1094.74746 884.333004,1051.37051 C884.333004,1051.37051 896.981268,1057.99468 914.454346,1071.85427 C921.68091,996.543407 836.148806,935.994784 718.683391,992.02305" id="Fill-85" fill="#D4D4D4"></path>
            <path d="M799.457248,970.237647 C775.067824,971.275183 747.745134,977.99785 718.426687,991.98327 C783.448581,877.221809 737.879988,738.447778 667.858049,728.129266 C600.428463,718.187394 521.557013,779.032502 527.878092,982.041399 C527.878092,982.041399 470.377573,942.885064 391.506123,976.022267 C423.416922,912.768086 405.56875,760.079698 339.730087,752.525582 C266.192492,744.090269 244.601388,873.611751 261.462335,971.801058 C261.462335,971.801058 200.431955,979.049599 186.731547,1029.8036 C186.731547,1029.8036 200.652127,1023.00987 215.105383,1019.3927 C215.105383,1019.3927 177.4701,1057.04248 201.255826,1105.53664 C201.255826,1105.53664 209.082601,1083.85498 221.121062,1069.99747 C221.121062,1069.99747 208.812713,1104.85443 224.146658,1129.21521 C228.017431,1133.03846 232.037354,1136.69826 236.213528,1140.1804 C236.369779,1135.91656 237.257572,1123.62246 242.193696,1118.18606 C250.489225,1139.00074 264.161223,1155.40945 280.567622,1168.67001 C315.021058,1185.46957 377.692078,1205.68732 405.959378,1177.2972 C447.500947,1260.86151 515.832529,1254.03225 564.000578,1175.49217 C605.542146,1225.49289 833.420623,1177.2972 792.482754,1045.29558 C810.543996,1041.68552 824.997252,1054.33494 843.058494,1056.13997 C839.443405,1039.87339 830.416335,1023.61391 815.963079,1014.57456 C830.416335,1014.57456 843.058494,1014.57456 857.504647,1014.57456 C848.740364,987.172229 825.359471,973.748215 799.457248,970.237647" id="Fill-86" fill="#ECECEC"></path>
            <path d="M261.683959,971.895593 C261.683959,971.895593 200.472585,979.146977 186.731547,1029.92088 C186.731547,1029.92088 200.693411,1023.12449 215.189529,1019.50591 C215.189529,1019.50591 177.442634,1057.17045 201.2989,1105.68363 C201.2989,1105.68363 209.148886,1083.99346 221.223048,1070.13052 C221.223048,1070.13052 208.878197,1105.00115 224.257617,1129.37148 C228.13987,1133.19623 232.171714,1136.85747 236.360273,1140.34098 C236.516988,1136.07546 237.407412,1123.77654 242.358175,1118.338 C246.525364,1128.77431 252.045999,1138.09447 258.592403,1146.46911 C254.37535,1130.53739 254.389597,1114.53458 263.493302,1099.66214 C252.622994,1096.04355 236.324656,1108.69793 234.508189,1103.27361 C225.454348,1085.19491 239.943343,1061.6919 252.622994,1043.6132 C241.752686,1041.80747 232.698845,1047.23179 223.645004,1049.03752 C230.889502,1030.95883 250.813651,1025.53451 263.493302,1011.06729 C254.439461,1007.45581 245.378497,1007.45581 236.324656,1007.45581 C250.813651,996.607172 265.309769,989.377116 283.424574,985.758533 C261.683959,922.479544 268.543792,855.169638 294.893248,794.115828 C303.947089,773.143688 320.281044,758.456081 341.124112,752.676301 C340.810682,752.633646 340.504376,752.569663 340.183823,752.534117 C266.428143,744.095497 244.773008,873.667776 261.683959,971.895593" id="Fill-87" fill="#F9F9F9"></path>
            <path d="M885.746033,1048.51884 L877.294557,1044.09914 L881.367472,1052.71827 C896.514735,1084.78602 892.249902,1113.74149 889.442221,1125.45869 C879.199515,1113.83386 869.333536,1105.34263 868.864405,1104.94471 L862.133078,1099.17493 L863.632877,1107.91487 C870.222043,1146.34926 852.217342,1167.82961 842.991088,1176.04372 C843.033736,1163.05462 841.711638,1159.21757 841.405992,1158.51411 L839.174063,1153.31279 L835.868818,1157.91014 C790.611838,1220.95135 696.03918,1224.78129 620.054082,1227.85093 C577.171192,1229.5847 540.145339,1231.07689 521.387185,1243.22753 C508.258609,1251.73298 496.061188,1255.86846 484.105441,1255.86846 C469.306473,1255.86846 454.038373,1249.59418 436.07632,1236.12189 C426.416475,1228.88125 409.207876,1223.16121 387.414583,1215.91346 C337.267262,1199.22942 268.582136,1176.38479 244.912316,1117.0314 L243.021574,1112.27773 L239.574167,1116.06503 C235.259579,1120.8116 233.660266,1129.38811 233.06319,1135.34974 C209.379154,1113.30805 223.708991,1071.534 223.865368,1071.09345 L229.438082,1055.28341 L218.441923,1067.92434 C210.388498,1077.18299 204.240031,1089.59653 200.863705,1097.32036 C184.728423,1054.89971 215.698214,1023.08776 217.091393,1021.68795 L225.201682,1013.53779 L214.049145,1016.3303 C205.505265,1018.46199 197.238598,1021.63821 191.722748,1023.96886 C208.035732,981.931911 261.040491,975.089182 261.602027,975.018125 L264.94992,974.62021 L264.374168,971.301877 C252.873336,904.373875 258.950723,815.610248 292.8206,775.442077 C305.551125,760.342597 321.167519,753.69172 339.193544,755.766566 C355.513636,757.635349 370.070931,769.629666 381.301656,790.434973 C407.91421,839.762311 411.418481,929.272029 388.523439,974.62021 L384.606901,982.37246 L392.617678,979.011494 C413.259467,970.342616 434.306415,965.951332 455.154337,965.951332 C497.838202,965.951332 525.779962,984.53968 526.057176,984.724427 L531.246055,988.241717 L531.04703,981.98165 C526.945683,850.378133 558.910602,788.907261 586.440095,760.513133 C605.56076,740.794988 628.946258,730.371017 654.073229,730.371017 C658.508654,730.371017 663.022269,730.704982 667.479019,731.358701 C690.921381,734.812041 712.878159,754.196221 727.70556,784.544399 C750.088822,830.354446 760.395501,911.770844 715.778246,990.444465 L710.767067,999.283878 L719.936457,994.906805 C749.967985,980.588945 779.047034,973.326984 806.356178,973.326984 C840.716511,973.326984 870.328664,985.09392 889.747867,1006.45347 C904.582376,1022.77512 912.223534,1043.59464 911.576701,1065.6079 C896.607139,1054.25309 886.222273,1048.77465 885.746033,1048.51884 Z M806.356178,966.93191 C780.760075,966.93191 753.742362,973.056969 725.928547,985.150765 C766.430238,906.967432 755.718401,827.299022 733.448868,781.737673 C717.683204,749.463866 693.977844,728.793566 668.410174,725.034683 C663.647777,724.331225 658.821409,723.975943 654.073229,723.975943 C627.176352,723.975943 602.198651,735.067844 581.848292,756.065003 C553.870991,784.913893 521.444049,846.505561 524.493404,976.368197 C514.264914,970.768954 489.472022,959.556258 455.154337,959.556258 C435.948375,959.556258 416.614469,963.123288 397.564884,970.179186 C417.488759,921.53399 412.989361,835.704991 386.931235,787.400866 C374.669842,764.669931 358.413722,751.531606 339.918566,749.414126 C319.70326,747.097688 302.089502,754.530186 287.930259,771.320808 C253.342468,812.341654 246.525844,901.211866 257.543328,969.212819 C244.343672,971.67137 195.575313,983.736743 183.34946,1028.99966 L181.515582,1035.79265 L187.84175,1032.7088 C187.941263,1032.65906 195.937824,1028.78649 205.931748,1025.3971 C195.980472,1039.53732 180.165052,1070.44684 198.098672,1106.96982 L201.418134,1113.73439 L203.977033,1106.65006 C204.033897,1106.50795 207.772734,1096.25452 213.9212,1085.58185 C211.369409,1102.77039 211.909621,1129.13941 234.108074,1144.34547 L239.112144,1147.77039 L239.119252,1141.70928 C239.119252,1138.51885 239.623924,1131.03661 241.578639,1125.43027 C268.368894,1183.05699 335.753246,1205.46817 385.395895,1221.98167 C405.79601,1228.76756 423.416876,1234.6226 432.237971,1241.23795 C451.365745,1255.58423 467.849322,1262.26353 484.105441,1262.26353 C497.33353,1262.26353 510.668239,1257.79409 524.870131,1248.59228 C542.14981,1237.40091 578.372454,1235.93714 620.309972,1234.2389 C695.207537,1231.21189 787.832589,1227.46722 836.387706,1167.75855 C836.593839,1171.06267 836.693352,1175.82345 836.480111,1182.55959 L836.288193,1188.55675 L841.370452,1185.37343 C841.725854,1185.15315 875.16214,1163.64439 871.075009,1115.63159 C875.730785,1120.07261 882.277303,1126.67375 888.425769,1134.10625 L891.958472,1138.38384 L893.884755,1133.18252 C894.432075,1131.71165 906.160364,1099.11098 891.013101,1059.07782 C896.294385,1062.42458 903.772058,1067.498 912.401235,1074.34073 L917.007254,1077.99303 L917.568791,1072.13798 C920.070826,1046.13845 911.868131,1021.28293 894.474723,1002.15456 C873.832934,979.444938 842.543281,966.93191 806.356178,966.93191 Z" id="Fill-88" fill="#8C8C8C"></path>
            <path d="M358.411743,810.617534 C337.607013,799.461467 320.260252,813.904147 320.260252,813.904147 C320.431015,813.833315 337.308176,806.537601 355.380684,816.234525 C363.39947,820.534038 371.090959,828.396409 378.903405,840.274965 C389.803831,856.849693 391.724924,878.156011 391.739155,878.368507 C391.739155,878.368507 395.133086,855.220553 384.261121,836.782939 C376.491366,823.601071 367.39819,815.434122 358.411743,810.617534" id="Fill-89" fill="#8C8C8C"></path>
            <path d="M655.000384,798.042646 C642.975324,798.042646 632.533257,800.117505 623.077897,804.402695 C605.324253,812.431187 589.693096,827.354486 577.880995,847.546928 C574.033544,854.11375 569.717584,862.042421 566.800052,871.069127 C557.160128,900.908594 565.941119,923.225806 565.941119,923.225806 C565.912725,923.011903 563.690857,901.486133 572.876469,873.051295 C575.602339,864.609257 579.719537,857.065611 583.389523,850.798254 C594.527255,831.760888 609.164606,817.735982 625.704386,810.249377 C634.31501,806.349212 643.905243,804.459736 655.000384,804.459736 C678.440021,804.459736 693.567176,823.133467 693.723346,823.31885 C693.723346,823.31885 681.584709,798.042646 655.000384,798.042646" id="Fill-90" fill="#8C8C8C"></path>
            <path d="M379.722253,1087.76671 C440.33042,1156.57483 426.260159,1221.44374 479.865222,1221.57884 C535.975461,1221.71394 529.940266,1139.17548 580.015309,1062.4534 C580.015309,1062.4534 409.883997,1051.6028 379.722253,1087.76671" id="Fill-91" fill="#2B0000"></path>
            <path d="M379.722253,1087.76879 C440.289476,1156.57584 426.228719,1221.44375 479.797569,1221.57885 C501.055839,1221.62862 513.388339,1209.78985 523.231579,1190.8976 C509.249057,1161.37534 507.542137,1127.78596 525.016733,1095.60442 C530.763365,1084.12117 536.87983,1071.90556 544.546747,1061.12624 C493.040426,1060.11656 401.122766,1062.08614 379.722253,1087.76879" id="Fill-92" fill="#440000"></path>
            <path d="M474.431029,1079.48535 C476.594337,1072.98652 480.52245,1067.07721 485.589145,1061.97048 C440.913985,1064.05862 394.196492,1070.57876 379.722253,1087.91607 C440.323345,1156.64741 426.254726,1221.44393 479.853532,1221.57888 C493.331511,1221.60729 503.222953,1216.86989 511.164571,1208.59542 C506.71698,1207.20333 502.290738,1205.7402 497.949889,1204.12082 C445.475434,1186.05195 458.142173,1121.02814 474.431029,1079.48535" id="Fill-93" fill="#620000"></path>
            <path d="M478.254744,1183.02392 C469.324262,1176.1982 453.412412,1173.30461 436.054675,1186.81996 C445.778977,1208.02051 456.126995,1221.51438 480.352698,1221.57884 C503.883809,1221.63614 516.436097,1206.93184 526.812466,1184.1126 C515.982485,1174.8087 495.421114,1174.11396 478.254744,1183.02392" id="Fill-94" fill="#F48282"></path>
            <path d="M496.729787,1177.7649 C490.50307,1178.57307 484.141912,1180.4659 478.184076,1183.52846 C469.268549,1176.7724 453.383345,1173.90835 436.054675,1187.28576 C439.068972,1193.80078 442.146951,1199.57142 445.670707,1204.44883 C461.973384,1216.8621 485.557075,1216.57853 500.076647,1200.65608 C506.324592,1193.80078 504.583941,1182.74864 496.729787,1177.7649" id="Fill-95" fill="#FF9C9C"></path>
            <path d="M479.868781,1188.46076 C479.868781,1189.18369 483.140568,1189.76788 487.178093,1189.76788 C491.208657,1189.76788 494.473483,1189.18369 494.473483,1188.46076 C494.473483,1187.74513 491.208657,1187.15364 487.178093,1187.15364 C483.140568,1187.15364 479.868781,1187.74513 479.868781,1188.46076" id="Fill-96" fill="#FFD1D1"></path>
            <path d="M480.518387,1218.28602 L480.518387,1221.4973 L480.39019,1218.28602 C458.959939,1218.22893 449.316683,1207.58175 439.887088,1187.8859 C446.802599,1183.03329 453.803575,1180.57845 460.726208,1180.57845 C466.480825,1180.57845 472.028902,1182.37676 476.330621,1185.64513 L477.940204,1186.85829 L479.727839,1185.93772 C487.156138,1182.11986 495.688355,1180.01469 503.771882,1180.01469 C511.399598,1180.01469 518.14418,1181.82728 523.058395,1185.15274 C511.798433,1208.64504 499.349089,1218.28602 480.518387,1218.28602 Z M503.771882,1173.59213 C495.189811,1173.59213 486.515153,1175.58312 478.552701,1179.35816 C473.417702,1175.98988 467.164542,1174.15589 460.726208,1174.15589 C451.666959,1174.15589 442.643321,1177.57412 433.911687,1184.31781 L431.881903,1185.88776 L432.957332,1188.21416 C443.355526,1210.70026 454.907493,1224.64436 480.375946,1224.70858 L480.518387,1224.70858 C508.251652,1224.70858 521.085587,1204.89141 529.973907,1185.50955 L530.985238,1183.29733 L529.133505,1181.72024 C522.980053,1176.48228 513.970659,1173.59213 503.771882,1173.59213 Z" id="Fill-97" fill="#CE5757"></path>
            <path d="M466.307272,1198.62876 C466.363837,1198.53535 473.575901,1190.36584 479.868781,1185.99009 L476.757694,1181.93767 C469.885021,1186.71579 466.307272,1198.62876 466.307272,1198.62876" id="Fill-98" fill="#CE5757"></path>
            <path d="M536.804393,1148.14442 C522.22876,1188.88107 511.699943,1218.31462 479.808204,1218.31462 L479.801104,1218.31462 L479.801104,1221.5116 L479.67331,1218.31462 C451.579897,1218.24358 443.841252,1199.74371 431.01214,1169.0811 C421.363682,1146.00599 409.40073,1117.42497 384.061991,1087.89196 C400.114355,1072.58907 449.591988,1064.19167 524.273467,1064.19167 C546.538047,1064.19167 565.153394,1064.96605 573.935691,1065.41363 C556.186505,1093.95912 545.913275,1122.66802 536.804393,1148.14442 Z M524.273467,1057.7977 C467.852352,1057.7977 396.550318,1062.65001 377.3031,1085.76774 L375.549481,1087.87065 L377.359898,1089.92382 C403.323408,1119.44262 415.407054,1148.33624 425.11941,1171.55343 C438.012419,1202.36523 447.327192,1224.63044 479.659111,1224.70858 L479.801104,1224.70858 C479.808204,1224.70858 479.808204,1224.70858 479.808204,1224.70858 C516.194037,1224.70858 527.943999,1191.87203 542.817817,1150.30416 C552.302983,1123.7692 563.066089,1093.69626 582.242311,1064.26982 L585.231274,1059.68037 L579.771624,1059.33226 C579.530235,1059.31094 555.433939,1057.7977 524.273467,1057.7977 Z" id="Fill-99" fill="#8C8C8C"></path>
            <path d="M413.104429,1099.28541 C420.052804,1142.90507 438.852613,1178.47646 460.225102,1156.43952 C481.24839,1174.48781 514.29415,1143.20316 514.29415,1093.87022 C504.630564,1063.18883 425.183912,1071.91135 413.104429,1099.28541" id="Fill-100" fill="#ECECEC"></path>
            <path d="M413.104429,1099.23098 C416.38328,1119.88894 422.330635,1138.73268 429.938706,1150.48964 C436.730613,1151.26918 443.657365,1149.10772 449.200186,1142.78631 C453.735221,1135.24598 456.361141,1126.69933 455.424326,1118.74088 C459.952264,1130.90887 473.784476,1148.73212 487.105698,1133.77902 C500.057872,1120.83856 506.111683,1103.32005 508.034992,1084.87317 C487.041824,1065.44123 423.764245,1075.01547 413.104429,1099.23098" id="Fill-101" fill="#FFFFFF"></path>
            <path d="M498.449198,1140.86676 C491.347079,1151.81701 482.055317,1158.35881 473.588226,1158.35881 C469.528857,1158.35881 465.753856,1156.88461 462.376973,1153.97162 L460.087801,1152.00837 L457.98347,1154.17716 C454.300889,1157.98317 450.689401,1159.91099 447.269862,1159.91099 C434.949569,1159.91099 422.394672,1135.23216 416.593541,1099.78026 C423.567694,1085.96664 450.305503,1077.738 472.671136,1077.738 C493.117277,1077.738 507.399717,1083.96087 511.025423,1094.41499 C510.940112,1111.99919 506.482626,1128.47773 498.449198,1140.86676 Z M472.671136,1071.35921 C448.158516,1071.35921 417.98695,1080.70768 410.351639,1098.02964 L409.97485,1098.88723 L410.117034,1099.8157 C415.001074,1130.47642 427.655501,1166.28978 447.269862,1166.28978 C451.770004,1166.28978 456.213272,1164.37614 460.514355,1160.59139 C464.488414,1163.31301 468.960118,1164.7376 473.588226,1164.7376 C484.394253,1164.7376 495.413557,1157.29568 503.816666,1144.33256 C512.589453,1130.80244 517.423729,1112.89222 517.423729,1093.90469 L517.274435,1092.95496 C513.023116,1079.43193 496.344866,1071.35921 472.671136,1071.35921 Z" id="Fill-102" fill="#A7A7A7"></path>
            <path d="M453.4833,1118.80363 C453.293439,1117.21172 453.045159,1115.64171 452.745763,1114.13013 C452.89181,1115.72204 453.147392,1117.27744 453.4833,1118.80363" id="Fill-103" fill="#FFFFFF"></path>
            <path d="M459.932858,1074.3877 L452.271144,1072.40241 C442.686663,1102.77737 462.1345,1137.08037 462.1345,1137.08037 C462.00974,1136.74004 450.979514,1102.77028 459.932858,1074.3877" id="Fill-104" fill="#A7A7A7"></path>
            <path d="M449.1692,1090.25207 C499.714935,1117.60892 548.904928,1102.3221 576.88573,1052.58174 L352.599235,1057.95717 C366.582537,1091.14798 402.697788,1118.22265 449.1692,1090.25207" id="Fill-105" fill="#D4D4D4"></path>
            <path d="M432.173592,1060.9655 C463.498214,1096.28154 542.58168,1089.57823 570.626572,1039.02023 L352.599235,1057.99023 C366.614566,1091.72185 406.419531,1092.25238 432.173592,1060.9655" id="Fill-106" fill="#ECECEC"></path>
            <path d="M450.741561,1087.35801 L449.126618,1086.47302 L447.55436,1087.42938 C429.199494,1098.58453 411.605857,1101.53211 395.271449,1096.19363 C378.182926,1090.61249 363.634205,1076.06012 355.374516,1056.26919 L349.469656,1058.74574 C358.455003,1080.26382 374.426582,1096.14367 393.286562,1102.30291 C410.745028,1108.00538 430.074551,1105.08634 449.297361,1093.86696 C465.795397,1102.58839 482.321891,1106.82777 498.108498,1106.82777 C530.990743,1106.82777 560.635985,1088.40001 580.015309,1053.6285 L574.423478,1050.49535 C546.905407,1099.88346 499.510013,1114.00761 450.741561,1087.35801" id="Fill-107" fill="#8C8C8C"></path>
            <path d="M431.881903,1060.92728 C431.881903,1060.92728 431.960245,1079.63017 448.006225,1092.22307 L451.70257,1088.51548 C436.767629,1076.79749 431.910391,1061.09222 431.881903,1060.92728" id="Fill-108" fill="#8C8C8C"></path>
            <path d="M554.978677,1032.76107 C554.978677,1032.76107 554.978677,1065.42729 588.360853,1076.57518 L582.991198,1046.38389 L554.978677,1032.76107" id="Fill-109" fill="#ECECEC"></path>
            <path d="M556.601045,1032.76107 C556.601045,1032.76107 553.05975,1048.99433 563.490473,1062.04655 C575.008624,1076.4468 590.447239,1076.57518 590.447239,1076.57518 C560.092261,1065.32744 556.629661,1033.08203 556.601045,1032.76107" id="Fill-110" fill="#8C8C8C"></path>
            <path d="M329.648989,1068.16762 C329.648989,1068.16762 343.759644,1069.3865 353.337305,1061.0164 C364.01038,1051.68811 361.797933,1039.02023 361.797933,1039.02023 C361.7619,1039.24569 357.834266,1061.50959 329.648989,1068.16762" id="Fill-111" fill="#8C8C8C"></path>
            <path d="M608.771971,848.43931 C563.45916,887.184778 558.126569,1001.73321 566.793808,1007.74751 C575.461047,1013.75473 665.916026,1008.2227 702.198981,969.888588 C783.567222,883.915208 688.931492,779.898909 608.771971,848.43931" id="Fill-112" fill="#ECECEC"></path>
            <path d="M608.254023,848.524699 C577.767208,874.80047 565.449231,935.783044 563.324221,974.470378 C604.386505,979.996123 644.974203,975.032922 674.908515,943.900762 C706.309085,912.334233 711.664111,861.44896 684.76148,829.967881 C662.165536,822.028183 634.441235,825.965988 608.254023,848.524699" id="Fill-113" fill="#FFFFFF"></path>
            <path d="M612.995163,881.498086 C601.874372,881.498086 591.357972,884.320691 581.972138,889.354454 C561.671718,938.341219 560.285174,1004.2565 566.791264,1008.78547 C574.008401,1013.80501 637.974279,1010.78333 680.110984,987.434631 C682.841408,979.052135 684.334609,970.015535 684.334609,960.595003 C684.334609,916.912176 652.394333,881.498086 612.995163,881.498086" id="Fill-114" fill="#0052B2"></path>
            <path d="M612.725488,881.498086 C601.587592,881.498086 591.055017,884.30995 581.654747,889.324559 C570.110931,917.039481 564.67729,950.179813 563.324221,974.480835 C604.607073,979.977073 645.41279,975.040375 675.507897,944.074456 C677.523258,942.070029 679.403312,939.966443 681.20503,937.813278 C672.431445,905.253734 645.099448,881.498086 612.725488,881.498086" id="Fill-115" fill="#0067D4"></path>
            <path d="M596.16078,908.621104 C587.942617,908.621104 580.1767,910.782938 573.272878,914.607172 C561.443811,958.457435 561.380213,1004.99037 566.771837,1008.77893 C571.668817,1012.21789 602.895011,1011.89682 635.54154,1003.87021 C643.194396,993.788789 647.822854,980.73217 647.822854,966.455506 C647.822854,934.5203 624.694696,908.621104 596.16078,908.621104" id="Fill-116" fill="#000000"></path>
            <path d="M598.271186,889.84363 C585.307005,889.84363 574.799344,899.654258 574.799344,911.754272 C574.799344,923.854285 585.307005,933.657736 598.271186,933.657736 C611.228268,933.657736 621.743029,923.854285 621.743029,911.754272 C621.743029,899.654258 611.228268,889.84363 598.271186,889.84363" id="Fill-117" fill="#FFFFFF"></path>
            <path d="M676.351036,985.197175 C647.895235,1000.58118 607.452063,1007.59135 581.609622,1007.59135 C570.588059,1007.59135 567.917886,1006.24898 567.832668,1006.24898 C567.832668,1006.24898 567.832668,1006.24898 567.832668,1006.24898 C563.742191,1001.14938 563.486536,940.905999 583.51283,891.699895 C592.460749,887.097477 602.0265,884.760755 611.975733,884.760755 C649.500179,884.760755 680.029625,918.774617 680.029625,960.579918 C680.029625,969.010582 678.79396,977.284992 676.351036,985.197175 Z M611.975733,878.368507 C600.591992,878.368507 589.655647,881.138481 579.486267,886.5932 L578.477851,887.132989 L578.044658,888.184159 C558.806633,934.620289 554.517313,1004.74325 564.004947,1011.34147 C566.525988,1013.09579 572.441556,1013.9836 581.609622,1013.9836 C608.595408,1013.9836 651.062514,1006.53308 680.555137,990.183128 L681.655873,989.572313 L682.046457,988.379094 C684.95098,979.465459 686.420995,970.11147 686.420995,960.579918 C686.420995,915.251778 653.022534,878.368507 611.975733,878.368507 Z" id="Fill-118" fill="#003468"></path>
            <path d="M567.967645,1006.07998 C568.066999,1006.07998 570.777944,1007.39725 581.671399,1007.39725 C612.69823,1007.40437 671.891918,996.802138 698.660721,968.356248 C727.083059,938.137385 736.145562,901.681075 722.888901,870.83562 C712.13738,845.82175 688.356293,829.658503 662.311355,829.658503 C644.42054,829.658503 626.309727,837.106413 609.937609,851.18339 C566.810881,888.273413 561.353508,997.670823 567.967645,1006.07998 Z M581.671399,1013.9836 C572.495348,1013.9836 566.555399,1013.08643 564.021872,1011.32058 C562.183823,1010.03891 559.983842,1006.89171 559.330945,993.854303 C557.514186,957.818096 569.245053,877.507409 605.665387,846.184889 C623.243947,831.068337 642.830876,823.079278 662.311355,823.079278 C690.982077,823.079278 717.12637,840.794766 728.914011,868.229563 C743.235179,901.567149 733.711389,940.686478 703.429713,972.870564 C671.69321,1006.59977 604.785395,1013.9836 581.671399,1013.9836 Z" id="Fill-119" fill="#5D5D5D"></path>
            <path d="M628.523783,970.169492 C621.321884,970.169492 615.483871,975.540513 615.483871,982.169806 C615.483871,988.791909 621.321884,994.162931 628.523783,994.162931 C635.725683,994.162931 641.563696,988.791909 641.563696,982.169806 C641.563696,975.540513 635.725683,970.169492 628.523783,970.169492" id="Fill-120" fill="#FFFFFF"></path>
            <path d="M288.246008,932.291513 C303.337123,975.850857 367.782965,999.107598 377.76522,993.277435 C388.346839,987.099308 406.192173,903.396343 373.526865,855.838969 C326.954897,788.021601 260.411283,851.933257 288.246008,932.291513" id="Fill-121" fill="#ECECEC"></path>
            <path d="M283.748496,873.695358 C284.449182,898.382765 290.274072,921.421043 313.842581,936.744506 C336.604241,953.603853 362.140332,960.200374 388.398341,960.780755 C393.579167,930.629276 393.253596,885.897505 372.636458,855.746027 C338.720453,806.123488 294.138458,827.257834 283.748496,873.695358" id="Fill-122" fill="#FFFFFF"></path>
            <path d="M376.809529,880.454893 C342.120143,880.454893 314.001093,908.729769 314.001093,943.616112 C314.001093,954.305481 316.654771,964.368575 321.30935,973.193354 C344.31262,989.476494 370.728775,996.856571 376.809529,993.276842 C385.6362,988.088726 399.528983,928.243917 384.628654,880.960183 C382.067216,880.639929 379.456111,880.454893 376.809529,880.454893" id="Fill-123" fill="#0052B2"></path>
            <path d="M376.753242,880.454893 C344.005867,880.454893 317.099877,905.341105 314.001093,937.183837 C336.746878,953.703805 362.199645,960.199864 388.379024,960.780755 C392.275655,938.260611 393.073503,907.607996 384.603494,880.95786 C382.03186,880.639078 379.41036,880.454893 376.753242,880.454893" id="Fill-124" fill="#0067D4"></path>
            <path d="M384.030832,910.70749 C357.450612,910.70749 335.908147,932.203893 335.908147,958.728196 C335.908147,969.188784 339.269028,978.853999 344.956125,986.743825 C359.855319,993.248848 372.706588,995.627868 376.723947,993.277254 C383.781085,989.158353 394.070663,950.525901 390.445763,911.140685 C388.340752,910.863725 386.207199,910.70749 384.030832,910.70749" id="Fill-125" fill="#000000"></path>
            <path d="M370.037087,958.696816 C365.317678,956.389569 359.757331,958.028361 357.611486,962.355347 C355.472891,966.675146 357.56074,972.044346 362.280148,974.344405 C367.006806,976.644465 372.567154,975.005672 374.705749,970.685874 C376.851593,966.358888 374.763745,960.996875 370.037087,958.696816" id="Fill-126" fill="#FFFFFF"></path>
            <path d="M375.194437,990.447599 C375.066841,990.525785 374.329615,990.895396 372.217181,990.895396 C362.378056,990.895396 341.700299,983.453421 323.836759,970.971943 C319.526825,962.556185 317.25135,953.109781 317.25135,943.606514 C317.25135,910.583195 343.968685,883.722428 376.810662,883.722428 C378.57575,883.722428 380.355016,883.800614 382.190991,883.978312 C396.16992,931.139252 381.602628,986.68041 375.194437,990.447599 Z M387.046755,878.107184 L385.019384,877.851299 C382.219345,877.503012 379.45475,877.325314 376.810662,877.325314 C340.452687,877.325314 310.871514,907.057675 310.871514,943.606514 C310.871514,954.410528 313.529779,965.136354 318.548584,974.639621 L318.903019,975.314872 L319.526825,975.755562 C339.28305,989.743916 361.421081,997.29251 372.217181,997.29251 C374.882534,997.29251 376.909904,996.858927 378.419799,995.97044 C388.939439,989.779456 402.755328,927.933587 387.663472,880.061857 L387.046755,878.107184 Z" id="Fill-127" fill="#003468"></path>
            <path d="M329.882474,830.679526 C317.956222,830.679526 306.74156,837.165693 298.309216,848.947125 C286.78857,865.038492 278.925498,895.094612 291.413906,931.183222 C304.023285,967.61918 354.873522,990.735455 372.962146,990.742544 C375.111148,990.742544 375.83697,990.352665 375.915245,990.310133 C376.982631,989.686326 380.832334,984.327263 384.404517,968.44147 C390.097238,943.09934 393.612494,891.26671 370.642362,857.779655 C358.474169,840.050797 344.377567,830.679526 329.882474,830.679526 Z M372.962146,997.29251 C372.962146,997.29251 372.962146,997.29251 372.962146,997.29251 C352.916649,997.29251 298.963879,973.120017 285.187492,933.316923 C274.065337,901.155457 277.039784,867.370676 292.943825,845.140489 C302.649916,831.58688 315.764524,824.122471 329.882474,824.122471 C341.573901,824.122471 359.079021,829.318494 376.071795,854.086438 C398.74306,887.126905 398.188019,937.109382 390.82306,969.873389 C388.958694,978.181354 384.966673,992.613963 379.245488,995.959833 C377.708453,996.860098 375.651957,997.29251 372.962146,997.29251 Z" id="Fill-128" fill="#5D5D5D"></path>
            <path d="M533.028051,570.747242 C544.760867,584.715711 546.563731,597.784131 546.563731,597.784131 C512.720981,587.869424 477.068268,554.978677 477.068268,554.978677 C473.462539,578.408285 494.671041,599.13066 494.671041,599.13066 C459.472593,588.769472 429.235572,615.296098 429.235572,615.296098 C452.91414,616.415843 468.203,627.13138 468.203,627.13138 C430.137004,635.175121 425.622745,670.7731 425.622745,670.7731 C444.581215,658.611815 473.945195,662.247444 473.945195,662.247444 L650.952433,650.227899 C624.782504,603.368684 571.839326,569.847194 533.028051,570.747242" id="Fill-129" fill="#BABABA"></path>
            <path d="M532.545838,567.826325 L525.88658,567.983172 L530.167023,573.094956 C536.733692,580.930173 540.045516,588.508731 541.648011,593.349597 C510.481258,582.028101 478.979762,553.118362 478.652141,552.811798 L474.222132,548.719519 L473.31049,554.679702 C470.782109,571.105852 479.264651,585.99918 485.60341,594.497431 C453.289983,590.148494 427.543225,612.399368 426.36094,613.440261 L420.40678,618.680374 L428.326667,619.058233 C441.937194,619.699879 452.741573,623.685217 459.172921,626.750861 C426.261229,638.093745 421.724387,670.903269 421.674531,671.259739 L420.812745,678.075451 L426.58885,674.361031 C444.54392,662.804265 473.08258,663.089441 473.338979,663.082311 C473.338979,663.082311 448.660552,656.402059 429.644275,665.370851 C432.899121,655.161542 442.321793,636.389817 468.246605,630.893046 L475.454273,629.367353 L469.421768,625.132486 C468.84487,624.72611 456.637417,616.292024 437.13683,613.46165 C447.599344,606.61742 469.350546,595.616748 493.231287,602.66773 L505.581184,606.310856 L496.3793,597.292158 C496.194123,597.121052 479.991115,581.008596 479.286017,561.916048 C490.389529,571.383899 518.144747,593.335338 545.308822,601.306013 L550.059331,602.703377 L549.382721,597.791216 C549.311499,597.292158 547.780226,586.790544 539.21934,574.399637 C574.965668,576.902059 625.540419,605.362645 650.952433,650.99084 C650.952433,650.99084 645.325894,627.941472 628.474766,611.829016 C598.696843,583.3613 560.194223,567.206067 532.545838,567.826325" id="Fill-130" fill="#696969"></path>
            <path d="M523.682887,1241.0777 L526.841086,1246.61564 C538.383637,1239.92041 553.935484,1201.75834 553.935484,1201.75834 L553.759638,1202.04943 C544.953255,1217.11547 531.799952,1236.37045 523.682887,1241.0777" id="Fill-131" fill="#8C8C8C"></path>
            <path d="M399.718807,1192.66775 L399.54292,1192.3696 C399.54292,1192.3696 415.091347,1230.53273 426.643618,1237.2269 L429.795517,1231.68984 C421.683599,1226.98334 408.520202,1207.7243 399.718807,1192.66775" id="Fill-132" fill="#8C8C8C"></path>
            <path d="M422.175396,975.034949 C402.766748,976.83241 376.628255,986.286771 376.59276,1001.57934 C376.535968,1023.63008 404.576991,1039.82138 430.296644,1054.66812 C444.28876,1042.82187 472.727327,1018.67645 475.432044,1000.68061 C477.547544,986.612295 467.587656,970.824362 422.175396,975.034949" id="Fill-133" fill="#DB7F7F"></path>
            <path d="M422.04129,975.03203 C402.689758,976.819438 376.628185,986.22092 376.592794,1001.42796 C376.578638,1006.01611 377.810228,1010.34388 379.969049,1014.46055 C394.649034,1025.20611 416.456667,1024.11537 432.389476,1016.19166 C448.371831,1008.25388 460.071935,991.85055 452.44174,975.749808 C444.769077,974.250919 434.810187,973.849808 422.04129,975.03203" id="Fill-134" fill="#EA9898"></path>
            <path d="M415.488066,983.282765 C406.280973,985.379599 399.153353,988.678813 399.559445,990.658342 C399.972539,992.630539 407.76531,992.535229 416.979405,990.438395 C426.186497,988.34156 433.321119,985.042346 432.908025,983.062817 C432.501933,981.09062 424.70216,981.18593 415.488066,983.282765" id="Fill-135" fill="#F2BDBD"></path>
            <path d="M472.210778,1000.33599 C469.786045,1016.53571 443.113983,1039.83124 429.941019,1051.0568 C406.019824,1037.1845 379.794424,1021.4602 379.844053,1001.71968 C379.872412,989.692288 401.992782,980.183911 422.475394,978.27514 C427.32486,977.828104 431.919091,977.593943 436.130469,977.593943 C452.096839,977.593943 463.383899,980.907683 468.772195,987.173278 C471.827925,990.728276 472.990663,995.156057 472.210778,1000.33599 Z M421.879846,971.9173 C403.183879,973.662868 373.505716,983.284778 373.463177,1001.70548 C373.406458,1025.67511 402.779757,1042.69794 428.693203,1057.71266 L430.642915,1058.8409 L432.358662,1057.37916 C446.403679,1045.44402 475.628091,1020.59451 478.520755,1001.28683 C479.577145,994.283273 477.875578,987.960912 473.607481,983.000945 C465.241443,973.279694 447.729483,969.511822 421.879846,971.9173 Z" id="Fill-136" fill="#AA4D4D"></path>
            <path d="M346.670756,894.931509 C338.013365,890.603398 327.819076,893.689779 323.89223,901.822034 C319.958334,909.961466 323.79353,920.067569 332.450921,924.395679 C341.101262,928.72379 351.302601,925.644587 355.229447,917.505155 C359.156293,909.3729 355.328147,899.266797 346.670756,894.931509" id="Fill-137" fill="#FFFFFF"></path>
            <path d="M662.427556,30.252597 C662.500883,30.3446956 670.082852,39.8733515 674.592438,51.1164571 L678.075451,49.8129086 C673.360551,38.0668034 662.427556,30.252597 662.427556,30.252597" id="Fill-73" fill="#696969"></path>
        </g>
    </g>
</svg>