<svg width="56" height="56" viewBox="0 0 56 56" fill="none" xmlns="http://www.w3.org/2000/svg">
<path d="M56 28C56 43.464 43.464 56 28 56C12.536 56 0 43.464 0 28C0 12.536 12.536 0 28 0C43.464 0 56 12.536 56 28Z" fill="#9773FF"/>
<path d="M32.556 12.6998C32.2442 12.6998 31.9915 12.4471 31.9915 12.1353V10.7117C31.9915 10.4 32.2442 10.1472 32.556 10.1472C32.8677 10.1472 33.1205 10.4 33.1205 10.7117V12.1353C33.1205 12.4471 32.8677 12.6998 32.556 12.6998Z" fill="white"/>
<path d="M32.556 17.0759C32.2442 17.0759 31.9915 16.8232 31.9915 16.5114V15.0878C31.9915 14.7761 32.2442 14.5233 32.556 14.5233C32.8677 14.5233 33.1205 14.7761 33.1205 15.0878V16.5114C33.1205 16.8232 32.8677 17.0759 32.556 17.0759Z" fill="white"/>
<path d="M35.4558 14.1761H34.0323C33.7205 14.1761 33.4678 13.9233 33.4678 13.6115C33.4678 13.2998 33.7205 13.047 34.0323 13.047H35.4558C35.7676 13.047 36.0204 13.2998 36.0204 13.6115C36.0204 13.9233 35.7676 14.1761 35.4558 14.1761Z" fill="white"/>
<path d="M31.0798 14.1761H29.6562C29.3444 14.1761 29.0917 13.9233 29.0917 13.6115C29.0917 13.2998 29.3444 13.047 29.6562 13.047H31.0798C31.3915 13.047 31.6443 13.2998 31.6443 13.6115C31.6443 13.9233 31.3915 14.1761 31.0798 14.1761Z" fill="white"/>
<path d="M24.6109 40.3476C24.2991 40.3476 24.0464 40.0949 24.0464 39.7831V38.3595C24.0464 38.0478 24.2991 37.795 24.6109 37.795C24.9227 37.795 25.1754 38.0478 25.1754 38.3595V39.7831C25.1754 40.0949 24.9227 40.3476 24.6109 40.3476Z" fill="white"/>
<path d="M24.6109 44.7238C24.2991 44.7238 24.0464 44.4711 24.0464 44.1593V42.7358C24.0464 42.424 24.2991 42.1712 24.6109 42.1712C24.9227 42.1712 25.1754 42.424 25.1754 42.7358V44.1593C25.1754 44.4711 24.9227 44.7238 24.6109 44.7238Z" fill="white"/>
<path d="M27.5108 41.8239H26.0872C25.7755 41.8239 25.5227 41.5712 25.5227 41.2594C25.5227 40.9477 25.7755 40.6949 26.0872 40.6949H27.5108C27.8225 40.6949 28.0753 40.9477 28.0753 41.2594C28.0753 41.5712 27.8225 41.8239 27.5108 41.8239Z" fill="white"/>
<path d="M23.1346 41.8239H21.711C21.3992 41.8239 21.1465 41.5712 21.1465 41.2594C21.1465 40.9477 21.3992 40.6949 21.711 40.6949H23.1346C23.4463 40.6949 23.6991 40.9477 23.6991 41.2594C23.6991 41.5712 23.4463 41.8239 23.1346 41.8239Z" fill="white"/>
<path d="M5.13634 16.0456L5.78598 21.3364L3.29206 21.6426C2.11742 21.7867 1.28216 22.8559 1.42634 24.0306C1.57052 25.2052 2.63971 26.0405 3.81435 25.8963L6.30827 25.5901L6.57416 27.7556C7.20698 32.9092 11.8977 36.5739 17.0512 35.9412C22.2048 35.3084 25.8695 30.6177 25.2368 25.4641L23.799 13.7541L5.13634 16.0456Z" fill="#FFCCAA"/>
<path d="M20.8531 14.1159L22.291 25.8257C22.8621 30.4779 19.9307 34.752 15.564 36.0052C16.0532 36.0224 16.5498 36.0027 17.0512 35.9411C22.2048 35.3083 25.8695 30.6176 25.2368 25.464L23.799 13.754L20.8531 14.1159Z" fill="#F2A077"/>
<path d="M10.8287 23.7229C10.6464 23.7229 10.4628 23.6643 10.308 23.5434C9.93947 23.2555 9.8741 22.7234 10.162 22.3549C10.5766 21.8241 11.1732 21.4867 11.8417 21.4046C12.5103 21.3228 13.1706 21.5057 13.7013 21.9203C14.0698 22.2082 14.1352 22.7404 13.8473 23.1088C13.5593 23.4774 13.0271 23.5427 12.6587 23.2548C12.4845 23.1187 12.2674 23.0585 12.0481 23.0855C11.8286 23.1125 11.6327 23.2232 11.4965 23.3975C11.3295 23.611 11.0804 23.7229 10.8287 23.7229Z" fill="#475D6D"/>
<path d="M19.7839 22.6232C19.6015 22.6232 19.418 22.5645 19.2632 22.4437C18.8946 22.1558 18.8293 21.6236 19.1173 21.2551C19.9733 20.1595 21.5611 19.9646 22.6566 20.8205C23.0251 21.1084 23.0905 21.6405 22.8026 22.009C22.5147 22.3776 21.9824 22.4429 21.614 22.155C21.2543 21.8739 20.7329 21.9379 20.4519 22.2977C20.2847 22.5116 20.0355 22.6232 19.7839 22.6232Z" fill="#475D6D"/>
<path d="M18.2093 30.9265C16.5791 31.1267 15.0953 29.9674 14.8951 28.3372L14.7956 27.5263C14.7653 27.2795 14.9408 27.0548 15.1876 27.0246L20.1973 26.4095C20.4441 26.3792 20.6688 26.5547 20.6991 26.8015L20.7986 27.6123C20.9987 29.2425 19.8395 30.7264 18.2093 30.9265Z" fill="#CE3A4C"/>
<path d="M23.9263 14.7913L6.953 16.8752C6.01941 16.9898 5.35678 17.8393 5.47126 18.7718L5.78615 21.3363L3.29212 21.6424C3.09849 21.6663 2.91468 21.7149 2.7416 21.7862L1.30096 10.0528C1.09716 8.3928 2.27745 6.88204 3.93747 6.67825L16.698 5.1115C19.6084 4.75404 22.2832 3.40304 23.4324 1.16666C30.2309 3.87012 28.4598 14.2345 23.9263 14.7913Z" fill="#475D6D"/>
<path d="M23.4323 1.16666C23.1582 1.70001 22.7966 2.18245 22.3664 2.61362C26.8954 6.3015 25.0518 14.6529 20.9949 15.1511L23.9263 14.7911C28.4598 14.2345 30.2309 3.87012 23.4323 1.16666Z" fill="#2C3F4F"/>
<path d="M51.0974 35.2022L50.486 40.1817L52.8332 40.4699C53.9387 40.6056 54.7249 41.6119 54.5892 42.7175C54.4535 43.823 53.4472 44.6091 52.3416 44.4734L49.9944 44.1853L49.7441 46.2234C49.1485 51.0738 44.7338 54.5229 39.8834 53.9274C35.0329 53.3318 31.5838 48.9171 32.1793 44.0667L33.5325 33.0455L51.0974 35.2022Z" fill="#FFCCAA"/>
<path d="M52.8331 40.47L50.4859 40.1819L51.0974 35.2023L33.5326 33.0456L48.4949 34.8828L47.8835 39.8623L47.3919 43.8658L47.1417 45.9039C46.5752 50.5175 43.08 53.9253 39.1844 53.8108C39.4143 53.8577 39.6466 53.8985 39.8834 53.9276C44.7339 54.5232 49.1486 51.0739 49.7442 46.2235L49.9945 44.1854L52.3417 44.4736C53.4472 44.6094 54.4534 43.8231 54.5892 42.7176C54.7248 41.612 53.9387 40.6057 52.8331 40.47Z" fill="#F2A077"/>
<path d="M45.74 42.4279C45.503 42.4279 45.2686 42.3227 45.1113 42.1215C44.8468 41.783 44.3562 41.7227 44.0176 41.9872C43.6707 42.2581 43.1698 42.1967 42.8989 41.8498C42.628 41.503 42.6895 41.0022 43.0363 40.7312C44.0676 39.9256 45.5619 40.1092 46.3674 41.1402C46.6384 41.487 46.5769 41.988 46.2301 42.2589C46.0845 42.3726 45.9116 42.4279 45.74 42.4279Z" fill="#475D6D"/>
<path d="M37.3115 41.393C37.0746 41.393 36.8401 41.2878 36.6829 41.0867C36.5547 40.9227 36.3705 40.8183 36.1638 40.793C35.9572 40.7675 35.7531 40.8241 35.589 40.9523C35.2421 41.2233 34.7413 41.1618 34.4704 40.8149C34.1994 40.4681 34.261 39.9673 34.6078 39.6963C35.1072 39.3061 35.7288 39.1338 36.358 39.2109C36.9872 39.2882 37.5487 39.6058 37.9389 40.1053C38.2099 40.4522 38.1484 40.953 37.8015 41.224C37.656 41.3379 37.4832 41.393 37.3115 41.393Z" fill="#475D6D"/>
<path d="M38.7935 49.2078C40.3278 49.3962 41.7243 48.3051 41.9127 46.7708L42.0064 46.0076C42.0349 45.7754 41.8698 45.5639 41.6375 45.5354L36.9224 44.9565C36.6901 44.928 36.4787 45.0932 36.4502 45.3254L36.3565 46.0886C36.1682 47.6229 37.2592 49.0194 38.7935 49.2078Z" fill="#CE3A4C"/>
<path d="M52.2258 26.3859L40.9441 25.0007C40.2924 24.9207 39.7054 24.5706 39.3216 24.0379C38.2681 22.576 36.5974 21.5655 34.6347 21.4228C31.3892 21.1868 28.4571 23.5055 27.9359 26.7175C27.3571 30.2846 29.8595 33.5855 33.4127 34.0217L49.3875 35.9832C50.2656 36.0911 50.89 36.8902 50.7821 37.7682L50.4857 40.1818L52.8331 40.47C53.0153 40.4924 53.1883 40.5382 53.3512 40.6053L54.7071 29.562C54.899 27.9997 53.788 26.5778 52.2258 26.3859Z" fill="#BE6351"/>
<path d="M52.2258 26.3859L50.1845 26.1352C51.7468 26.327 52.8577 27.749 52.6659 29.3113L51.3186 40.284L52.8331 40.4699C53.0153 40.4924 53.1883 40.5381 53.3512 40.6052L54.7071 29.5619C54.899 27.9997 53.7881 26.5778 52.2258 26.3859Z" fill="#AA473A"/>
</svg>
