<svg width="48" height="48" viewBox="0 0 48 48" fill="none" xmlns="http://www.w3.org/2000/svg">
<path d="M48 24C48 28.2021 46.9195 32.1525 45.0219 35.5875C44.3433 36.8168 43.5594 37.9795 42.684 39.0642C42.5965 39.1725 42.5081 39.2807 42.4186 39.3869C42.3311 39.492 42.2427 39.5961 42.1532 39.6992C41.7847 40.1249 41.4016 40.5371 41.004 40.9358C40.9155 41.0264 40.8249 41.1149 40.7344 41.2023C40.6428 41.2918 40.5512 41.3803 40.4575 41.4677C39.427 42.4388 38.3111 43.3195 37.1213 44.0971C35.6662 45.0495 34.1017 45.8479 32.4497 46.4693C31.9073 46.6733 31.3546 46.8587 30.7936 47.0241C28.64 47.6591 26.3603 47.9995 24.0006 47.9995C21.6408 47.9995 19.3612 47.6591 17.2075 47.0241C16.6464 46.8597 16.0938 46.6744 15.5504 46.4693C13.8984 45.8479 12.3339 45.0495 10.8787 44.0971C9.68897 43.3195 8.57316 42.4389 7.54256 41.4677C7.44891 41.3802 7.35731 41.2918 7.26572 41.2023C7.17516 41.1148 7.08459 41.0264 6.99609 40.9358C6.5985 40.5371 6.21544 40.125 5.84691 39.6992C5.75738 39.5961 5.66887 39.492 5.5815 39.3869C5.49197 39.2807 5.40347 39.1725 5.31609 39.0642C4.44066 37.9796 3.65691 36.8168 2.97816 35.5875C1.08047 32.1525 0 28.2021 0 24C0 10.7449 10.7454 0.000549316 24.0006 0.000549316C37.2546 0.000549316 48 10.7449 48 24Z" fill="#E8DBC4"/>
<path d="M29.6298 17.3017V12.5935H18.3702V17.3017H17.6988V37.7048L17.7269 37.7495L24.0006 33.3224L30.2732 37.7484L30.3013 37.7037V17.3017H29.6298Z" fill="#F8BB5E"/>
<path d="M30.7936 46.3246V47.0241C28.64 47.659 26.3603 47.9994 24.0006 47.9994C21.6408 47.9994 19.3611 47.659 17.2075 47.0241V46.3246H30.7936Z" fill="#D3CDC1"/>
<path d="M30.7935 44.542H17.2074V46.3241H30.7935V44.542Z" fill="#DDD9CE"/>
<path d="M30.7932 42.8725V44.542H17.2071V42.8725H19.1008H21.328H24.0002H26.6725H28.8997H30.7932Z" fill="#E9E4D8"/>
<path d="M32.1186 16.7854H31.5367V34.8537L31.5128 34.8912L33.1689 35.9956V38.0285L31.5232 36.9313L31.4993 36.9656V41.4249H32.4497V44.097H37.1213C38.3111 43.3194 39.427 42.4388 40.4575 41.4676C40.5512 41.3801 40.6428 41.2917 40.7344 41.2022H40.0806V38.7539C40.0806 38.1377 40.5792 37.638 41.1954 37.638H41.3037C41.9199 37.638 42.4185 38.1376 42.4185 38.7539V39.3868C42.508 39.2806 42.5965 39.1724 42.6839 39.0641C43.5593 37.9795 44.3431 36.8167 45.0218 35.5874V22.1846L32.1186 16.7854ZM42.4186 34.4092H40.0806V31.961C40.0806 31.3447 40.5792 30.8451 41.1954 30.8451H41.3037C41.9199 30.8451 42.4185 31.3447 42.4185 31.961V34.4092H42.4186ZM42.4186 27.6151H40.0806V25.1678C40.0806 24.5516 40.5792 24.0519 41.1954 24.0519H41.3037C41.9199 24.0519 42.4185 24.5516 42.4185 25.1678V27.6151H42.4186ZM37.4002 41.2023H35.0613V38.754C35.0613 38.1378 35.562 37.6381 36.1772 37.6381H36.2855C36.9017 37.6381 37.4002 38.1377 37.4002 38.754V41.2023ZM37.4002 34.4092H35.0613V31.961C35.0613 31.3447 35.562 30.8451 36.1772 30.8451H36.2855C36.9017 30.8451 37.4002 31.3447 37.4002 31.961V34.4092ZM37.4002 27.6151H35.0613V25.1678C35.0613 24.5516 35.562 24.0519 36.1772 24.0519H36.2855C36.9017 24.0519 37.4002 24.5516 37.4002 25.1678V27.6151Z" fill="#F8BB5E"/>
<path d="M45.022 22.1852V23.3184L30.8721 17.9213L30.9554 15.6221L45.022 22.1852Z" fill="#DCA050"/>
<path d="M46.6736 21.0286V22.815L45.0221 22.1852L32.1188 17.2635V16.7855V15.4781L46.6736 21.0286Z" fill="#F26767"/>
<path d="M37.1214 44.0971C35.6662 45.0495 34.1017 45.848 32.4497 46.4694V44.0971H37.1214Z" fill="#FCBA6B"/>
<path d="M42.4186 38.754V39.3869C42.3312 39.492 42.2428 39.5962 42.1532 39.6992C41.7847 40.1249 41.4017 40.5371 41.004 40.9358C40.9155 41.0264 40.825 41.1149 40.7344 41.2023H40.0807V38.754C40.0807 38.1378 40.5793 37.6381 41.1955 37.6381H41.3038C41.92 37.6382 42.4186 38.1378 42.4186 38.754Z" fill="#5C5E70"/>
<path d="M42.4189 31.9607V34.4089H40.0801V31.9607C40.0801 31.3446 40.5793 30.8454 41.1954 30.8454H41.3037C41.9198 30.8454 42.4189 31.3446 42.4189 31.9607Z" fill="#5C5E70"/>
<path d="M42.4189 25.1675V27.6156H40.0801V25.1674C40.0801 24.5513 40.5793 24.0521 41.1954 24.0521H41.3037C41.9198 24.0523 42.4189 24.5514 42.4189 25.1675Z" fill="#5C5E70"/>
<path d="M37.4005 38.7537V41.2019H35.0618V38.7537C35.0618 38.1377 35.562 37.6385 36.177 37.6385H36.2854C36.9014 37.6386 37.4005 38.1377 37.4005 38.7537Z" fill="#5C5E70"/>
<path d="M37.4005 31.9607V34.4089H35.0618V31.9607C35.0618 31.3446 35.562 30.8454 36.177 30.8454H36.2854C36.9014 30.8454 37.4005 31.3446 37.4005 31.9607Z" fill="#5C5E70"/>
<path d="M25.3266 12.5936C25.3329 12.6426 25.336 12.6925 25.336 12.7435C25.336 13.4815 24.7385 14.079 24.0005 14.079C23.2625 14.079 22.664 13.4815 22.664 12.7435C22.664 12.6925 22.6671 12.6426 22.6734 12.5936H18.3703V15.7445H29.6299V12.5936H25.3266Z" fill="#DCA050"/>
<path d="M37.4005 25.1675V27.6156H35.0618V25.1674C35.0618 24.5513 35.562 24.0521 36.177 24.0521H36.2854C36.9014 24.0523 37.4005 24.5514 37.4005 25.1675Z" fill="#5C5E70"/>
<path d="M24.2129 7.16408L24.0005 7.00171L23.7882 7.16408L14.245 14.4703H33.755L24.2129 7.16408ZM24.0005 10.1329C24.7385 10.1329 25.336 10.7303 25.336 11.4683C25.336 11.9409 25.0914 12.3562 24.7208 12.5936C24.5136 12.7268 24.2659 12.8049 24.0005 12.8049C23.7351 12.8049 23.4873 12.7268 23.2792 12.5936C22.9096 12.3562 22.664 11.9409 22.664 11.4683C22.6639 10.7303 23.2624 10.1329 24.0005 10.1329Z" fill="#F26767"/>
<path d="M32.4497 41.425V46.4693C31.9074 46.6733 31.3546 46.8587 30.7936 47.0241V41.425H32.4497Z" fill="#D3CDC1"/>
<path d="M32.1188 14.4701V16.7855H31.5368V16.7844H29.454V16.7855H28.873V14.4701H32.1188Z" fill="#D3CDC1"/>
<path d="M31.5368 16.7855V34.8537L31.5123 34.8909L29.4285 33.5017L29.454 33.4644V16.7855H31.5368Z" fill="#E9E4D8"/>
<path d="M31.523 36.9311L31.4996 36.9662V41.4248H30.7932V42.8725H28.8996V37.75H19.1008V42.8725H17.207V41.4248H16.5007V36.9662L16.4775 36.9311L24.0002 31.916L31.523 36.9311Z" fill="#FCBA6B"/>
<path d="M28.8997 37.75H26.6725V42.8724H28.8997V37.75Z" fill="#5C5E70"/>
<path d="M26.6728 37.75H24.0005V42.8724H26.6728V37.75Z" fill="#5C5E70"/>
<path d="M25.1695 24.7331V27.1813H22.8307V24.7331C22.8307 24.1171 23.33 23.6179 23.946 23.6179H24.0544C24.6703 23.6179 25.1695 24.1171 25.1695 24.7331Z" fill="#4D4D4D"/>
<path d="M31.523 36.9311L31.4996 36.9662V38.1185L24.0002 33.1193L16.5007 38.1185V36.9662L16.4775 36.9311L24.0002 31.916L31.523 36.9311Z" fill="#DCA050"/>
<path d="M25.1695 18.709V21.1572H22.8307V18.709C22.8307 18.093 23.33 17.5938 23.946 17.5938H24.0544C24.6703 17.5938 25.1695 18.093 25.1695 18.709Z" fill="#4D4D4D"/>
<path d="M24.0006 12.805C24.7385 12.805 25.3367 12.2068 25.3367 11.4689C25.3367 10.731 24.7385 10.1328 24.0006 10.1328C23.2626 10.1328 22.6644 10.731 22.6644 11.4689C22.6644 12.2068 23.2626 12.805 24.0006 12.805Z" fill="#5C5E70"/>
<path d="M24.0007 37.75H21.3285V42.8724H24.0007V37.75Z" fill="#5C5E70"/>
<path d="M21.328 37.75H19.1009V42.8724H21.328V37.75Z" fill="#5C5E70"/>
<path d="M17.2074 41.425V47.0242C16.6463 46.8597 16.0937 46.6744 15.5503 46.4694V41.425H17.2074Z" fill="#D3CDC1"/>
<path d="M16.4778 36.9314L14.8311 38.0286V35.9957L16.4768 34.8985L16.4882 34.8912L16.4622 34.8537V16.7854H15.8813L2.97809 22.1846V35.5875C3.65674 36.8168 4.44059 37.9795 5.31603 39.0642C5.40349 39.1725 5.4919 39.2807 5.58143 39.3869V38.754C5.58143 38.1378 6.08112 37.6381 6.69621 37.6381H6.8045C7.41968 37.6381 7.9204 38.1377 7.9204 38.754V41.2023H7.26565C7.35724 41.2918 7.44884 41.3803 7.5425 41.4677C8.573 42.4388 9.6889 43.3195 10.8787 44.0971H15.5503V41.425H16.5007V36.9657L16.4778 36.9314ZM12.9376 41.2023H10.5997V38.754C10.5997 38.1378 11.0994 37.6381 11.7145 37.6381H11.8227C12.4379 37.6381 12.9375 38.1377 12.9375 38.754V41.2023H12.9376ZM12.9376 34.4092H10.5997V31.961C10.5997 31.3447 11.0994 30.8451 11.7145 30.8451H11.8227C12.4379 30.8451 12.9375 31.3447 12.9375 31.961V34.4092H12.9376ZM12.9376 27.6151H10.5997V25.1678C10.5997 24.5516 11.0994 24.0519 11.7145 24.0519H11.8227C12.4379 24.0519 12.9375 24.5516 12.9375 25.1678V27.6151H12.9376ZM7.9204 34.4092H5.58143V31.961C5.58143 31.3447 6.08112 30.8451 6.69621 30.8451H6.8045C7.41968 30.8451 7.9204 31.3447 7.9204 31.961V34.4092ZM7.9204 27.6151H5.58143V25.1678C5.58143 24.5516 6.08112 24.0519 6.69621 24.0519H6.8045C7.41968 24.0519 7.9204 24.5516 7.9204 25.1678C7.9204 25.1679 7.9204 27.6151 7.9204 27.6151Z" fill="#F8BB5E"/>
<path d="M16.4626 16.7855L17.2228 17.8856L2.97827 23.3184V22.1852L15.8816 16.7855L17.911 16.4881L16.4626 16.7855Z" fill="#DCA050"/>
<path d="M15.8826 16.7855V17.2635L2.97822 22.1852L1.32672 22.815V21.0286L15.8816 15.4781V16.7855H15.8826Z" fill="#F26767"/>
<path d="M15.5503 44.0971V46.4694C13.8983 45.8479 12.3338 45.0495 10.8787 44.0971H15.5503Z" fill="#FCBA6B"/>
<path d="M12.9375 38.7537V41.2019H10.5999V38.7537C10.5999 38.1377 11.0991 37.6385 11.7151 37.6385H11.8224C12.4383 37.6386 12.9375 38.1377 12.9375 38.7537Z" fill="#5C5E70"/>
<path d="M12.9375 31.9607V34.4089H10.5999V31.9607C10.5999 31.3446 11.0991 30.8454 11.7151 30.8454H11.8224C12.4383 30.8454 12.9375 31.3446 12.9375 31.9607Z" fill="#5C5E70"/>
<path d="M19.1274 14.4701V16.7855H18.5464V16.7844H16.4626V16.7855H15.8827V15.4781H15.8817V14.4701H19.1274Z" fill="#D3CDC1"/>
<path d="M18.5464 33.4656L18.5708 33.5028L16.4881 34.8909L16.4626 34.8537V16.7855H18.5464V33.4656Z" fill="#E9E4D8"/>
<path d="M17.1243 35.6057H17.132L16.4707 34.8909L16.4626 34.8537V16.7855H17.1243V35.6057Z" fill="#D3CDC1"/>
<path d="M30.0902 35.6057H30.098L29.4367 34.8909L29.4285 34.8537V16.7855H30.0902V35.6057Z" fill="#D3CDC1"/>
<path d="M12.9375 25.1675V27.6156H10.5999V25.1674C10.5999 24.5513 11.0991 24.0521 11.7151 24.0521H11.8224C12.4383 24.0523 12.9375 24.5514 12.9375 25.1675Z" fill="#5C5E70"/>
<path d="M7.92039 38.754V41.2023H7.26564C7.17507 41.1148 7.08451 41.0264 6.99601 40.9358C6.59842 40.5371 6.21536 40.125 5.84683 39.6992C5.7573 39.5962 5.6688 39.492 5.58142 39.3869V38.754C5.58142 38.1378 6.08111 37.6381 6.6962 37.6381H6.80448C7.41967 37.6382 7.92039 38.1378 7.92039 38.754Z" fill="#5C5E70"/>
<path d="M7.92029 31.9607V34.4089H5.58151V31.9607C5.58151 31.3446 6.08073 30.8454 6.69667 30.8454H6.80504C7.42004 30.8454 7.92029 31.3446 7.92029 31.9607Z" fill="#5C5E70"/>
<path d="M7.92121 25.1675V27.6156H5.58243V25.1674C5.58243 24.5513 6.08165 24.0521 6.69758 24.0521H6.80596C7.42096 24.0523 7.92121 24.5514 7.92121 25.1675Z" fill="#5C5E70"/>
<path d="M24.0547 17.3287H23.9464C23.1844 17.3287 22.5651 17.948 22.5651 18.709V21.4227H25.4348V18.709C25.4349 17.948 24.8155 17.3287 24.0547 17.3287ZM24.904 20.8918H23.096V18.709C23.096 18.2406 23.478 17.8596 23.9464 17.8596H24.0547C24.523 17.8596 24.904 18.2406 24.904 18.709V20.8918Z" fill="#E28D40"/>
<path d="M24.0547 23.3525H23.9464C23.1844 23.3525 22.5651 23.9719 22.5651 24.7328V27.4465H25.4348V24.7328C25.4349 23.9719 24.8155 23.3525 24.0547 23.3525ZM24.904 26.9156H23.096V24.7328C23.096 24.2644 23.478 23.8834 23.9464 23.8834H24.0547C24.523 23.8834 24.904 24.2644 24.904 24.7328V26.9156Z" fill="#E28D40"/>
<path d="M6.80448 23.7866H6.6962C5.93532 23.7866 5.31592 24.4059 5.31592 25.1679V27.8816H8.1857V25.1679C8.18579 24.4059 7.56648 23.7866 6.80448 23.7866ZM7.65498 27.3497H5.84682V25.1679C5.84682 24.6996 6.22782 24.3175 6.6962 24.3175H6.80448C7.27398 24.3175 7.65488 24.6996 7.65488 25.1679V27.3497H7.65498Z" fill="#E28D40"/>
<path d="M11.8228 23.7866H11.7156C10.9536 23.7866 10.3343 24.4059 10.3343 25.1679V27.8816H13.203V25.1679C13.203 24.4059 12.5837 23.7866 11.8228 23.7866ZM12.6722 27.3497H10.8652V25.1679C10.8652 24.6996 11.2462 24.3175 11.7156 24.3175H11.8228C12.2912 24.3175 12.6722 24.6996 12.6722 25.1679V27.3497Z" fill="#E28D40"/>
<path d="M6.80448 30.5797H6.6962C5.93532 30.5797 5.31592 31.199 5.31592 31.961V34.6746H8.1857V31.961C8.18579 31.199 7.56648 30.5797 6.80448 30.5797ZM7.65498 34.1427H5.84682V31.961C5.84682 31.4926 6.22782 31.1106 6.6962 31.1106H6.80448C7.27398 31.1106 7.65488 31.4926 7.65488 31.961V34.1427H7.65498Z" fill="#E28D40"/>
<path d="M11.8228 30.5797H11.7156C10.9536 30.5797 10.3343 31.199 10.3343 31.961V34.6746H13.203V31.961C13.203 31.199 12.5837 30.5797 11.8228 30.5797ZM12.6722 34.1427H10.8652V31.961C10.8652 31.4926 11.2462 31.1106 11.7156 31.1106H11.8228C12.2912 31.1106 12.6722 31.4926 12.6722 31.961V34.1427Z" fill="#E28D40"/>
<path d="M6.80448 37.3727H6.6962C5.93532 37.3727 5.31592 37.992 5.31592 38.754V39.0642C5.40339 39.1725 5.49179 39.2807 5.58132 39.3869C5.66879 39.492 5.7572 39.5961 5.84673 39.6992V38.754C5.84673 38.2856 6.22773 37.9036 6.6961 37.9036H6.80438C7.27388 37.9036 7.65479 38.2856 7.65479 38.754V40.9357H6.99592C7.08442 41.0263 7.17498 41.1148 7.26554 41.2022C7.35713 41.2917 7.44873 41.3802 7.54238 41.4676H8.1857V38.7539C8.18579 37.9921 7.56648 37.3727 6.80448 37.3727Z" fill="#E28D40"/>
<path d="M11.8228 37.3727H11.7156C10.9536 37.3727 10.3343 37.992 10.3343 38.754V41.4677H13.203V38.754C13.203 37.9921 12.5837 37.3727 11.8228 37.3727ZM12.6722 40.9357H10.8652V38.754C10.8652 38.2856 11.2462 37.9036 11.7156 37.9036H11.8228C12.2912 37.9036 12.6722 38.2856 12.6722 38.754V40.9357Z" fill="#E28D40"/>
<path d="M18.8884 37.5376V42.8724H19.3132V37.9623H21.1156V42.8724H21.5404V37.9623H23.7877V42.8724H24.2126V37.9623H26.46V42.8724H26.8848V37.9623H28.6871V42.8724H29.112V37.5376H18.8884Z" fill="#E28D40"/>
<path d="M41.3037 23.7866H41.1955C40.4346 23.7866 39.8141 24.4059 39.8141 25.1679V27.8816H42.6839V25.1679C42.684 24.4059 42.0647 23.7866 41.3037 23.7866ZM42.1532 27.3497H40.3462V25.1679C40.3462 24.6996 40.7272 24.3175 41.1956 24.3175H41.3038C41.7722 24.3175 42.1532 24.6996 42.1532 25.1679V27.3497Z" fill="#E28D40"/>
<path d="M36.2855 23.7866H36.1772C35.4152 23.7866 34.7959 24.4059 34.7959 25.1679V27.8816H37.6657V25.1679C37.6658 24.4059 37.0464 23.7866 36.2855 23.7866ZM37.1349 27.3497H35.3278V25.1679C35.3278 24.6996 35.7088 24.3175 36.1772 24.3175H36.2855C36.7539 24.3175 37.1349 24.6996 37.1349 25.1679V27.3497Z" fill="#E28D40"/>
<path d="M41.3037 30.5797H41.1955C40.4346 30.5797 39.8141 31.199 39.8141 31.961V34.6746H42.6839V31.961C42.684 31.199 42.0647 30.5797 41.3037 30.5797ZM42.1532 34.1427H40.3462V31.961C40.3462 31.4926 40.7272 31.1106 41.1956 31.1106H41.3038C41.7722 31.1106 42.1532 31.4926 42.1532 31.961V34.1427Z" fill="#E28D40"/>
<path d="M36.2855 30.5797H36.1772C35.4152 30.5797 34.7959 31.199 34.7959 31.961V34.6746H37.6657V31.961C37.6658 31.199 37.0464 30.5797 36.2855 30.5797ZM37.1349 34.1427H35.3278V31.961C35.3278 31.4926 35.7088 31.1106 36.1772 31.1106H36.2855C36.7539 31.1106 37.1349 31.4926 37.1349 31.961V34.1427Z" fill="#E28D40"/>
<path d="M41.3037 37.3727H41.1955C40.4346 37.3727 39.8141 37.992 39.8141 38.754V41.4677H40.4575C40.5511 41.3802 40.6427 41.2918 40.7343 41.2023C40.8249 41.1148 40.9154 41.0264 41.0039 40.9358H40.3461V38.7541C40.3461 38.2857 40.7271 37.9037 41.1955 37.9037H41.3037C41.7721 37.9037 42.1531 38.2857 42.1531 38.7541V39.6993C42.2426 39.5962 42.3311 39.4921 42.4185 39.387C42.5081 39.2808 42.5966 39.1726 42.6839 39.0643V38.7541C42.684 37.9921 42.0647 37.3727 41.3037 37.3727Z" fill="#E28D40"/>
<path d="M36.2855 37.3727H36.1772C35.4152 37.3727 34.7959 37.992 34.7959 38.754V41.4677H37.6657V38.754C37.6658 37.9921 37.0464 37.3727 36.2855 37.3727ZM37.1349 40.9357H35.3278V38.754C35.3278 38.2856 35.7088 37.9036 36.1772 37.9036H36.2855C36.7539 37.9036 37.1349 38.2856 37.1349 38.754V40.9357Z" fill="#E28D40"/>
<path d="M24.0006 9.86737C23.1168 9.86737 22.3986 10.5856 22.3986 11.4683C22.3986 11.9065 22.5756 12.3042 22.8607 12.5936C23.1522 12.8882 23.5551 13.0703 24.0006 13.0703C24.445 13.0703 24.8489 12.8882 25.1393 12.5936C25.4256 12.3042 25.6015 11.9066 25.6015 11.4683C25.6014 10.5857 24.8832 9.86737 24.0006 9.86737ZM22.9294 11.4683C22.9294 10.8782 23.4103 10.3983 24.0005 10.3983C24.5907 10.3983 25.0705 10.8782 25.0705 11.4683C25.0705 12.0585 24.5906 12.5394 24.0005 12.5394C23.4103 12.5394 22.9294 12.0586 22.9294 11.4683Z" fill="#C44545"/>
<path d="M33.1691 35.9955V38.0283L31.5229 36.9311L24.0002 31.916L16.4775 36.9311L14.8312 38.0283V35.9955L16.4881 34.8909L18.5708 33.5028L24.0002 29.8832L29.4285 33.5017L31.5123 34.8909L33.1691 35.9955Z" fill="#F26767"/>
<path d="M15.8813 14.4704V15.249H19.127V14.4704H15.8813ZM28.873 14.4704V15.249H32.1187V14.4704H28.873Z" fill="#C6C1B6"/>
</svg>
