<svg width="32" height="32" viewBox="0 0 32 32" fill="none" xmlns="http://www.w3.org/2000/svg">
<path fill-rule="evenodd" clip-rule="evenodd" d="M0 16C0 7.16479 7.16479 0 16 0C24.8352 0 32 7.16479 32 16C32 24.8352 24.8352 32 16 32C7.16479 32 0 24.8352 0 16ZM25.5859 20.8259C25.9976 19.2612 25.9976 16.0164 25.9976 16.0164C25.9976 16.0164 26.0142 12.7554 25.5859 11.1907C25.3552 10.3342 24.6799 9.65869 23.8235 9.42822C22.2588 9 16 9 16 9C16 9 9.74121 9 8.17651 9.41187C7.33643 9.64233 6.64453 10.3342 6.41406 11.1907C6.0022 12.7554 6.0022 16 6.0022 16C6.0022 16 6.0022 19.2612 6.41406 20.8093C6.64478 21.6658 7.32007 22.3413 8.17651 22.5718C9.75757 23 16 23 16 23C16 23 22.2588 23 23.8235 22.5881C24.6799 22.3577 25.3552 21.6824 25.5859 20.8259ZM19.2117 16L14.0071 18.9976V13.0024L19.2117 16Z" fill="#7D8BF7"/>
</svg>
