<?xml version="1.0" encoding="UTF-8"?>
<svg width="500px" height="500px" viewBox="0 0 500 500" version="1.1" xmlns="http://www.w3.org/2000/svg" xmlns:xlink="http://www.w3.org/1999/xlink">
    <!-- Generator: Sketch 51 (57462) - http://www.bohemiancoding.com/sketch -->
    <title>body-2</title>
    <desc>Created with Sketch.</desc>
    <defs></defs>
    <g id="body-2" stroke="none" stroke-width="1" fill="none" fill-rule="evenodd">
        <rect id="Bounds" x="2.27373675e-13" y="0" width="500" height="500"></rect>
        <g transform="translate(11.000000, 59.000000)" fill="#FF7F40" fill-rule="nonzero" id="Shape">
            <path d="M18.45,11.32 C27.2,4.12 38.71,-0.35 50.15,1.31 C64.33,3.2 76.32,11.97 86.76,21.21 C92.52,26.1 97.15,32.43 104,35.93 C114.96,41.96 128.1,41.89 140.11,39.78 C158.82,36.28 176.36,28.22 192.65,18.57 C217.32,4.6 248.69,2.57 274.64,14.25 C282.11,17.5 288.75,22.28 295.97,26 C310.42,33.67 325.85,39.95 342.1,42.42 C353.1,44.03 364.96,43.4 374.82,37.79 C380.9,34.47 385.16,28.85 390.31,24.37 C399.92,15.67 410.74,7.52 423.56,4.4 C433.7,1.87 444.71,3.89 453.53,9.42 C460.58,13.84 467.06,19.44 471.74,26.36 C479.44,37.82 479.97,53.43 473.5,65.57 C467.44,77.73 455.3,86.23 442.11,88.93 C425.99,92.35 409.23,88.35 394.58,81.44 C386.09,77.19 376.69,73.11 366.97,74.7 C359.9,75.67 353.94,81.03 351.73,87.74 C348.38,97.44 350.05,108.09 353.1,117.65 C364.42,148.31 372.23,180.14 378.39,212.2 C387.29,259.34 392.45,307.11 395.68,354.94 C396.52,368.28 397.76,381.67 396.55,395.03 C395.26,411.28 390.66,427.58 381.17,441 L114.11,441 C100.97,422.39 94.41,399.65 93.73,377 C91.92,332.65 93.56,288.18 97.94,244.03 C102.38,202.26 109.32,160.53 122.45,120.54 C125.36,112.31 128.08,103.83 128.12,95.01 C128.25,88.12 126.57,80.53 121.14,75.84 C115.65,71.11 107.76,70.83 101,72.33 C91.89,74.13 84.09,79.44 75.43,82.51 C64.21,86.72 52.02,88.94 40.06,87.35 C28.02,85.79 16.39,79.79 8.87,70.14 C1.15,60.43 -1.97,47.07 1.34,35.04 C3.81,25.29 10.67,17.37 18.45,11.32 Z"></path>
        </g>
    </g>
</svg>