<?xml version="1.0" encoding="UTF-8"?>
<svg width="500px" height="500px" viewBox="0 0 500 500" version="1.1" xmlns="http://www.w3.org/2000/svg" xmlns:xlink="http://www.w3.org/1999/xlink">
    <!-- Generator: Sketch 51 (57462) - http://www.bohemiancoding.com/sketch -->
    <title>body-1</title>
    <desc>Created with Sketch.</desc>
    <defs></defs>
    <g id="body-1" stroke="none" stroke-width="1" fill="none" fill-rule="evenodd">
        <rect id="Bounds" x="2.27373675e-13" y="0" width="500" height="500"></rect>
        <g transform="translate(100.000000, 62.000000)" fill="#FF7F40" fill-rule="nonzero" id="Shape">
            <path d="M97.02,2.55 C129.23,-1.04 161.85,-0.77 194.05,2.93 C200.07,3.72 206.18,4.19 212.03,5.95 C230.45,11.18 246.63,22.58 259.63,36.44 C275.69,53.79 287.7,75.74 290.22,99.5 C297.84,157.01 300.24,215.06 301,273.02 C300.81,298.64 288.97,322.66 273.75,342.69 C262.73,356.98 249.45,369.72 233.79,378.82 C229.47,381.27 226.34,385.91 226.32,390.96 C226.39,406.64 226.46,422.32 226.39,438 L212.83,438 C212.81,425.96 212.84,413.93 212.82,401.89 C212.92,398.04 211.13,394.09 207.83,391.99 C203.79,389.34 198.67,389.35 194.04,389.9 C167.6,393.45 140.7,393.54 114.23,390.27 C110.06,389.79 105.56,389.64 101.75,391.72 C96.97,394.22 94.41,399.76 94.52,405.03 C94.52,416.02 94.54,427.01 94.52,438 L80.94,438 C80.92,423.31 80.94,408.63 81.04,393.95 C81.09,388.52 77.59,383.44 72.75,381.15 C53.83,372.35 38.39,357.5 25.88,341.03 C14.65,325.95 5.67,308.84 1.81,290.33 C-0.97,278.05 0.27,265.41 0.33,252.96 C1.55,198.95 4.23,144.83 12.66,91.41 C17.17,68.69 29.3,47.88 45.3,31.32 C59.26,17.1 76.99,5.49 97.02,2.55 Z"></path>
        </g>
    </g>
</svg>