<?xml version="1.0" encoding="UTF-8"?>
<svg width="500px" height="500px" viewBox="0 0 500 500" version="1.1" xmlns="http://www.w3.org/2000/svg" xmlns:xlink="http://www.w3.org/1999/xlink">
    <!-- Generator: Sketch 51 (57462) - http://www.bohemiancoding.com/sketch -->
    <title>body-5</title>
    <desc>Created with Sketch.</desc>
    <defs></defs>
    <g id="body-5" stroke="none" stroke-width="1" fill="none" fill-rule="evenodd">
        <rect id="Bounds" x="2.27373675e-13" y="0" width="500" height="500"></rect>
        <g transform="translate(21.000000, 50.000000)" fill="#FF7F40" fill-rule="nonzero" id="Shape">
            <path d="M184.058635,5.39895517 C202.908635,0.458955172 222.568635,-0.661044828 241.968635,0.328955172 C263.718635,1.21895517 285.588635,5.80895517 305.058635,15.7989552 C322.308635,24.5389552 337.248635,37.5389552 348.898635,52.9289552 C365.918635,75.3489552 376.458635,101.958955 383.758635,128.948955 C392.398635,161.328955 396.628635,194.718955 399.208635,228.088955 C401.028635,252.348955 402.008635,276.668955 402.228635,300.988955 C402.318635,301.298955 402.478635,301.918955 402.558635,302.228955 C413.028635,310.088955 425.548635,314.978955 438.318635,317.588955 C440.028635,315.198955 441.498635,312.618955 443.538635,310.488955 C445.998635,308.108955 450.558635,310.678955 449.948635,314.008955 C449.408635,316.328955 447.618635,318.078955 446.368635,320.048955 C446.858635,321.258955 447.358635,322.488955 447.818635,323.728955 C450.498635,323.778955 453.258635,323.418955 455.888635,324.068955 C458.648635,325.258955 458.628635,329.658955 455.838635,330.808955 C452.898635,331.428955 449.858635,331.048955 446.888635,331.108955 C446.568635,332.128955 446.258635,333.148955 445.958635,334.178955 C448.988635,335.098955 452.208635,335.568955 455.058635,337.018955 C458.138635,339.148955 456.748635,344.498955 452.998635,344.838955 C449.328635,344.568955 445.888635,343.128955 442.368635,342.188955 C441.648635,343.508955 440.928635,344.828955 440.228635,346.148955 C442.748635,347.498955 445.628635,348.378955 447.758635,350.348955 C449.878635,352.918955 447.468635,357.188955 444.188635,356.728955 C441.158635,355.868955 438.478635,354.128955 435.658635,352.798955 C434.698635,353.868955 433.758635,354.948955 432.808635,356.028955 C434.248635,358.018955 435.858635,359.908955 437.008635,362.088955 C438.148635,364.748955 434.578635,367.508955 432.318635,365.688955 C430.468635,363.888955 429.158635,361.638955 427.658635,359.578955 C417.818635,357.278955 408.798635,352.538955 399.528635,348.658955 C397.238635,366.718955 393.578635,384.768955 386.488635,401.608955 C380.728635,415.118955 372.528635,428.088955 360.368635,436.698955 C360.478635,441.128955 360.558635,445.558955 360.638635,449.988955 L100.738635,449.988955 C100.838635,445.368955 100.948635,440.758955 101.038635,436.148955 C89.6086355,427.838955 81.6786355,415.648955 76.0886355,402.858955 C68.3886355,385.138955 64.5886355,365.998955 62.2286355,346.908955 C51.6886355,351.368955 41.4386355,356.798955 30.2786355,359.548955 C28.7786355,361.628955 27.4586355,363.868955 25.6086355,365.668955 C23.3686355,367.428955 19.7586355,364.698955 20.9486355,362.048955 C22.0886355,359.858955 23.6986355,357.978955 25.1386355,355.998955 C24.1986355,354.918955 23.2486355,353.828955 22.3086355,352.758955 C19.5086355,354.078955 16.8486355,355.778955 13.8686355,356.678955 C10.5586355,357.248955 8.04863547,352.948955 10.1686355,350.328955 C12.2986355,348.348955 15.1886355,347.478955 17.7086355,346.128955 C16.9886355,344.798955 16.2786355,343.478955 15.5686355,342.158955 C12.0286355,343.058955 8.56863547,344.638955 4.87863547,344.768955 C1.14863547,344.458955 -0.161364532,339.008955 2.91863547,336.958955 C5.77863547,335.548955 8.97863547,335.038955 12.0186355,334.118955 C11.7086355,333.108955 11.3886355,332.098955 11.0786355,331.088955 C8.10863547,331.058955 5.09863547,331.408955 2.16863547,330.808955 C-0.641364532,329.688955 -0.751364532,325.288955 2.01863547,324.058955 C5.05863547,323.258955 8.25863547,323.748955 11.3686355,323.708955 C11.4886355,322.538955 11.6086355,321.368955 11.7386355,320.198955 C10.4186355,318.178955 8.55863547,316.358955 7.99863547,313.948955 C7.38863547,310.568955 11.9986355,308.068955 14.4586355,310.488955 C16.4686355,312.618955 17.9286355,315.188955 19.6386355,317.558955 C34.2386355,314.668955 48.2786355,308.458955 59.7586355,298.898955 C59.9586355,276.888955 60.8786355,254.898955 62.3886355,232.948955 C65.4286355,191.418955 70.6886355,149.648955 83.8986355,109.998955 C93.9286355,80.2189552 109.458635,51.2189552 133.928635,30.8589552 C148.418635,18.6889552 165.778635,10.1289552 184.058635,5.39895517 Z"></path>
        </g>
    </g>
</svg>