<?xml version="1.0" encoding="UTF-8"?>
<svg width="500px" height="500px" viewBox="0 0 500 500" version="1.1" xmlns="http://www.w3.org/2000/svg" xmlns:xlink="http://www.w3.org/1999/xlink">
    <!-- Generator: Sketch 51 (57462) - http://www.bohemiancoding.com/sketch -->
    <title>body-3</title>
    <desc>Created with Sketch.</desc>
    <defs></defs>
    <g id="body-3" stroke="none" stroke-width="1" fill="none" fill-rule="evenodd">
        <rect id="Bounds" x="2.27373675e-13" y="0" width="500" height="500"></rect>
        <g transform="translate(110.000000, 46.000000)" fill="#FF7F40" fill-rule="nonzero" id="Shape">
            <path d="M83.12,12.03 C109.39,0.23 139.37,-2.92 167.57,2.79 C199.98,9.23 229.75,27.84 249.95,53.97 C269.04,78.29 279.57,109.11 279.53,140.01 C279.52,205.02 279.55,270.03 279.51,335.04 C279.43,363.8 270.15,392.39 253.42,415.77 C262.51,427.33 270.57,439.73 276.97,452.99 L275.83,453 L220.17,453 C219.26,452.26 218.41,451.47 217.56,450.67 C216.32,451.45 215.09,452.26 213.82,453 L65.04,453 C64.93,452.93 64.73,452.8 64.62,452.74 L64.72,453 L7.79,453 C13.33,440.7 20.09,428.98 27.75,417.88 C15.31,401.08 6.59,381.52 2.67,360.97 C-0.78,344.54 0.27,327.69 0.12,311.02 C0.12,253.68 0.12,196.33 0.12,138.99 C0.25,116.82 5.78,94.71 16.09,75.08 C30.49,47.31 54.56,24.75 83.12,12.03 Z"></path>
        </g>
    </g>
</svg>