<?xml version="1.0" encoding="UTF-8"?>
<svg width="500px" height="500px" viewBox="0 0 500 500" version="1.1" xmlns="http://www.w3.org/2000/svg" xmlns:xlink="http://www.w3.org/1999/xlink">
    <!-- Generator: Sketch 51 (57462) - http://www.bohemiancoding.com/sketch -->
    <title>body-4</title>
    <desc>Created with Sketch.</desc>
    <defs></defs>
    <g id="body-4" stroke="none" stroke-width="1" fill="none" fill-rule="evenodd">
        <rect id="Bounds" x="2.27373675e-13" y="0" width="500" height="500"></rect>
        <g transform="translate(23.000000, 34.000000)" fill="#FF7F40" fill-rule="nonzero" id="Shape">
            <path d="M216.83,3.81 C220.2,0.06 225.66,1.08 230.15,1.02 C234.56,0.91 238.76,4.47 239.11,8.92 C239.39,12.67 239.17,16.44 239.24,20.2 C242.15,20.54 245.06,20.87 247.97,21.21 C249.07,16.82 250.03,11.8 254.08,9.12 C259.71,4.7 268.84,6.67 272.22,12.97 C274.76,17.04 273.79,22.03 272.39,26.31 C275.48,27.21 278.56,28.15 281.62,29.13 C282.52,25.15 283.9,20.87 287.56,18.57 C293.63,14.08 303.24,16.86 306.04,23.85 C308.33,28.69 306.07,33.87 304.86,38.66 C307.06,39.77 309.26,40.88 311.45,42.01 C314.81,37.32 317.06,30.76 323.24,29.12 C330.37,26.73 338.32,32.55 338.78,39.92 C339.57,45.77 335.21,50.28 332.48,54.94 C334.7,56.53 336.92,58.15 339.12,59.78 C342.95,55.26 345.72,48.7 352.16,47.5 C359.23,45.81 366.57,51.78 366.75,58.95 C367.34,65.86 361.44,70.52 357.98,75.75 C359.5,77.28 361.04,78.8 362.58,80.31 C367,76.81 370.81,71.35 377,71.26 C384.66,70.66 391.02,78.63 389.32,85.99 C388.43,91.78 383.05,94.88 379.16,98.59 C380.98,100.84 382.77,103.1 384.54,105.39 C388.08,102 391.63,97.57 397.01,97.61 C404.53,96.99 410.89,104.64 409.47,111.93 C408.62,118.24 402.7,121.66 398.75,125.99 C400.7,129.17 402.6,132.38 404.46,135.62 C409.34,133.92 414.6,130.99 419.83,133.19 C426.43,135.53 429.46,144 426.17,150.12 C424.25,154.37 419.87,156.53 415.63,157.8 C416.76,160.43 417.89,163.07 419.02,165.7 C423.13,164.36 427.85,163.15 431.88,165.41 C437.85,168.19 440.21,176.2 437.08,181.91 C435.21,185.74 431.36,188.11 427.31,189.05 C428.11,191.8 428.9,194.56 429.66,197.33 C433.78,196.27 438.54,196.13 442.06,198.9 C447.83,202.83 448.5,211.83 443.85,216.87 C441.62,219.65 438.19,220.92 434.8,221.55 C435.25,224.38 435.62,227.22 435.95,230.06 C440.7,229.12 446.28,229.48 449.66,233.4 C454.39,238.14 453.78,246.58 448.8,250.91 C445.56,254.07 440.85,254.43 436.6,254.86 C436.4,257.69 436.16,260.52 435.91,263.36 C441.21,264.3 447.58,264.11 451.26,268.78 C456.02,274.23 454.24,283.44 448.01,286.99 C442.93,290.42 436.73,288.24 431.18,287.58 C430.26,290.64 429.28,293.69 428.26,296.73 C433,299.7 439.38,301.55 441.52,307.29 C444.52,314.2 439.38,322.65 432.05,323.69 C426.85,324.9 422.29,321.66 418.02,319.25 C416.51,321.89 414.94,324.51 413.31,327.09 C417.4,331.15 423.41,334.63 423.59,341.09 C424.29,348.44 417.1,354.88 409.9,353.86 C405.03,353.65 401.64,349.88 398.31,346.81 C396.62,348.67 394.92,350.52 393.23,352.38 C396.63,356.34 401.38,360.25 401.04,366.03 C401.11,373.46 393.31,379.3 386.18,377.62 C381.1,376.84 377.98,372.44 374.88,368.82 C371.98,371.02 369.06,373.2 366.13,375.37 C368.37,379.91 371.96,384.55 370.56,389.93 C369.2,397.19 360.49,401.44 353.83,398.43 C349.41,396.88 347.11,392.59 345.2,388.64 C341.71,390.55 338.2,392.38 334.64,394.15 C336.62,398.48 339.48,403.12 337.9,408.07 C336.21,415.54 326.86,419.65 320.19,415.89 C315.36,413.63 313.87,408.19 311.74,403.77 C308.68,404.83 305.61,405.85 302.53,406.82 C303.83,411.73 305.21,417.46 301.87,421.9 C297.94,428.13 288.3,429.14 283.1,423.96 C279.87,421.15 279.26,416.75 278.41,412.82 C275.58,413.33 272.75,413.8 269.91,414.26 C270.93,418.75 270.66,423.9 267.31,427.4 C262.83,432.72 253.84,432.88 249.15,427.77 C246.17,424.86 245.61,420.58 245.1,416.66 C244.65,416.65 243.75,416.62 243.3,416.61 C243.07,420.82 242.98,425.51 239.85,428.76 C235.41,434.09 226.42,434.38 221.71,429.26 C218.09,425.91 217.75,420.68 218.38,416.1 C216.55,415.95 214.72,415.8 212.9,415.65 C212.61,420.09 212.8,425.08 209.57,428.59 C204.77,434.61 194.43,434.3 190.09,427.89 C186.55,423.46 187.97,417.54 188.21,412.37 C185.02,411.8 181.83,411.2 178.66,410.55 C176.64,415.82 175.88,422.48 170.4,425.45 C164.27,429.31 155.33,426.31 152.69,419.59 C150.31,414.58 152.91,409.31 154.48,404.51 C151.68,403.66 148.88,402.79 146.08,401.9 C144.22,406.37 143.02,411.79 138.38,414.26 C132.09,418.33 122.74,415.01 120.4,407.91 C118.25,402.82 121.02,397.72 122.87,393.06 C118.98,391.39 115.13,389.63 111.33,387.77 C109.36,391.97 106.8,396.51 102.04,397.95 C95.39,400.59 87.05,396.16 85.88,389.02 C84.69,384.11 87.73,379.75 89.89,375.63 C86.75,373.59 83.67,371.48 80.65,369.29 C77.87,372.65 74.77,376.38 70.16,376.99 C63.3,378.46 55.87,373.13 55.55,366.02 C54.95,360.93 58.49,356.92 61.75,353.53 C59.9,351.72 58.08,349.88 56.29,348.01 C53.13,351.34 48.74,353.92 43.98,353.21 C37.15,352.73 31.66,345.67 33.22,338.92 C33.92,334.44 37.69,331.58 40.83,328.73 C39.02,325.98 37.27,323.2 35.59,320.37 C31.94,322.71 27.42,324.23 23.14,322.75 C16.62,321 12.46,313.29 15.05,306.94 C16.53,302.37 21.08,300.16 24.99,298.04 C23.74,294.61 22.58,291.14 21.49,287.65 C16.78,288.67 11.32,288.97 7.44,285.59 C1.97,281.56 1.01,272.78 5.78,267.85 C8.36,264.81 12.42,263.94 16.2,263.52 C15.77,260.3 15.41,257.08 15.06,253.86 C8.5,252.93 3,246.73 3.81,239.97 C4.18,234.38 8.93,229.97 14.32,229.1 C14.41,224.3 14.67,219.51 15.08,214.73 C10.39,214.02 5.19,212.85 2.39,208.62 C-2.01,202.93 -0.01,193.6 6.6,190.55 C10.48,188.43 14.98,189.48 19.04,190.41 C19.73,187.64 20.44,184.89 21.17,182.14 C17.23,181.17 13.08,179.67 10.77,176.1 C6.48,170.4 8.48,161.17 15.04,158.14 C19.53,155.63 24.65,157.41 29.19,158.79 C30.29,156.18 31.41,153.58 32.55,150.99 C28.28,149.55 23.51,147.97 21.23,143.72 C17.29,137.63 20.09,128.45 27.02,125.99 C32.84,123.53 38.59,127.26 44.04,128.97 C45.79,126 47.54,123.03 49.4,120.13 C46.43,117.16 42.72,114.39 41.81,110.04 C39.99,103.55 44.34,96.01 51.06,94.78 C55.97,93.59 60.75,96.24 63.91,99.83 C65.98,97.22 68.14,94.68 70.3,92.14 C65.65,86.92 65.91,78 71.57,73.62 C76.09,69.78 82.98,70.44 87.39,74.11 C89.33,72.29 91.28,70.48 93.28,68.72 C90.46,65.27 88.85,60.64 90.13,56.23 C91.55,50.25 97.93,45.97 104.01,47.23 C107.72,47.79 110.62,50.43 112.73,53.37 C115.08,51.75 117.47,50.16 119.89,48.62 C115.44,42.27 117.72,32.3 125.15,29.38 C131.6,26.37 138.84,30.56 141.62,36.6 C144.37,35.35 147.14,34.14 149.93,32.95 C149.24,30.05 148.92,26.92 150.15,24.11 C152.14,18.7 158.23,15.25 163.89,16.41 C168.49,17.17 172.26,20.72 173.71,25.1 C176.22,24.48 178.74,23.88 181.26,23.32 C180.39,18.7 179.3,13.43 182.26,9.3 C186.11,3.03 195.78,1.74 201.05,6.93 C204.83,10.11 205.14,15.31 205.88,19.84 C208.7,19.66 211.52,19.51 214.35,19.4 C214.81,14.23 212.88,8.03 216.83,3.81 Z"></path>
        </g>
    </g>
</svg>