<?xml version="1.0" encoding="UTF-8"?>
<svg width="500px" height="500px" viewBox="0 0 500 500" version="1.1" xmlns="http://www.w3.org/2000/svg" xmlns:xlink="http://www.w3.org/1999/xlink">
    <!-- Generator: Sketch 51 (57462) - http://www.bohemiancoding.com/sketch -->
    <title>eyes-3</title>
    <desc>Created with Sketch.</desc>
    <defs></defs>
    <g id="eyes-3" stroke="none" stroke-width="1" fill="none" fill-rule="evenodd">
        <rect id="Bounds" x="2.27373675e-13" y="0" width="500" height="500"></rect>
        <g transform="translate(129.000000, 166.000000)" fill-rule="nonzero">
            <g id="#48484858" fill="#484848" opacity="0.35">
                <path d="M3.89,6.9 C8.23,1.63 15.44,-0.09 22,0.22 C41.22,0.89 58.58,16.34 62.1,35.15 C62.85,38.88 63.85,42.93 62.12,46.55 C63.13,24.37 43.09,3.88 20.97,3.88 C14.52,3.86 7.53,6.27 3.84,11.85 C0.99,16.02 0.86,21.32 1.58,26.15 C-0.07,19.86 -0.78,12.12 3.89,6.9 Z" id="Shape"></path>
                <path d="M184.46,25.25 C191.84,8.73 210.9,-2.72 229.02,0.89 C235.51,2.25 241.57,7.31 242.61,14.09 C242.72,18.12 242.17,22.15 241.53,26.13 L241.3,24.85 C241.19,20.74 241.68,16.27 239.38,12.62 C235.56,5.95 227.21,3.47 219.93,3.91 C199.28,5.03 181.18,23.43 180.48,44.11 L179.92,44.08 C179.52,37.48 181.92,31.21 184.46,25.25 Z" id="Shape"></path>
            </g>
            <g id="#000000ff" transform="translate(1.000000, 3.000000)" fill="#000000">
                <path d="M2.84,8.85 C6.53,3.27 13.52,0.86 19.97,0.88 C42.09,0.88 62.13,21.37 61.12,43.55 C60.07,48.25 55.56,51.15 50.96,51.46 C40.58,52.39 30.18,49.48 20.91,44.99 C11.83,40.46 3.91,32.91 0.58,23.15 C-0.14,18.32 -0.01,13.02 2.84,8.85 Z M11.4,5.72 C8.94,7.03 6.36,10.82 9.88,12.57 C12.74,10.87 15.29,8.01 18.91,8.27 C24.04,7.77 28.12,11.35 32.85,12.49 C28.73,5.32 18.9,2.04 11.4,5.72 Z" id="Shape"></path>
                <path d="M179.48,41.11 C180.18,20.43 198.28,2.03 218.93,0.91 C226.21,0.47 234.56,2.95 238.38,9.62 C240.68,13.27 240.19,17.74 240.3,21.85 C237.75,32.6 228.72,40.53 219.19,45.32 C209.85,49.69 199.41,52.55 189.02,51.38 C184.04,50.71 178.68,46.69 179.48,41.11 Z M212.83,6.86 C205.34,9.43 198.24,13.99 193.51,20.42 L194.96,20.4 C203,15.98 211.36,10.05 221.05,11.14 C222.99,11.43 224.65,10.34 225.98,9.05 C223.11,4.62 217.15,5.51 212.83,6.86 Z" id="Shape"></path>
            </g>
            <g id="#ffffffff" transform="translate(9.000000, 7.000000)" fill="#FFFFFF">
                <path d="M3.4,1.72 C10.9,-1.96 20.73,1.32 24.85,8.49 C20.12,7.35 16.04,3.77 10.91,4.27 C7.29,4.01 4.74,6.87 1.88,8.57 C-1.64,6.82 0.94,3.03 3.4,1.72 Z" id="Shape"></path>
                <path d="M204.83,2.86 C209.15,1.51 215.11,0.62 217.98,5.05 C216.65,6.34 214.99,7.43 213.05,7.14 C203.36,6.05 195,11.98 186.96,16.4 L185.51,16.42 C190.24,9.99 197.34,5.43 204.83,2.86 Z" id="Shape"></path>
            </g>
        </g>
    </g>
</svg>