<?xml version="1.0" encoding="UTF-8"?>
<svg width="500px" height="500px" viewBox="0 0 500 500" version="1.1" xmlns="http://www.w3.org/2000/svg" xmlns:xlink="http://www.w3.org/1999/xlink">
    <!-- Generator: Sketch 51 (57462) - http://www.bohemiancoding.com/sketch -->
    <title>eyes-1</title>
    <desc>Created with Sketch.</desc>
    <defs></defs>
    <g id="eyes-1" stroke="none" stroke-width="1" fill="none" fill-rule="evenodd">
        <rect id="Bounds" x="2.27373675e-13" y="0" width="500" height="500"></rect>
        <g transform="translate(148.000000, 149.000000)" fill-rule="nonzero">
            <g id="#ffffffff" fill="#FFFFFF">
                <path d="M150.56,1.04 C159.85,-0.56 169.66,0.7 178.15,4.82 C190.33,10.52 199.7,21.91 202.87,34.99 C205.47,45.19 204.35,56.27 199.83,65.77 C194.4,77.17 184.1,86.19 171.99,89.82 C158.78,93.92 143.66,91.76 132.36,83.7 C122.95,77.19 116.03,67.07 113.72,55.83 C110.94,43.6 113.64,30.26 120.85,20.01 C127.73,10.1 138.63,3.03 150.56,1.04 Z M132.28,56.15 C128.14,58.13 128.18,64.92 132.33,66.85 C136.35,69.53 142.14,65.52 141.49,60.88 C141.17,56.66 135.93,53.85 132.28,56.15 Z" id="Shape"></path>
                <path d="M34.56,1.9 C45.22,-0.93 56.93,0.17 66.79,5.16 C78.67,10.95 87.76,22.21 90.84,35.08 C92.77,42.85 92.66,51.1 90.4,58.79 C86.86,71.46 77.44,82.27 65.5,87.72 C53.6,93.2 39.32,93.23 27.41,87.78 C14.9,82.07 5.1,70.53 1.96,57.09 C-0.47,47.59 0.42,37.34 4.19,28.31 C9.58,15.5 21.09,5.41 34.56,1.9 Z M62.12,61.97 C61.81,65.31 64.82,68.24 68.06,68.36 C72.4,68.57 76.02,63.24 73.69,59.38 C72.75,57.06 70.24,56.25 68.02,55.69 C65.04,56.34 61.93,58.58 62.12,61.97 Z" id="Shape"></path>
            </g>
            <g id="#000000ff" transform="translate(62.000000, 55.000000)" fill="#000000">
                <path d="M0.12,6.97 C-0.07,3.58 3.04,1.34 6.02,0.69 C8.24,1.25 10.75,2.06 11.69,4.38 C14.02,8.24 10.4,13.57 6.06,13.36 C2.82,13.24 -0.19,10.31 0.12,6.97 Z" id="Shape"></path>
                <path d="M70.28,1.15 C73.93,-1.15 79.17,1.66 79.49,5.88 C80.14,10.52 74.35,14.53 70.33,11.85 C66.18,9.92 66.14,3.13 70.28,1.15 Z" id="Shape"></path>
            </g>
        </g>
    </g>
</svg>