<?xml version="1.0" encoding="UTF-8"?>
<svg width="500px" height="500px" viewBox="0 0 500 500" version="1.1" xmlns="http://www.w3.org/2000/svg" xmlns:xlink="http://www.w3.org/1999/xlink">
    <!-- Generator: Sketch 51 (57462) - http://www.bohemiancoding.com/sketch -->
    <title>eyes-4</title>
    <desc>Created with Sketch.</desc>
    <defs></defs>
    <g id="eyes-4" stroke="none" stroke-width="1" fill="none" fill-rule="evenodd">
        <rect id="Bounds" x="2.27373675e-13" y="0" width="500" height="500"></rect>
        <g transform="translate(188.000000, 141.000000)" fill-rule="nonzero">
            <g id="#39393954" fill="#393939" opacity="0.33">
                <path d="M49.49,5.58 C58.98,-2.45 74.65,-1.18 82.7,8.31 C84.57,10.63 87.29,13.48 85.88,16.69 C82.98,11.89 78.89,7.6 73.59,5.52 C65.18,1.94 54.85,3.97 48.31,10.32 C44.1,14.2 42.03,19.77 40.98,25.28 C40.82,17.92 43.48,10.16 49.49,5.58 Z" id="Shape"></path>
                <path d="M86.1,17.3 C88.25,16.56 89.37,20.67 87.65,21.76 C87.03,20.31 86.5,18.82 86.1,17.3 Z" id="Shape"></path>
                <path d="M87.94,22.47 C89.55,25.15 88.53,28.25 88.2,31.12 C88.26,28.23 88.11,25.35 87.94,22.47 Z" id="Shape"></path>
                <path d="M9.7,58.75 C19.94,50.95 36.6,53.24 43.73,64.17 C44.42,65.11 44.04,66.3 44.15,67.37 C40.72,63.86 36.93,60.43 32.15,58.93 C24.45,56.39 15.5,58.03 9.36,63.37 C4.78,67.09 2.51,72.76 1.01,78.3 C-0.64,70.7 3.78,63.2 9.7,58.75 Z" id="Shape"></path>
                <path d="M87.21,58.3 C96.58,51.8 110.72,52.97 118.5,61.46 C121.28,64.71 124.82,68.92 122.92,73.46 C120.47,68.17 116.85,63.15 111.51,60.5 C103.71,56.27 93.49,56.99 86.4,62.35 C82.58,65.14 79.98,69.21 77.93,73.39 C79.24,67.51 81.94,61.62 87.21,58.3 Z" id="Shape"></path>
                <path d="M46.01,71.14 L46.91,71.23 L47.44,72.17 L47.04,72.99 C46.79,72.53 46.27,71.6 46.01,71.14 Z" id="Shape"></path>
                <path d="M47.05,73.82 L47.93,74.06 L48.29,75.09 L47.77,75.83 C47.59,75.33 47.23,74.32 47.05,73.82 Z" id="Shape"></path>
                <path d="M77.27,76.91 C76.03,75.62 76.25,74.7 77.94,74.15 C78.13,75.16 77.91,76.08 77.27,76.91 Z" id="Shape"></path>
                <path d="M123.09,74.19 L124.01,73.91 C124.74,77.28 124.94,80.74 124.27,84.14 C124.15,80.79 123.72,77.47 123.09,74.19 Z" id="Shape"></path>
            </g>
            <g id="#000000ff" transform="translate(0.000000, 3.000000)" fill="#000000">
                <path d="M48.31,7.32 C54.85,0.97 65.18,-1.06 73.59,2.52 C78.89,4.6 82.98,8.89 85.88,13.69 L86.1,14.3 C86.5,15.82 87.03,17.31 87.65,18.76 L87.94,19.47 C88.11,22.35 88.26,25.23 88.2,28.12 C86.75,37.35 79.35,45.23 70.3,47.43 C58.03,50.94 44.15,42.16 41.52,29.8 C41.06,27.32 40.76,24.79 40.98,22.28 C42.03,16.77 44.1,11.2 48.31,7.32 Z M54.22,8.22 C50.89,10.51 50.76,15.16 53.24,18.15 C57.03,16.67 60.56,14.29 63.11,11.09 C61.47,8.02 57.32,5.82 54.22,8.22 Z M47.19,21.93 C47.42,22.63 47.9,24.02 48.13,24.71 C50.56,25.58 50.87,22.21 52.02,20.82 C50.2,19.7 48.47,20.41 47.19,21.93 Z" id="Shape"></path>
                <path d="M9.36,60.37 C15.5,55.03 24.45,53.39 32.15,55.93 C36.93,57.43 40.72,60.86 44.15,64.37 C44.96,65.51 45.68,66.76 46.01,68.14 C46.27,68.6 46.79,69.53 47.04,69.99 L47.05,70.82 C47.23,71.32 47.59,72.33 47.77,72.83 C49.16,79.35 48.14,86.61 44.08,92.03 C38.41,100.01 27.46,104.31 18.02,101.11 C7.16,98.07 -0.62,86.51 1.01,75.3 C2.51,69.76 4.78,64.09 9.36,60.37 Z M13.83,62.73 C11.09,64.52 10.11,70.3 13.97,71.23 C17.21,70.11 20.3,68.58 23.22,66.8 C23.18,62.31 17.14,59.72 13.83,62.73 Z M9.14,71.91 C7.81,72.31 7.28,74.59 8.89,74.99 C11.01,75.47 11.63,70.99 9.14,71.91 Z" id="Shape"></path>
                <path d="M86.4,59.35 C93.49,53.99 103.71,53.27 111.51,57.5 C116.85,60.15 120.47,65.17 122.92,70.46 L123.09,71.19 C123.72,74.47 124.15,77.79 124.27,81.14 C122.83,90.31 116.1,98.58 107.06,101.12 C94.92,105.24 80.63,96.92 77.54,84.63 C76.72,81.15 76.33,77.4 77.27,73.91 C77.91,73.08 78.13,72.16 77.94,71.15 L77.93,70.39 C79.98,66.21 82.58,62.14 86.4,59.35 Z M91.88,71.8 C95.24,70.06 99.54,69.42 101.74,66.05 C100.41,63.3 97.36,60.99 94.2,62.03 C89.96,62.9 87.89,69.3 91.88,71.8 Z" id="Shape"></path>
            </g>
            <g id="#ffffffff" transform="translate(7.000000, 10.000000)" fill="#FFFFFF">
                <path d="M47.22,1.22 C50.32,-1.18 54.47,1.02 56.11,4.09 C53.56,7.29 50.03,9.67 46.24,11.15 C43.76,8.16 43.89,3.51 47.22,1.22 Z" id="Shape"></path>
                <path d="M40.19,14.93 C41.47,13.41 43.2,12.7 45.02,13.82 C43.87,15.21 43.56,18.58 41.13,17.71 C40.9,17.02 40.42,15.63 40.19,14.93 Z" id="Shape"></path>
                <path d="M6.83,55.73 C10.14,52.72 16.18,55.31 16.22,59.8 C13.3,61.58 10.21,63.11 6.97,64.23 C3.11,63.3 4.09,57.52 6.83,55.73 Z" id="Shape"></path>
                <path d="M84.88,64.8 C80.89,62.3 82.96,55.9 87.2,55.03 C90.36,53.99 93.41,56.3 94.74,59.05 C92.54,62.42 88.24,63.06 84.88,64.8 Z" id="Shape"></path>
                <path d="M2.14,64.91 C4.63,63.99 4.01,68.47 1.89,67.99 C0.28,67.59 0.81,65.31 2.14,64.91 Z" id="Shape"></path>
            </g>
        </g>
    </g>
</svg>