<?xml version="1.0" encoding="UTF-8"?>
<svg width="500px" height="500px" viewBox="0 0 500 500" version="1.1" xmlns="http://www.w3.org/2000/svg" xmlns:xlink="http://www.w3.org/1999/xlink">
    <!-- Generator: Sketch 51 (57462) - http://www.bohemiancoding.com/sketch -->
    <title>eyes-6</title>
    <desc>Created with Sketch.</desc>
    <defs></defs>
    <g id="eyes-6" stroke="none" stroke-width="1" fill="none" fill-rule="evenodd">
        <rect id="Bounds" x="2.27373675e-13" y="0" width="500" height="500"></rect>
        <g transform="translate(149.000000, 156.000000)" fill-rule="nonzero">
            <g id="#4a4a4a4d" fill="#4A4A4A" opacity="0.3">
                <path d="M19.1,1.2 C29.2,-0.99 39.93,0.55 49.35,4.66 C64.87,11.09 77.08,24.38 82.99,40.01 C84.67,46.76 86.96,53.73 85.75,60.8 L85.12,60.76 L85.09,59.74 C85.73,53.64 83.79,47.68 81.58,42.09 C76.06,28.25 65.21,16.61 51.63,10.41 C48.1,8.89 44.4,6.85 40.48,7.18 C40.95,6.4 42.41,6.2 42.47,5.29 C40.83,4.4 39.62,6.72 38.03,5.96 C28.99,4.18 18.97,4.92 11.16,10.17 C5.58,13.82 2.2,20.32 1.97,26.94 C2.1,29.76 1.85,33.01 3.93,35.25 L2.8,35.47 C2.63,35.29 2.28,34.93 2.11,34.75 C0.65,28.7 -0.91,22.14 1.29,16.03 C3.92,8.26 11.24,2.84 19.1,1.2 Z" id="Shape"></path>
                <path d="M163.97,1.18 C173.33,-0.57 183.77,-0.37 192.02,4.93 C199.04,9.29 203.2,17.95 201.66,26.15 C201.61,29.26 200.02,32.05 199.95,35.12 L199.21,35.25 L199.22,33.81 C201.04,26.27 199.42,17.68 193.53,12.34 C188.2,7.72 181.04,4.89 174,5 C169.48,6.19 164.57,6.41 160.04,5.19 C158.38,5.18 160.46,7.82 161.38,6.61 C140.23,11.3 122.94,28.93 117.85,49.88 C116.72,52.93 116.81,56.18 116.76,59.38 L116,59.53 C115.4,32.02 137.05,6.32 163.97,1.18 Z" id="Shape"></path>
            </g>
            <g id="#000000ff" transform="translate(1.000000, 4.000000)" fill="#000000">
                <path d="M10.16,6.17 C17.97,0.92 27.99,0.18 37.03,1.96 C38.62,2.72 39.83,0.4 41.47,1.29 C41.41,2.2 39.95,2.4 39.48,3.18 C43.4,2.85 47.1,4.89 50.63,6.41 C64.21,12.61 75.06,24.25 80.58,38.09 C82.79,43.68 84.73,49.64 84.09,55.74 C81.72,58.15 80.06,61.45 76.71,62.68 C68.3,66.47 58.61,65.08 49.88,63.21 C41.32,61.34 32.83,58.54 25.34,53.94 C26.51,52.34 27.2,50.11 25.25,48.73 C23.25,46.79 21.09,49.42 19.16,49.98 C12.17,45.29 7.17,38.38 2.93,31.25 C0.85,29.01 1.1,25.76 0.97,22.94 C1.2,16.32 4.58,9.82 10.16,6.17 Z M19.02,7.26 C16.08,8.29 13.48,10.95 13.04,14.1 C13.59,16.99 17.33,16.74 19.01,14.99 C24.19,9.46 32.9,10.94 39.1,13.79 C41.51,14.57 43.66,17.28 46.31,16.49 L46.16,15.3 C39.84,7.42 28.63,3.39 19.02,7.26 Z" id="Shape"></path>
                <path d="M160.38,2.61 C159.46,3.82 157.38,1.18 159.04,1.19 C163.57,2.41 168.48,2.19 173,1 C180.04,0.89 187.2,3.72 192.53,8.34 C198.42,13.68 200.04,22.27 198.22,29.81 C197,30.32 196.14,31.28 195.56,32.43 C191.92,39.33 186.71,45.83 180.04,49.88 C178.37,48.73 175.9,47.19 174.21,49.21 C172.54,50.58 174.14,52.73 173.59,54.44 C161.42,60.86 147.79,64.95 133.97,65.05 C126.8,65.13 118.74,62.51 115.76,55.38 C115.81,52.18 115.72,48.93 116.85,45.88 C121.94,24.93 139.23,7.3 160.38,2.61 Z M140.49,21.29 C138.6,22.96 136.49,24.64 135.66,27.12 C136.27,28.55 137.82,27.16 138.64,26.74 C141.93,24.52 145.36,22.51 148.94,20.8 C156.08,17.38 163.9,13.68 172.03,15.14 C174.35,15.04 178.03,14.94 178.51,12 C177.23,8.16 172.49,7.75 169.06,7.84 C158.24,8.5 148.58,14.47 140.49,21.29 Z" id="Shape"></path>
            </g>
            <g id="#ffffffff" transform="translate(14.000000, 9.000000)" fill="#FFFFFF">
                <path d="M6.02,2.26 C15.63,-1.61 26.84,2.42 33.16,10.3 L33.31,11.49 C30.66,12.28 28.51,9.57 26.1,8.79 C19.9,5.94 11.19,4.46 6.01,9.99 C4.33,11.74 0.59,11.99 0.04,9.1 C0.48,5.95 3.08,3.29 6.02,2.26 Z" id="Shape"></path>
                <path d="M127.49,16.29 C135.58,9.47 145.24,3.5 156.06,2.84 C159.49,2.75 164.23,3.16 165.51,7 C165.03,9.94 161.35,10.04 159.03,10.14 C150.9,8.68 143.08,12.38 135.94,15.8 C132.36,17.51 128.93,19.52 125.64,21.74 C124.82,22.16 123.27,23.55 122.66,22.12 C123.49,19.64 125.6,17.96 127.49,16.29 Z" id="Shape"></path>
            </g>
            <g id="#353535fe" transform="translate(2.000000, 33.000000)" fill="#353535">
                <path d="M194.56,3.43 C195.14,2.28 196,1.32 197.22,0.81 L197.21,2.25 C196.74,3.88 196.28,5.54 195.32,6.96 C188.89,19.7 176.95,28.84 163.84,33.93 C153.15,38.16 141.61,40.88 130.06,40.14 C124,39.76 117.37,36.9 115.23,30.77 C114.56,29.37 114.4,27.91 114.76,26.38 C117.74,33.51 125.8,36.13 132.97,36.05 C146.79,35.95 160.42,31.86 172.59,25.44 C173.14,23.73 171.54,21.58 173.21,20.21 C174.9,18.19 177.37,19.73 179.04,20.88 C185.71,16.83 190.92,10.33 194.56,3.43 Z" id="Shape"></path>
                <path d="M0.8,2.47 L1.93,2.25 C6.17,9.38 11.17,16.29 18.16,20.98 C20.09,20.42 22.25,17.79 24.25,19.73 C26.2,21.11 25.51,23.34 24.34,24.94 C31.83,29.54 40.32,32.34 48.88,34.21 C57.61,36.08 67.3,37.47 75.71,33.68 C79.06,32.45 80.72,29.15 83.09,26.74 L83.12,27.76 C83.12,29.45 82.68,31.28 81.89,32.76 C78.72,37.79 72.67,39.94 66.97,40.21 C56.43,40.72 45.94,38.35 36.09,34.76 C20.75,29.23 6.4,18.29 0.8,2.47 Z" id="Shape"></path>
            </g>
            <g id="#0000004e" transform="translate(2.000000, 34.000000)" fill="#000000" opacity="0.31">
                <path d="M0.11,0.75 C0.28,0.93 0.63,1.29 0.8,1.47 C6.4,17.29 20.75,28.23 36.09,33.76 C45.94,37.35 56.43,39.72 66.97,39.21 C72.67,38.94 78.72,36.79 81.89,31.76 C83.15,35.8 79.8,39.63 76.42,41.4 C70.06,44.64 62.61,44.01 55.73,43.43 C38.43,41.09 20.86,34.24 9.13,20.85 C4.35,15.18 0.31,8.34 0.11,0.75 Z" id="Shape"></path>
                <path d="M195.32,5.96 C196.27,6.72 195.53,8.24 195.35,9.25 C190.6,21 180.37,29.63 169.27,35.21 C155.89,41.5 140.77,45.42 125.95,43.25 C119.83,42.37 113.08,36.37 115.23,29.77 C117.37,35.9 124,38.76 130.06,39.14 C141.61,39.88 153.15,37.16 163.84,32.93 C176.95,27.84 188.89,18.7 195.32,5.96 Z" id="Shape"></path>
            </g>
        </g>
    </g>
</svg>