<?xml version="1.0" encoding="UTF-8"?>
<svg width="500px" height="500px" viewBox="0 0 500 500" version="1.1" xmlns="http://www.w3.org/2000/svg" xmlns:xlink="http://www.w3.org/1999/xlink">
    <!-- Generator: Sketch 51 (57462) - http://www.bohemiancoding.com/sketch -->
    <title>eyes-5</title>
    <desc>Created with Sketch.</desc>
    <defs></defs>
    <g id="eyes-5" stroke="none" stroke-width="1" fill="none" fill-rule="evenodd">
        <rect id="Bounds" x="2.27373675e-13" y="0" width="500" height="500"></rect>
        <g transform="translate(175.000000, 163.000000)">
            <g id="#221f1fff" fill="#221F1F" fill-rule="nonzero">
                <path d="M1.03,15.96 C0.97,8.77 6.76,2.14 13.87,1.16 C17.29,0.56 20.76,1.39 23.82,2.94 C22.2,7.39 22.8,12.32 23.14,16.96 C24.19,20.78 30.24,20.77 31.36,16.97 C31.69,13.01 31.01,9.03 31.26,5.06 L31.87,5.07 C31.51,20.06 31.46,35.06 31.46,50.06 C31.49,58.19 24.09,65.41 15.94,65.02 C8.01,65.08 0.93,57.97 1.02,50.04 C0.98,38.68 0.98,27.32 1.03,15.96 Z" id="Shape"></path>
                <path d="M118.46,15.94 C118.44,8.9 123.98,2.37 130.92,1.22 C134.45,0.52 138.09,1.3 141.24,2.95 C139.66,6.77 140.37,11.01 140.34,15.03 C140.07,17.61 142.25,20.1 144.9,19.88 C146.76,19.9 147.94,18.35 148.94,17.01 C148.91,28.04 149.01,39.08 148.9,50.11 C148.9,57.96 141.97,65 134.1,65.02 C125.92,65.48 118.4,58.25 118.46,50.08 C118.41,38.7 118.42,27.32 118.46,15.94 Z" id="Shape"></path>
            </g>
            <g id="#ffffffff" transform="translate(22.000000, 0.000000)" fill="#FFFFFF">
                <rect id="Rectangle" x="0" y="0" width="10" height="20" rx="4.5"></rect>
                <rect id="Rectangle" x="117" y="0" width="10" height="20" rx="4.5"></rect>
            </g>
        </g>
    </g>
</svg>