<?xml version="1.0" encoding="UTF-8"?>
<svg width="500px" height="500px" viewBox="0 0 500 500" version="1.1" xmlns="http://www.w3.org/2000/svg" xmlns:xlink="http://www.w3.org/1999/xlink">
    <!-- Generator: Sketch 51 (57462) - http://www.bohemiancoding.com/sketch -->
    <title>eyes-2</title>
    <desc>Created with Sketch.</desc>
    <defs>
        <linearGradient x1="50%" y1="0%" x2="50%" y2="100%" id="linearGradient-1">
            <stop stop-color="#FDFDFD" offset="0%"></stop>
            <stop stop-color="#FFFFFF" offset="48.3279397%"></stop>
            <stop stop-color="#F1F1F1" offset="100%"></stop>
        </linearGradient>
    </defs>
    <g id="eyes-2" stroke="none" stroke-width="1" fill="none" fill-rule="evenodd">
        <rect id="Bounds" x="2.27373675e-13" y="0" width="500" height="500"></rect>
        <g transform="translate(184.000000, 126.000000)" fill-rule="nonzero">
            <g id="#fbfbfbff" transform="translate(5.000000, 0.000000)" fill="url(#linearGradient-1)">
                <path d="M37.35,5.27 C52.49,-1.21 70.31,-1.12 85.39,5.52 C99.85,11.76 111.62,23.85 117.57,38.42 C123.53,53.78 123.3,71.53 116.61,86.61 C110.07,101.51 97.27,113.55 81.91,118.97 C80.91,119.29 79.92,119.62 78.93,119.95 C76.01,120.95 72.98,121.58 69.91,121.87 C64.08,123 57.93,122.93 52.09,121.9 C49.03,121.55 46.01,120.91 43.1,119.92 C42.1,119.6 41.11,119.27 40.11,118.95 C38.04,118.13 35.99,117.26 33.96,116.34 C19.54,109.17 8.2,96.1 3.3,80.74 C-0.81,68.32 -0.59,54.68 3.23,42.21 C4.21,39.81 4.87,37.28 6.09,34.98 C6.76,33.95 7.37,32.87 7.85,31.73 C14.35,19.94 24.95,10.5 37.35,5.27 Z M55.87,54.03 C56.76,55.72 58.11,57.87 56.58,59.65 C55.32,61.09 53.46,59.75 51.97,59.57 C51.35,64.63 54.64,70.13 59.97,70.67 C66.42,71.75 72.2,64.38 69.44,58.39 C67.47,53 60.64,51.24 55.87,54.03 Z" id="Shape"></path>
            </g>
            <g id="#00000033" transform="translate(0.000000, 38.000000)" fill="#000000" opacity="0.2">
                <path d="M122.57,0.42 C124.22,0.57 124.71,2.28 125.43,3.46 C131.86,16.08 133.34,30.9 130.64,44.71 C126.9,64.07 113.89,81.36 96.37,90.37 C86.46,95.57 75.2,98.07 64.03,97.63 C45.26,97.39 27.04,88.18 15.23,73.67 C-1.41,53.82 -4.84,23.61 8.04,0.94 C8.09,1.76 8.18,3.39 8.23,4.21 C4.41,16.68 4.19,30.32 8.3,42.74 C13.2,58.1 24.54,71.17 38.96,78.34 C40.99,79.26 43.04,80.13 45.11,80.95 C46.11,81.27 47.1,81.6 48.1,81.92 C51.01,82.91 54.03,83.55 57.09,83.9 C62.93,84.93 69.08,85 74.91,83.87 C77.98,83.58 81.01,82.95 83.93,81.95 C84.92,81.62 85.91,81.29 86.91,80.97 C102.27,75.55 115.07,63.51 121.61,48.61 C128.3,33.53 128.53,15.78 122.57,0.42 Z" id="Shape"></path>
            </g>
            <g id="#000000ff" transform="translate(56.000000, 52.000000)" fill="#000000">
                <path d="M4.87,2.03 C9.64,-0.76 16.47,1 18.44,6.39 C21.2,12.38 15.42,19.75 8.97,18.67 C3.64,18.13 0.35,12.63 0.97,7.57 C2.46,7.75 4.32,9.09 5.58,7.65 C7.11,5.87 5.76,3.72 4.87,2.03 Z" id="Shape"></path>
            </g>
        </g>
    </g>
</svg>