<?xml version="1.0" encoding="UTF-8"?>
<svg width="500px" height="500px" viewBox="0 0 500 500" version="1.1" xmlns="http://www.w3.org/2000/svg" xmlns:xlink="http://www.w3.org/1999/xlink">
    <!-- Generator: Sketch 51 (57462) - http://www.bohemiancoding.com/sketch -->
    <title>mouth-3</title>
    <desc>Created with Sketch.</desc>
    <defs></defs>
    <g id="mouth-3" stroke="none" stroke-width="1" fill="none" fill-rule="evenodd">
        <rect id="Bounds" x="2.27373675e-13" y="0" width="500" height="500"></rect>
        <g transform="translate(143.000000, 326.000000)" fill-rule="nonzero">
            <g id="#01b7d8ff" fill="#01B7D8">
                <path d="M181.94,3.1 C188.74,1.07 196.12,-1.13 203.19,0.93 C209.68,2.92 213.87,9.16 214.88,15.66 C211.36,20.84 208.87,26.83 204.08,31.04 C180.92,52.53 149.17,62.58 118.04,63.92 C94.52,65 70.82,61.73 48.35,54.72 C37.26,51.13 26.3,46.8 16.34,40.68 C9.7,36.66 4.78,30.49 0.59,24.08 C-1.6,13.52 6.42,0.95 17.96,1.71 C31.45,3.55 43.85,9.59 56.46,14.37 C66.27,18.19 76.61,20.62 87.11,21.45 C104.47,22.68 122.04,21.36 138.92,17.04 C153.61,13.52 167.61,7.77 181.94,3.1 Z M17.55,25.41 C21.9,32.55 29.62,36.62 37.03,39.9 C63.08,51.28 92.15,54.71 120.34,52.44 C142.11,50.55 163.93,45.07 182.84,33.84 C187.25,30.98 192.53,27.51 192.96,21.72 C193.45,21.22 194.42,20.22 194.91,19.72 L195.49,19.69 C191.42,17.25 187.05,20.45 183.62,22.6 C161.35,38 133.71,43.77 106.96,43.33 C81.88,42.77 56.79,37.47 33.91,27.11 C27.52,24.42 23.26,18.42 16.7,16.06 C15.83,19.15 15.76,22.62 17.55,25.41 Z" id="Shape"></path>
            </g>
            <g id="#0192adff" transform="translate(0.000000, 15.000000)" fill="#0192AD">
                <path d="M17.55,10.41 C15.76,7.62 15.83,4.15 16.7,1.06 C23.26,3.42 27.52,9.42 33.91,12.11 C56.79,22.47 81.88,27.77 106.96,28.33 C133.71,28.77 161.35,23 183.62,7.6 C187.05,5.45 191.42,2.25 195.49,4.69 L194.91,4.72 C194.18,4.76 192.73,4.84 192,4.88 C181.53,14.41 168.65,20.9 155.25,25.23 C126.91,34.21 96.11,35.04 67.18,28.35 C50.94,24.4 34.79,18.07 21.98,7.06 C20.64,6.09 19.05,4.39 17.26,5.29 C20.97,9.47 25.73,12.58 30.35,15.68 C55.69,31.47 86.42,36.81 115.92,35.18 C143.5,33.38 171.82,25.22 192.96,6.72 C192.53,12.51 187.25,15.98 182.84,18.84 C163.93,30.07 142.11,35.55 120.34,37.44 C92.15,39.71 63.08,36.28 37.03,24.9 C29.62,21.62 21.9,17.55 17.55,10.41 Z" id="Shape"></path>
                <path d="M204.08,16.04 C208.87,11.83 211.36,5.84 214.88,0.66 C215.18,5.5 214.22,10.4 211.96,14.7 C206.87,22.95 198.87,28.76 191.03,34.17 C165.25,51.25 133.54,57.25 103.01,56.12 C75.39,54.85 47.69,48.66 23,36 C14.63,31.86 7.03,25.61 2.83,17.13 C1.49,14.64 1.04,11.82 0.59,9.08 C4.78,15.49 9.7,21.66 16.34,25.68 C26.3,31.8 37.26,36.13 48.35,39.72 C70.82,46.73 94.52,50 118.04,48.92 C149.17,47.58 180.92,37.53 204.08,16.04 Z" id="Shape"></path>
            </g>
            <g id="#000000ff" transform="translate(17.000000, 19.000000)" fill="#000000">
                <path d="M0.26,1.29 C2.05,0.39 3.64,2.09 4.98,3.06 C17.79,14.07 33.94,20.4 50.18,24.35 C79.11,31.04 109.91,30.21 138.25,21.23 C151.65,16.9 164.53,10.41 175,0.88 C175.73,0.84 177.18,0.76 177.91,0.72 C177.42,1.22 176.45,2.22 175.96,2.72 C154.82,21.22 126.5,29.38 98.92,31.18 C69.42,32.81 38.69,27.47 13.35,11.68 C8.73,8.58 3.97,5.47 0.26,1.29 Z" id="Shape"></path>
            </g>
            <g id="#00000033" transform="translate(0.000000, 28.000000)" fill="#000000" opacity="0.2">
                <path d="M211.96,1.7 C212.51,1.44 213.63,0.92 214.19,0.66 C211.9,11.08 203.12,18.01 194.99,24.02 C170.6,41.83 139.84,49 109.99,48.86 C82.54,48.79 54.98,43.31 29.87,32.13 C21.8,28.41 13.56,24.23 7.71,17.34 C4.25,13.45 2.27,8.57 0.14,3.89 C0.82,3.95 2.16,4.07 2.83,4.13 C7.03,12.61 14.63,18.86 23,23 C47.69,35.66 75.39,41.85 103.01,43.12 C133.54,44.25 165.25,38.25 191.03,21.17 C198.87,15.76 206.87,9.95 211.96,1.7 Z" id="Shape"></path>
            </g>
        </g>
    </g>
</svg>