<?xml version="1.0" encoding="UTF-8"?>
<svg width="500px" height="500px" viewBox="0 0 500 500" version="1.1" xmlns="http://www.w3.org/2000/svg" xmlns:xlink="http://www.w3.org/1999/xlink">
    <!-- Generator: Sketch 51 (57462) - http://www.bohemiancoding.com/sketch -->
    <title>mouth-4</title>
    <desc>Created with Sketch.</desc>
    <defs></defs>
    <g id="mouth-4" stroke="none" stroke-width="1" fill="none" fill-rule="evenodd">
        <rect id="Bounds" x="2.27373675e-13" y="0" width="500" height="500"></rect>
        <g transform="translate(195.000000, 329.000000)" fill-rule="nonzero">
            <g id="#ffffffff" transform="translate(12.000000, 0.000000)" fill="#FFFFFF">
                <path d="M26.22,1.08 C31.5,0.02 36.91,-0.06 42.28,0.03 C42.11,5.22 37.26,9.79 32.03,9.46 C27.34,9.43 23.52,5.87 21.32,2.01 C22.94,1.65 24.58,1.37 26.22,1.08 Z" id="Shape"></path>
                <path d="M42.68,0.01 C49.76,-0.04 56.86,0.63 63.79,2.04 C65.2,2.35 66.62,2.59 68.04,2.9 C66.94,8.67 60.09,10.45 55.03,10.38 C49.2,10.51 42.79,6.25 42.68,0.01 Z" id="Shape"></path>
                <path d="M3.08,7.07 C7.56,5.17 12.26,3.82 17.03,2.86 C18.33,2.4 19.64,2.28 20.94,2.51 C21.75,5.87 19.91,9.51 16.7,10.79 C11.44,12.82 4.92,12.6 0.58,8.63 C1.34,8.01 2.18,7.48 3.08,7.07 Z" id="Shape"></path>
                <path d="M68.97,3.56 C69.73,3.64 71.26,3.78 72.02,3.85 C76.94,5.02 81.84,6.58 86.35,8.87 C82.51,11.96 76.77,13.35 72.34,10.72 C69.82,9.31 68.69,6.35 68.97,3.56 Z" id="Shape"></path>
            </g>
            <g id="#993939ff" fill="#993939">
                <path d="M54.28,0.03 L54.68,0.01 C54.79,6.25 61.2,10.51 67.03,10.38 C72.09,10.45 78.94,8.67 80.04,2.9 C78.62,2.59 77.2,2.35 75.79,2.04 C78.56,2.31 81.41,2.91 84.02,3.85 C83.26,3.78 81.73,3.64 80.97,3.56 C80.69,6.35 81.82,9.31 84.34,10.72 C88.77,13.35 94.51,11.96 98.35,8.87 C103.63,11.44 109.43,15.48 109.98,21.86 C110.08,27.83 107.64,33.58 104.41,38.5 C99.6,45.95 93.36,52.47 86.07,57.53 C87.1,46.45 77.69,36.62 67,35.46 C62.72,35.12 57.52,36.35 55.57,40.6 C53.54,44.29 56.79,48.15 56.17,51.93 C54.48,55.3 48.32,56.25 46.39,52.63 C46.25,49.53 49.21,47.15 48.93,44 C48.91,41.19 48.14,37.96 45.58,36.38 C41.82,34.02 36.86,34.85 33.35,37.3 C26.01,42.24 19.1,49.44 18.37,58.72 C10.63,51.98 4.66,43.08 1.92,33.16 C-0.04,26.56 1.07,18.85 5.54,13.5 C8.19,10.7 11.58,8.61 15.08,7.07 C14.18,7.48 13.34,8.01 12.58,8.63 C16.92,12.6 23.44,12.82 28.7,10.79 C31.91,9.51 33.75,5.87 32.94,2.51 C31.64,2.28 30.33,2.4 29.03,2.86 C32,1.99 35.14,1.35 38.22,1.08 C36.58,1.37 34.94,1.65 33.32,2.01 C35.52,5.87 39.34,9.43 44.03,9.46 C49.26,9.79 54.11,5.22 54.28,0.03 Z" id="Shape"></path>
            </g>
            <g id="#5e2120ff" transform="translate(18.000000, 34.000000)" fill="#5E2120">
                <path d="M15.35,3.3 C18.86,0.85 23.82,0.02 27.58,2.38 C30.14,3.96 30.91,7.19 30.93,10 C31.21,13.15 28.25,15.53 28.39,18.63 C30.32,22.25 36.48,21.3 38.17,17.93 C38.79,14.15 35.54,10.29 37.57,6.6 C39.52,2.35 44.72,1.12 49,1.46 C59.69,2.62 69.1,12.45 68.07,23.53 C55.35,33.09 38.81,37.84 22.96,35.57 C14.71,34 6.56,30.51 0.36,24.75 L0.37,24.72 C1.1,15.44 8.01,8.24 15.35,3.3 Z" id="Shape"></path>
            </g>
        </g>
    </g>
</svg>