<?xml version="1.0" encoding="UTF-8"?>
<svg width="500px" height="500px" viewBox="0 0 500 500" version="1.1" xmlns="http://www.w3.org/2000/svg" xmlns:xlink="http://www.w3.org/1999/xlink">
    <!-- Generator: Sketch 51 (57462) - http://www.bohemiancoding.com/sketch -->
    <title>mouth-5</title>
    <desc>Created with Sketch.</desc>
    <defs></defs>
    <g id="mouth-5" stroke="none" stroke-width="1" fill="none" fill-rule="evenodd">
        <rect id="Bounds" x="2.27373675e-13" y="0" width="500" height="500"></rect>
        <g transform="translate(187.000000, 343.000000)" fill-rule="nonzero">
            <g id="#ef5a28ff" fill="#EF5A28">
                <path d="M10.18,1.26 C13.12,0.31 16.19,1.69 18.16,3.89 C30.38,16.12 47.69,23.01 64.98,22.51 C81.56,22.25 97.8,15.14 109.43,3.35 C111.9,0.58 116.56,0.12 119.37,2.65 C121.45,4.56 123.57,6.51 125.15,8.87 C126.56,11.48 126.25,14.99 124.23,17.22 C109,33.25 87.17,42.74 65.06,43 C41.88,43.58 18.65,34 2.72,17.15 C0.22,14.37 0.47,9.7 3.15,7.12 C5.3,4.99 7.2,2.25 10.18,1.26 Z M7.62,12.59 C13.05,17.85 18.98,22.66 25.63,26.31 C43.18,36.22 64.65,38.74 84.06,33.39 C97.43,29.7 109.94,22.46 119.39,12.27 C117.88,10.77 116.38,9.25 114.91,7.72 C111.01,11.26 107.12,14.85 102.66,17.7 C87.09,28.1 67.32,31.75 49.02,27.94 C35.02,25.16 22.19,17.78 12.15,7.71 C10.54,9.24 8.98,10.83 7.62,12.59 Z" id="Shape"></path>
            </g>
            <g id="#221f1fff" transform="translate(7.000000, 7.000000)" fill="#221F1F">
                <path d="M0.62,5.59 C1.98,3.83 3.54,2.24 5.15,0.71 C15.19,10.78 28.02,18.16 42.02,20.94 C60.32,24.75 80.09,21.1 95.66,10.7 C100.12,7.85 104.01,4.26 107.91,0.72 C109.38,2.25 110.88,3.77 112.39,5.27 C102.94,15.46 90.43,22.7 77.06,26.39 C57.65,31.74 36.18,29.22 18.63,19.31 C11.98,15.66 6.05,10.85 0.62,5.59 Z" id="Shape"></path>
            </g>
        </g>
    </g>
</svg>