<?xml version="1.0" encoding="UTF-8"?>
<svg width="500px" height="500px" viewBox="0 0 500 500" version="1.1" xmlns="http://www.w3.org/2000/svg" xmlns:xlink="http://www.w3.org/1999/xlink">
    <!-- Generator: Sketch 51 (57462) - http://www.bohemiancoding.com/sketch -->
    <title>mouth-2</title>
    <desc>Created with Sketch.</desc>
    <defs></defs>
    <g id="mouth-2" stroke="none" stroke-width="1" fill="none" fill-rule="evenodd">
        <rect id="Bounds" x="2.27373675e-13" y="0" width="500" height="500"></rect>
        <g transform="translate(129.000000, 321.000000)" fill-rule="nonzero">
            <g id="#444253ff" fill="#444253">
                <path d="M108.96,1.01 C114.13,0.56 119.32,-0.37 124.53,0.16 C142.83,1.89 161.14,4.3 178.99,8.81 C187.8,11.15 196.71,13.73 204.62,18.39 C215.04,24.23 225.5,30.55 233.6,39.47 C238.1,44.5 241.95,51.06 240.84,58.07 C239.67,65.19 234.15,70.58 228.46,74.52 C218.4,81.94 205.46,82.82 193.54,84.75 C184.75,86.33 175.82,85.46 166.95,85.83 C167.72,73.81 164.74,61.36 157.21,51.79 C149.18,41.22 136.33,34.36 123.01,34.04 C110.59,33.52 98.15,38.65 89.52,47.55 C79.5,57.46 75.06,71.93 76.04,85.83 C69.41,85.47 62.75,86.15 56.16,85.3 C46.16,84.19 36.14,82.92 26.38,80.43 C18.71,78.66 11.93,74.07 6.52,68.47 C2.93,64.56 0.43,59.28 1.09,53.87 C1.79,47.63 5.64,42.29 9.88,37.88 C17.98,29.63 27.99,23.62 38.03,18.03 C42.84,15.22 48.1,13.3 53.39,11.58 C71.43,5.91 90.21,3.09 108.96,1.01 Z M22.75,32.91 C24.2,36.37 26.71,39.67 30.52,40.65 C35.53,42.02 42.31,41 44.77,35.82 C47.07,30.61 45.63,24.73 44.23,19.48 C36.85,23.6 29.49,27.79 22.75,32.91 Z M11.98,42.96 C15.41,41.58 18.04,38.83 19.57,35.5 C16.8,37.73 14.21,40.18 11.98,42.96 Z" id="Shape"></path>
            </g>
            <g id="#ffffffff" transform="translate(11.000000, 19.000000)" fill="#FFFFFF">
                <path d="M11.75,13.91 C18.49,8.79 25.85,4.6 33.23,0.48 C34.63,5.73 36.07,11.61 33.77,16.82 C31.31,22 24.53,23.02 19.52,21.65 C15.71,20.67 13.2,17.37 11.75,13.91 Z" id="Shape"></path>
                <path d="M0.98,23.96 C3.21,21.18 5.8,18.73 8.57,16.5 C7.04,19.83 4.41,22.58 0.98,23.96 Z" id="Shape"></path>
            </g>
            <g id="#754799ff" transform="translate(75.000000, 34.000000)" fill="#754799">
                <path d="M14.52,13.55 C23.15,4.65 35.59,-0.48 48.01,0.04 C61.33,0.36 74.18,7.22 82.21,17.79 C89.74,27.36 92.72,39.81 91.95,51.83 C63.31,52.24 34.64,51.86 5.98,52.02 C4.33,52.03 2.68,51.96 1.04,51.83 C0.06,37.93 4.5,23.46 14.52,13.55 Z" id="Shape"></path>
            </g>
        </g>
    </g>
</svg>