<?xml version="1.0" encoding="UTF-8"?>
<svg width="500px" height="500px" viewBox="0 0 500 500" version="1.1" xmlns="http://www.w3.org/2000/svg" xmlns:xlink="http://www.w3.org/1999/xlink">
    <!-- Generator: Sketch 51 (57462) - http://www.bohemiancoding.com/sketch -->
    <title>mouth-6</title>
    <desc>Created with Sketch.</desc>
    <defs></defs>
    <g id="mouth-6" stroke="none" stroke-width="1" fill="none" fill-rule="evenodd">
        <rect id="Bounds" x="2.27373675e-13" y="0" width="500" height="500"></rect>
        <g transform="translate(164.000000, 304.000000)" fill-rule="nonzero">
            <g id="#a90044ff" fill="#A90044">
                <path d="M1.35,11.61 C1.79,6.88 5.22,2.51 9.92,1.43 C14.28,-0.46 18.78,1.77 22.99,3 C40.85,9.76 59.91,12.77 78.93,13.61 C100.93,14.44 123.11,12.5 144.51,7.27 C149.4,6.31 154.2,3.03 159.29,4.66 C165.63,6.21 169.32,12.63 170.57,18.62 C174.18,31.27 173.2,44.89 169.33,57.34 C167.02,60.78 164.98,64.38 162.88,67.94 C153.5,82.73 139.65,94.78 123.36,101.36 C107.24,107.97 89.3,109.13 72.17,106.7 C56.1,104.38 40.58,97.47 28.76,86.25 C15.26,73.67 6.68,56.58 2.31,38.81 C2.19,39.26 1.94,40.17 1.82,40.63 L1.74,40.95 C0.42,31.24 0.07,21.33 1.35,11.61 Z M11.29,11.33 C11.51,17.54 10.81,23.75 11.19,29.96 C11.88,46.97 16.31,64.52 27.16,77.99 C32.34,84.54 39.15,89.55 46.41,93.57 L46.64,93.3 C60.19,100.4 76,101.72 91.05,101.1 C102.87,100.42 114.9,98.51 125.63,93.3 L125.86,93.61 C131.28,90.6 136.77,87.59 141.4,83.41 C159.47,67.68 166.62,40.91 159.88,18.08 C159.61,16.04 159.59,13.44 157.32,12.56 C155.06,12.3 152.87,13.17 150.69,13.61 C106.11,24.47 58.14,24.93 14.57,9.43 C12.99,8.42 11.67,9.86 11.29,11.33 Z" id="Shape"></path>
            </g>
            <g id="#6e0028ff" transform="translate(11.000000, 9.000000)" fill="#6E0028">
                <path d="M0.29,2.33 C0.67,0.86 1.99,-0.58 3.57,0.43 C47.14,15.93 95.11,15.47 139.69,4.61 C141.87,4.17 144.06,3.3 146.32,3.56 C148.59,4.44 148.61,7.04 148.88,9.08 C147.94,7.85 146.94,6.67 145.97,5.48 C141.14,7 136.26,8.37 131.29,9.36 C94.15,17.63 54.85,17.75 18.18,7.03 C12.12,5.76 6.66,1.96 0.29,2.33 Z" id="Shape"></path>
            </g>
            <g id="#2d0000ff" transform="translate(11.000000, 11.000000)" fill="#2D0000">
                <path d="M0.29,0.33 C6.66,-0.04 12.12,3.76 18.18,5.03 C17.87,5.77 17.56,6.52 17.25,7.27 C16.17,9.87 15.04,12.45 13.94,15.04 C34.19,24.37 57.04,25.6 79.01,25.09 C97.12,24.48 115.15,22.28 132.95,18.96 C132.57,15.62 131.96,12.33 131.5,9 L131.29,7.36 C136.26,6.37 141.14,5 145.97,3.48 C146.94,4.67 147.94,5.85 148.88,7.08 C155.62,29.91 148.47,56.68 130.4,72.41 C125.77,76.59 120.28,79.6 114.86,82.61 L114.63,82.3 C112.93,79.03 109.56,77.31 105.93,77.36 C104.98,74.6 103.92,71.84 102.25,69.43 C103.94,65.25 106.19,60.75 104.9,56.13 C103.16,49.62 97.32,45.16 91.35,42.67 C80.46,38.32 67.81,38.38 57.01,43 C51.31,45.49 45.87,49.91 44.18,56.14 C42.68,61.51 45.97,66.47 47.92,71.24 C46.97,73.55 46.39,75.98 45.8,78.4 C41.87,77.51 37.73,78.67 35.64,82.3 L35.41,82.57 C28.15,78.55 21.34,73.54 16.16,66.99 C5.31,53.52 0.88,35.97 0.19,18.96 C-0.19,12.75 0.51,6.54 0.29,0.33 Z" id="Shape"></path>
            </g>
            <g id="#b0c0baff" transform="translate(28.000000, 16.000000)" fill="#B0C0BA">
                <path d="M1.18,0.03 C37.85,10.75 77.15,10.63 114.29,2.36 L114.5,4 C112.74,4.77 110.93,5.41 109.05,5.82 C80.1,11.82 50.08,11.62 20.96,6.91 C13.98,5.72 7,4.43 0.25,2.27 C0.56,1.52 0.87,0.77 1.18,0.03 Z" id="Shape"></path>
            </g>
            <g id="#ffffffff" transform="translate(24.000000, 18.000000)" fill="#FFFFFF">
                <path d="M4.25,0.27 C11,2.43 17.98,3.72 24.96,4.91 C54.08,9.62 84.1,9.82 113.05,3.82 C114.93,3.41 116.74,2.77 118.5,2 C118.96,5.33 119.57,8.62 119.95,11.96 C102.15,15.28 84.12,17.48 66.01,18.09 C44.04,18.6 21.19,17.37 0.94,8.04 C2.04,5.45 3.17,2.87 4.25,0.27 Z" id="Shape"></path>
                <path d="M22.64,75.3 C24.73,71.67 28.87,70.51 32.8,71.4 C47.23,73.76 61.99,75.77 76.56,73.41 C82.07,72.65 87.36,70.73 92.93,70.36 C96.56,70.31 99.93,72.03 101.63,75.3 C90.9,80.51 78.87,82.42 67.05,83.1 C52,83.72 36.19,82.4 22.64,75.3 Z" id="Shape"></path>
            </g>
            <g id="#76002fff" transform="translate(1.000000, 38.000000)" fill="#76002F">
                <path d="M0.82,2.63 C0.94,2.17 1.19,1.26 1.31,0.81 C5.68,18.58 14.26,35.67 27.76,48.25 C39.58,59.47 55.1,66.38 71.17,68.7 C88.3,71.13 106.24,69.97 122.36,63.36 C138.65,56.78 152.5,44.73 161.88,29.94 C163.98,26.38 166.02,22.78 168.33,19.34 C164.5,34.71 154.71,48.57 141.82,57.72 C136.37,61.22 130.73,64.49 124.62,66.69 C98.3,75.97 68.56,76.36 42.56,65.76 C25.62,58.09 12.54,43.09 6.27,25.69 C3.7,18.22 1.67,10.47 0.82,2.63 Z" id="Shape"></path>
            </g>
            <g id="#150000ff" transform="translate(54.000000, 50.000000)" fill="#150000">
                <path d="M14.01,4 C24.81,-0.62 37.46,-0.68 48.35,3.67 C54.32,6.16 60.16,10.62 61.9,17.13 C63.19,21.75 60.94,26.25 59.25,30.43 C51.69,21.22 35.23,19.86 27.43,29.44 C26.82,30.08 25.62,31.35 25.01,31.98 C26.4,29.08 28.24,26.43 30.44,24.09 C26.92,21.42 22.45,19.71 18,20.68 C12.03,22.06 7.64,26.99 4.92,32.24 C2.97,27.47 -0.32,22.51 1.18,17.14 C2.87,10.91 8.31,6.49 14.01,4 Z" id="Shape"></path>
            </g>
            <g id="#d0377fff" transform="translate(56.000000, 70.000000)" fill="#D0377F">
                <path d="M2.92,12.24 C5.64,6.99 10.03,2.06 16,0.68 C20.45,-0.29 24.92,1.42 28.44,4.09 C26.24,6.43 24.4,9.08 23.01,11.98 C23.62,11.35 24.82,10.08 25.43,9.44 C33.23,-0.14 49.69,1.22 57.25,10.43 C58.92,12.84 59.98,15.6 60.93,18.36 C55.36,18.73 50.07,20.65 44.56,21.41 C29.99,23.77 15.23,21.76 0.8,19.4 C1.39,16.98 1.97,14.55 2.92,12.24 Z" id="Shape"></path>
            </g>
            <g id="#00000054" transform="translate(43.000000, 95.000000)" fill="#000000" opacity="0.33">
                <path d="M82.62,9.69 C88.73,7.49 94.37,4.22 99.82,0.72 C99.34,1.27 98.39,2.38 97.91,2.94 C86,11.48 71.65,16.43 57.07,17.58 C52.68,17.51 48.31,17.95 43.95,18.37 C32.74,17.71 21.39,16.9 10.66,13.31 C7.2,12.05 3.37,11.28 0.56,8.76 C26.56,19.36 56.3,18.97 82.62,9.69 Z" id="Shape"></path>
                <path d="M14.51,19.19 C30.19,23.18 46.52,22.67 62.41,20.35 C47.55,27.48 28.89,27.62 14.51,19.19 Z" id="Shape"></path>
            </g>
        </g>
    </g>
</svg>