<?xml version="1.0" encoding="UTF-8"?>
<svg width="500px" height="500px" viewBox="0 0 500 500" version="1.1" xmlns="http://www.w3.org/2000/svg" xmlns:xlink="http://www.w3.org/1999/xlink">
    <!-- Generator: Sketch 51 (57462) - http://www.bohemiancoding.com/sketch -->
    <title>mouth-1</title>
    <desc>Created with Sketch.</desc>
    <defs></defs>
    <g id="mouth-1" stroke="none" stroke-width="1" fill="none" fill-rule="evenodd">
        <rect id="Bounds" x="2.27373675e-13" y="0" width="500" height="500"></rect>
        <g transform="translate(139.000000, 325.000000)" fill-rule="nonzero">
            <g id="#ef856cff" fill="#EF856C">
                <path d="M17.45,1.7 C21.87,0.49 26.52,1.09 31.04,1.29 C55.09,3.34 78.97,7.24 103.1,8.54 C132.22,10.63 160.95,1.63 190.08,4.37 C198.27,5.26 206.85,7.22 213.23,12.75 C221.06,19.65 222.83,31.66 219.25,41.15 C215.74,50.28 207.96,56.93 199.77,61.82 C187.23,69.17 173.09,73.33 158.87,75.98 C141.16,79.3 123.03,79.42 105.09,78.57 C85.58,77.5 66.04,75.05 47.2,69.68 C35.65,66.3 24.16,61.82 14.51,54.46 C7.12,48.82 1.14,40.63 0.18,31.17 C-0.37,24.53 0.3,17.49 3.62,11.6 C6.52,6.45 11.93,3.33 17.45,1.7 Z M20.33,14.35 C14.96,16.42 11.78,22.3 12.66,27.95 C13.58,33.95 15.33,40.74 20.75,44.25 C29.72,50.48 40.29,53.86 50.69,56.86 C52.86,57.26 54.96,58.36 57.19,58.27 L57.81,57.83 L57.95,58.57 C90.39,66.5 124.46,66.84 157.36,61.37 C161.96,60.59 166.55,59.73 171.1,58.71 C180.16,56.36 190.32,55.06 197.29,48.21 C202.66,43.22 205.2,35.19 202.94,28.1 C201.13,22.22 196.57,16.29 189.97,15.87 C177.62,14.61 165.19,16.42 152.91,17.71 L152,17.74 C144.13,18.82 136.21,19.51 128.31,20.36 C125.49,20.54 122.66,20.75 119.85,21.04 C99.1,22.48 78.3,20.18 57.89,16.54 C56.04,16.15 54.19,15.75 52.36,15.32 C41.85,13.91 30.62,9.74 20.33,14.35 Z" id="Shape"></path>
            </g>
            <g id="#b75d42ff" transform="translate(12.000000, 12.000000)" fill="#B75D42">
                <path d="M8.33,2.35 C18.62,-2.26 29.85,1.91 40.36,3.32 C35.86,5.29 33.96,10.23 32.69,14.63 C30.16,25.03 33.73,35.75 38.69,44.86 C28.29,41.86 17.72,38.48 8.75,32.25 C3.33,28.74 1.58,21.95 0.66,15.95 C-0.22,10.3 2.96,4.42 8.33,2.35 Z" id="Shape"></path>
                <path d="M140.91,5.71 C153.19,4.42 165.62,2.61 177.97,3.87 C184.57,4.29 189.13,10.22 190.94,16.1 C193.2,23.19 190.66,31.22 185.29,36.21 C178.32,43.06 168.16,44.36 159.1,46.71 C161.63,35.63 162.44,22.57 154.85,13.19 C151.27,9.29 146.73,4.67 140.91,5.71 Z" id="Shape"></path>
            </g>
            <g id="#a2422cff" transform="translate(43.000000, 15.000000)" fill="#A2422C">
                <path d="M1.69,11.63 C2.96,7.23 4.86,2.29 9.36,0.32 C11.19,0.75 13.04,1.15 14.89,1.54 C14.65,5.26 13.75,9.62 16.27,12.8 C18.68,14.97 22.09,15.41 25.13,16.14 C38.59,18.62 52.32,19.11 65.97,19.54 C68.86,19.58 72.36,19.92 74.41,17.41 C77.03,14.25 76.79,9.89 76.85,6.04 C79.66,5.75 82.49,5.54 85.31,5.36 C85.73,8.66 85.47,12.55 87.95,15.11 C94.07,18.89 101.77,16.84 107.64,13.61 C110.85,10.91 109.72,6.29 109,2.74 L109.91,2.71 C115.73,1.67 120.27,6.29 123.85,10.19 C131.44,19.57 130.63,32.63 128.1,43.71 C123.55,44.73 118.96,45.59 114.36,46.37 C114.31,43.6 114.08,40.2 111.31,38.73 C106.36,36.16 100.62,37.81 95.47,38.86 C93.16,36.6 90.62,34.42 87.42,33.57 C77.06,30.25 65.86,27.35 55,29.89 C49.58,31.05 45.3,35.03 42.91,39.91 C36.45,39.2 30.08,37.96 23.84,36.18 C19.42,35 16.09,39.11 14.81,42.83 L14.19,43.27 C11.96,43.36 9.86,42.26 7.69,41.86 C2.73,32.75 -0.84,22.03 1.69,11.63 Z" id="Shape"></path>
            </g>
            <g id="#ffffffff" transform="translate(57.000000, 16.000000)" fill="#FFFFFF">
                <path d="M0.89,0.54 C21.3,4.18 42.1,6.48 62.85,5.04 C62.79,8.89 63.03,13.25 60.41,16.41 C58.36,18.92 54.86,18.58 51.97,18.54 C38.32,18.11 24.59,17.62 11.13,15.14 C8.09,14.41 4.68,13.97 2.27,11.8 C-0.25,8.62 0.65,4.26 0.89,0.54 Z" id="Shape"></path>
                <path d="M71.31,4.36 C79.21,3.51 87.13,2.82 95,1.74 C95.72,5.29 96.85,9.91 93.64,12.61 C87.77,15.84 80.07,17.89 73.95,14.11 C71.47,11.55 71.73,7.66 71.31,4.36 Z" id="Shape"></path>
                <path d="M0.81,41.83 C2.09,38.11 5.42,34 9.84,35.18 C16.08,36.96 22.45,38.2 28.91,38.91 C46.34,40.83 64.23,41.64 81.47,37.86 C86.62,36.81 92.36,35.16 97.31,37.73 C100.08,39.2 100.31,42.6 100.36,45.37 C67.46,50.84 33.39,50.5 0.95,42.57 L0.81,41.83 Z" id="Shape"></path>
            </g>
            <g id="#f64f60ff" transform="translate(85.000000, 43.000000)" fill="#F64F60">
                <path d="M13,1.89 C23.86,-0.65 35.06,2.25 45.42,5.57 C48.62,6.42 51.16,8.6 53.47,10.86 C36.23,14.64 18.34,13.83 0.91,11.91 C3.3,7.03 7.58,3.05 13,1.89 Z" id="Shape"></path>
            </g>
        </g>
    </g>
</svg>